<svg xmlns="http://www.w3.org/2000/svg" width="634.721" height="635" viewBox="0 0 634.721 635">
  <g id="Order_ahead-pana" data-name="Order ahead-pana" transform="translate(-32.65 -31.27)">
    <g id="freepik--background-complete--inject-61" transform="translate(44.601 31.27)">
      <path id="Path_25617" data-name="Path 25617" d="M454.122,109.6c1-7.35-9.319-13.332-17.081-13.964-3.7-.294-7.541.265-11.054-.955-7.6-2.646-10.628-12.465-18.036-15.581-5.542-2.337-11.921-.265-17.3,2.44s-10.672,6.115-16.669,6.5c-5.233.338-10.892-1.6-15.464.941-3.41,1.911-5.189,5.88-8.32,8.143s-7.07,2.734-10.878,2.94-7.761.25-11.216,1.837-6.335,5.262-5.63,9Z" transform="translate(91.549 -9.272)" fill="#f5f5f5"/>
      <rect id="Rectangle_19160" data-name="Rectangle 19160" width="49.464" height="209.187" transform="translate(375.82 234.367)" fill="#ebebeb"/>
      <rect id="Rectangle_19161" data-name="Rectangle 19161" width="15.037" height="28.973" transform="translate(385.051 249.037)" fill="#fff"/>
      <path id="Path_25618" data-name="Path 25618" d="M308.2,229.663c-.118,0-.206-6.482-.206-14.494s.088-14.479.206-14.479.206,6.482.206,14.479S308.3,229.663,308.2,229.663Z" transform="translate(84.793 48.347)" fill="#e0e0e0"/>
      <path id="Path_25619" data-name="Path 25619" d="M317.8,207.606a147.732,147.732,0,0,1-15.023,0,137.19,137.19,0,0,1,15.023,0Z" transform="translate(82.345 51.501)" fill="#e0e0e0"/>
      <path id="Path_25620" data-name="Path 25620" d="M317.845,214.656c0,.1-3.4.191-7.585.191s-7.57-.088-7.57-.191a139.669,139.669,0,0,1,15.155,0Z" transform="translate(82.302 54.814)" fill="#e0e0e0"/>
      <rect id="Rectangle_19162" data-name="Rectangle 19162" width="15.037" height="28.973" transform="translate(385.051 286.874)" fill="#fff"/>
      <path id="Path_25621" data-name="Path 25621" d="M308.2,255.4c-.118,0-.206-6.482-.206-14.479s.088-14.494.206-14.494.206,6.5.206,14.494S308.3,255.4,308.2,255.4Z" transform="translate(84.793 60.444)" fill="#e0e0e0"/>
      <path id="Path_25622" data-name="Path 25622" d="M317.8,233.341a137.188,137.188,0,0,1-15.023,0A147.722,147.722,0,0,1,317.8,233.341Z" transform="translate(82.345 63.602)" fill="#e0e0e0"/>
      <path id="Path_25623" data-name="Path 25623" d="M317.845,240.4a139.628,139.628,0,0,1-15.155,0,139.637,139.637,0,0,1,15.155,0Z" transform="translate(82.302 66.91)" fill="#e0e0e0"/>
      <rect id="Rectangle_19163" data-name="Rectangle 19163" width="15.037" height="28.973" transform="translate(385.051 324.725)" fill="#fff"/>
      <path id="Path_25624" data-name="Path 25624" d="M308.2,281.153c-.118,0-.206-6.482-.206-14.494s.088-14.479.206-14.479.206,6.482.206,14.479S308.3,281.153,308.2,281.153Z" transform="translate(84.793 72.545)" fill="#e0e0e0"/>
      <path id="Path_25625" data-name="Path 25625" d="M317.8,259.066a147.732,147.732,0,0,1-15.023,0,137.175,137.175,0,0,1,15.023,0Z" transform="translate(82.345 75.684)" fill="#e0e0e0"/>
      <path id="Path_25626" data-name="Path 25626" d="M317.845,266.146c0,.1-3.4.191-7.585.191s-7.57-.088-7.57-.191a139.646,139.646,0,0,1,15.155,0Z" transform="translate(82.302 79.011)" fill="#e0e0e0"/>
      <rect id="Rectangle_19164" data-name="Rectangle 19164" width="15.037" height="28.973" transform="translate(385.051 362.561)" fill="#fff"/>
      <path id="Path_25627" data-name="Path 25627" d="M308.2,306.893c-.118,0-.206-6.482-.206-14.479s.088-14.494.206-14.494.206,6.5.206,14.494S308.3,306.893,308.2,306.893Z" transform="translate(84.793 84.641)" fill="#e0e0e0"/>
      <path id="Path_25628" data-name="Path 25628" d="M317.8,284.831a137.173,137.173,0,0,1-15.023,0A147.74,147.74,0,0,1,317.8,284.831Z" transform="translate(82.345 87.799)" fill="#e0e0e0"/>
      <path id="Path_25629" data-name="Path 25629" d="M317.845,291.886a139.636,139.636,0,0,1-15.155,0,139.645,139.645,0,0,1,15.155,0Z" transform="translate(82.302 91.107)" fill="#e0e0e0"/>
      <rect id="Rectangle_19165" data-name="Rectangle 19165" width="36.043" height="209.187" transform="translate(410.29 234.367)" fill="#e0e0e0"/>
      <rect id="Rectangle_19166" data-name="Rectangle 19166" width="15.037" height="28.973" transform="translate(421.476 249.037)" fill="#fff"/>
      <path id="Path_25630" data-name="Path 25630" d="M332.971,229.663c-.1,0-.191-6.482-.191-14.494s.088-14.479.191-14.479.206,6.482.206,14.479S333.1,229.663,332.971,229.663Z" transform="translate(96.443 48.347)" fill="#e0e0e0"/>
      <path id="Path_25631" data-name="Path 25631" d="M342.547,207.606a148,148,0,0,1-15.037,0,137.441,137.441,0,0,1,15.037,0Z" transform="translate(93.966 51.501)" fill="#e0e0e0"/>
      <path id="Path_25632" data-name="Path 25632" d="M342.635,214.656c0,.1-3.381.191-7.57.191s-7.585-.088-7.585-.191a139.669,139.669,0,0,1,15.155,0Z" transform="translate(93.952 54.814)" fill="#e0e0e0"/>
      <rect id="Rectangle_19167" data-name="Rectangle 19167" width="15.037" height="28.973" transform="translate(421.476 287.197)" fill="#fff"/>
      <path id="Path_25633" data-name="Path 25633" d="M332.971,255.623c-.1,0-.191-6.5-.191-14.494s.088-14.479.191-14.479.206,6.482.206,14.479S333.1,255.623,332.971,255.623Z" transform="translate(96.443 60.547)" fill="#e0e0e0"/>
      <path id="Path_25634" data-name="Path 25634" d="M342.547,233.551a137.451,137.451,0,0,1-15.038,0,148.032,148.032,0,0,1,15.038,0Z" transform="translate(93.966 63.7)" fill="#e0e0e0"/>
      <path id="Path_25635" data-name="Path 25635" d="M342.635,240.6a139.636,139.636,0,0,1-15.155,0c0-.1,3.4-.191,7.585-.191S342.635,240.5,342.635,240.6Z" transform="translate(93.952 67.014)" fill="#e0e0e0"/>
      <rect id="Rectangle_19168" data-name="Rectangle 19168" width="15.037" height="28.973" transform="translate(421.476 325.342)" fill="#fff"/>
      <path id="Path_25636" data-name="Path 25636" d="M332.971,281.573c-.1,0-.191-6.482-.191-14.479s.088-14.494.191-14.494.206,6.482.206,14.494S333.1,281.573,332.971,281.573Z" transform="translate(96.443 72.742)" fill="#e0e0e0"/>
      <path id="Path_25637" data-name="Path 25637" d="M342.547,259.516a137.443,137.443,0,0,1-15.038,0A137.443,137.443,0,0,1,342.547,259.516Z" transform="translate(93.966 75.895)" fill="#e0e0e0"/>
      <path id="Path_25638" data-name="Path 25638" d="M342.635,266.566c0,.1-3.381.191-7.57.191s-7.585-.088-7.585-.191a139.646,139.646,0,0,1,15.155,0Z" transform="translate(93.952 79.209)" fill="#e0e0e0"/>
      <rect id="Rectangle_19169" data-name="Rectangle 19169" width="15.037" height="28.973" transform="translate(421.476 363.502)" fill="#fff"/>
      <path id="Path_25639" data-name="Path 25639" d="M332.971,307.533c-.1,0-.191-6.482-.191-14.494s.088-14.479.191-14.479.206,6.482.206,14.479S333.1,307.533,332.971,307.533Z" transform="translate(96.443 84.942)" fill="#e0e0e0"/>
      <path id="Path_25640" data-name="Path 25640" d="M342.547,285.476a147.985,147.985,0,0,1-15.037,0,137.449,137.449,0,0,1,15.037,0Z" transform="translate(93.966 88.095)" fill="#e0e0e0"/>
      <path id="Path_25641" data-name="Path 25641" d="M342.635,292.511a139.629,139.629,0,0,1-15.155,0c0-.1,3.4-.191,7.585-.191S342.635,292.408,342.635,292.511Z" transform="translate(93.952 91.408)" fill="#e0e0e0"/>
      <rect id="Rectangle_19170" data-name="Rectangle 19170" width="15.037" height="28.973" transform="translate(385.051 400.412)" fill="#fff"/>
      <path id="Path_25642" data-name="Path 25642" d="M308.2,332.643c-.118,0-.206-6.482-.206-14.494s.088-14.479.206-14.479.206,6.482.206,14.479S308.3,332.643,308.2,332.643Z" transform="translate(84.793 96.742)" fill="#e0e0e0"/>
      <path id="Path_25643" data-name="Path 25643" d="M317.8,310.586a147.741,147.741,0,0,1-15.023,0,137.19,137.19,0,0,1,15.023,0Z" transform="translate(82.345 99.895)" fill="#e0e0e0"/>
      <path id="Path_25644" data-name="Path 25644" d="M317.845,317.636c0,.1-3.4.191-7.585.191s-7.57-.088-7.57-.191a139.677,139.677,0,0,1,15.155,0Z" transform="translate(82.302 103.208)" fill="#e0e0e0"/>
      <rect id="Rectangle_19171" data-name="Rectangle 19171" width="15.037" height="28.973" transform="translate(421.476 401.647)" fill="#fff"/>
      <path id="Path_25645" data-name="Path 25645" d="M332.971,333.483c-.1,0-.191-6.482-.191-14.479s.088-14.494.191-14.494.206,6.5.206,14.494S333.1,333.483,332.971,333.483Z" transform="translate(96.443 97.137)" fill="#e0e0e0"/>
      <path id="Path_25646" data-name="Path 25646" d="M342.547,311.426a137.458,137.458,0,0,1-15.038,0,137.435,137.435,0,0,1,15.038,0Z" transform="translate(93.966 100.29)" fill="#e0e0e0"/>
      <path id="Path_25647" data-name="Path 25647" d="M342.635,318.476a139.644,139.644,0,0,1-15.155,0,139.645,139.645,0,0,1,15.155,0Z" transform="translate(93.952 103.603)" fill="#e0e0e0"/>
      <rect id="Rectangle_19172" data-name="Rectangle 19172" width="34.911" height="147.626" transform="translate(558.798 296.178)" fill="#ebebeb"/>
      <rect id="Rectangle_19173" data-name="Rectangle 19173" width="10.613" height="20.447" transform="translate(565.295 306.527)" fill="#fff"/>
      <path id="Path_25648" data-name="Path 25648" d="M429.2,260.289c-.073,0-.132-4.572-.132-10.29s0-10.29.132-10.29.147,4.586.147,10.29S429.29,260.289,429.2,260.289Z" transform="translate(141.694 66.685)" fill="#e0e0e0"/>
      <path id="Path_25649" data-name="Path 25649" d="M435.963,244.687c0,.074-2.381.132-5.306.132a38.036,38.036,0,0,1-5.306-.132,95.852,95.852,0,0,1,10.613,0Z" transform="translate(139.945 68.954)" fill="#e0e0e0"/>
      <path id="Path_25650" data-name="Path 25650" d="M436.031,249.657a97.466,97.466,0,0,1-10.7,0,97.451,97.451,0,0,1,10.7,0Z" transform="translate(139.936 71.29)" fill="#e0e0e0"/>
      <rect id="Rectangle_19174" data-name="Rectangle 19174" width="10.613" height="20.447" transform="translate(565.295 333.236)" fill="#fff"/>
      <path id="Path_25651" data-name="Path 25651" d="M429.2,278.436c-.073,0-.132-4.572-.132-10.216s0-10.29.132-10.29.147,4.586.147,10.29S429.29,278.436,429.2,278.436Z" transform="translate(141.694 75.247)" fill="#e0e0e0"/>
      <path id="Path_25652" data-name="Path 25652" d="M435.963,262.857c0,.073-2.381.132-5.306.132a38.036,38.036,0,0,1-5.306-.132,95.845,95.845,0,0,1,10.613,0Z" transform="translate(139.945 77.493)" fill="#e0e0e0"/>
      <path id="Path_25653" data-name="Path 25653" d="M436.031,267.827a97.458,97.458,0,0,1-10.7,0A97.443,97.443,0,0,1,436.031,267.827Z" transform="translate(139.936 79.829)" fill="#e0e0e0"/>
      <rect id="Rectangle_19175" data-name="Rectangle 19175" width="10.613" height="20.447" transform="translate(565.295 359.945)" fill="#fff"/>
      <path id="Path_25654" data-name="Path 25654" d="M429.2,296.606c-.073,0-.132-4.571-.132-10.216s0-10.29.132-10.29.147,4.586.147,10.29S429.29,296.606,429.2,296.606Z" transform="translate(141.694 83.786)" fill="#e0e0e0"/>
      <path id="Path_25655" data-name="Path 25655" d="M435.963,281.042a95.86,95.86,0,0,1-10.613,0c0-.073,2.381-.132,5.306-.132A40.954,40.954,0,0,1,435.963,281.042Z" transform="translate(139.945 86.046)" fill="#e0e0e0"/>
      <path id="Path_25656" data-name="Path 25656" d="M436.031,286.047a97.443,97.443,0,0,1-10.7,0A97.458,97.458,0,0,1,436.031,286.047Z" transform="translate(139.936 88.391)" fill="#e0e0e0"/>
      <rect id="Rectangle_19176" data-name="Rectangle 19176" width="10.613" height="20.447" transform="translate(565.295 386.653)" fill="#fff"/>
      <path id="Path_25657" data-name="Path 25657" d="M429.2,314.8c-.073,0-.132-4.572-.132-10.29s0-10.29.132-10.29.147,4.586.147,10.29S429.29,314.8,429.2,314.8Z" transform="translate(141.694 92.301)" fill="#e0e0e0"/>
      <path id="Path_25658" data-name="Path 25658" d="M435.963,299.182a95.845,95.845,0,0,1-10.613,0c0-.073,2.381-.132,5.306-.132S435.963,299.109,435.963,299.182Z" transform="translate(139.945 94.571)" fill="#e0e0e0"/>
      <path id="Path_25659" data-name="Path 25659" d="M436.031,304.167a97.451,97.451,0,0,1-10.7,0A97.458,97.458,0,0,1,436.031,304.167Z" transform="translate(139.936 96.906)" fill="#e0e0e0"/>
      <rect id="Rectangle_19177" data-name="Rectangle 19177" width="25.43" height="147.626" transform="translate(583.111 296.178)" fill="#e0e0e0"/>
      <rect id="Rectangle_19178" data-name="Rectangle 19178" width="10.613" height="20.447" transform="translate(591.005 306.527)" fill="#fff"/>
      <path id="Path_25660" data-name="Path 25660" d="M446.707,260.289c-.088,0-.147-4.572-.147-10.29s0-10.29.147-10.29.132,4.586.132,10.29S446.78,260.289,446.707,260.289Z" transform="translate(149.913 66.685)" fill="#e0e0e0"/>
      <path id="Path_25661" data-name="Path 25661" d="M453.453,244.687a53.015,53.015,0,0,1-5.306.132,37.894,37.894,0,0,1-5.307-.132,95.852,95.852,0,0,1,10.613,0Z" transform="translate(148.165 68.954)" fill="#e0e0e0"/>
      <path id="Path_25662" data-name="Path 25662" d="M453.521,249.657a97.466,97.466,0,0,1-10.7,0,97.451,97.451,0,0,1,10.7,0Z" transform="translate(148.155 71.29)" fill="#e0e0e0"/>
      <rect id="Rectangle_19179" data-name="Rectangle 19179" width="10.613" height="20.447" transform="translate(591.005 333.456)" fill="#fff"/>
      <path id="Path_25663" data-name="Path 25663" d="M446.707,278.556c-.088,0-.147-4.572-.147-10.216s0-10.29.147-10.29.132,4.572.132,10.29S446.78,278.556,446.707,278.556Z" transform="translate(149.913 75.303)" fill="#e0e0e0"/>
      <path id="Path_25664" data-name="Path 25664" d="M453.453,263.048a95.83,95.83,0,0,1-10.613,0c0-.073,2.381-.132,5.306-.132A53.033,53.033,0,0,1,453.453,263.048Z" transform="translate(148.165 77.582)" fill="#e0e0e0"/>
      <path id="Path_25665" data-name="Path 25665" d="M453.521,267.977a97.436,97.436,0,0,1-10.7,0A97.458,97.458,0,0,1,453.521,267.977Z" transform="translate(148.155 79.899)" fill="#e0e0e0"/>
      <rect id="Rectangle_19180" data-name="Rectangle 19180" width="10.613" height="20.447" transform="translate(591.005 360.386)" fill="#fff"/>
      <path id="Path_25666" data-name="Path 25666" d="M446.707,296.929c-.088,0-.147-4.572-.147-10.29s0-10.29.147-10.29.132,4.571.132,10.29S446.78,296.929,446.707,296.929Z" transform="translate(149.913 83.903)" fill="#e0e0e0"/>
      <path id="Path_25667" data-name="Path 25667" d="M453.453,281.318a95.86,95.86,0,0,1-10.613,0s2.381-.132,5.306-.132A53.034,53.034,0,0,1,453.453,281.318Z" transform="translate(148.165 86.168)" fill="#e0e0e0"/>
      <path id="Path_25668" data-name="Path 25668" d="M453.521,286.3c0,.073-2.4.132-5.351.132a38.61,38.61,0,0,1-5.351-.132,97.443,97.443,0,0,1,10.7,0Z" transform="translate(148.155 88.509)" fill="#e0e0e0"/>
      <rect id="Rectangle_19181" data-name="Rectangle 19181" width="10.613" height="20.447" transform="translate(591.005 387.315)" fill="#fff"/>
      <path id="Path_25669" data-name="Path 25669" d="M446.707,315.226c-.088,0-.147-4.572-.147-10.29s0-10.216.147-10.216.132,4.572.132,10.216S446.78,315.226,446.707,315.226Z" transform="translate(149.913 92.536)" fill="#e0e0e0"/>
      <path id="Path_25670" data-name="Path 25670" d="M453.453,299.638a95.86,95.86,0,0,1-10.613,0s2.381-.132,5.306-.132A53.006,53.006,0,0,1,453.453,299.638Z" transform="translate(148.165 94.777)" fill="#e0e0e0"/>
      <path id="Path_25671" data-name="Path 25671" d="M453.521,304.617c0,.073-2.4.132-5.351.132a38.627,38.627,0,0,1-5.351-.132A97.458,97.458,0,0,1,453.521,304.617Z" transform="translate(148.155 97.118)" fill="#e0e0e0"/>
      <rect id="Rectangle_19182" data-name="Rectangle 19182" width="10.613" height="20.447" transform="translate(565.295 413.362)" fill="#fff"/>
      <path id="Path_25672" data-name="Path 25672" d="M429.2,332.946c-.073,0-.132-4.572-.132-10.216s0-10.29.132-10.29.147,4.586.147,10.29S429.29,332.946,429.2,332.946Z" transform="translate(141.694 100.863)" fill="#e0e0e0"/>
      <path id="Path_25673" data-name="Path 25673" d="M435.963,317.352a95.86,95.86,0,0,1-10.613,0c0-.073,2.381-.132,5.306-.132S435.963,317.279,435.963,317.352Z" transform="translate(139.945 103.11)" fill="#e0e0e0"/>
      <path id="Path_25674" data-name="Path 25674" d="M436.031,322.337a97.428,97.428,0,0,1-10.7,0A97.458,97.458,0,0,1,436.031,322.337Z" transform="translate(139.936 105.445)" fill="#e0e0e0"/>
      <rect id="Rectangle_19183" data-name="Rectangle 19183" width="10.613" height="20.447" transform="translate(591.005 414.244)" fill="#fff"/>
      <path id="Path_25675" data-name="Path 25675" d="M446.707,333.556c-.088,0-.147-4.586-.147-10.29s0-10.216.147-10.216.132,4.571.132,10.216S446.78,333.556,446.707,333.556Z" transform="translate(149.913 101.15)" fill="#e0e0e0"/>
      <path id="Path_25676" data-name="Path 25676" d="M453.453,317.957a95.86,95.86,0,0,1-10.613,0,95.86,95.86,0,0,1,10.613,0Z" transform="translate(148.165 103.387)" fill="#e0e0e0"/>
      <path id="Path_25677" data-name="Path 25677" d="M453.521,322.937c0,.073-2.4.132-5.351.132a38.618,38.618,0,0,1-5.351-.132A97.458,97.458,0,0,1,453.521,322.937Z" transform="translate(148.155 105.727)" fill="#e0e0e0"/>
      <path id="Path_25678" data-name="Path 25678" d="M486.542,195.928c.72-5.159-6.571-9.408-12.054-9.849-2.6-.206-5.321.191-7.791-.676-5.365-1.867-7.5-8.82-12.73-11-3.91-1.646-8.408-.176-12.2,1.735s-7.541,4.307-11.76,4.572c-3.69.235-7.688-1.132-10.907.676-2.411,1.338-3.66,4.1-5.88,5.733a13.95,13.95,0,0,1-7.673,2.087,21.771,21.771,0,0,0-7.923,1.294c-2.44,1.117-4.41,3.7-3.954,6.35Z" transform="translate(125.027 35.662)" fill="#ebebeb"/>
      <path id="Path_25679" data-name="Path 25679" d="M216.76,46.734a43.555,43.555,0,0,1,10.628-4.616l2.2-10.525,17.772-.323,2.572,10.451a43.6,43.6,0,0,1,10.833,4.248l8.981-5.88,12.8,12.347-5.615,9.172a43.643,43.643,0,0,1,4.616,10.642l10.525,2.19.309,17.786-10.437,2.558a43.155,43.155,0,0,1-4.248,10.789l5.88,9L271.236,127.36l-9.2-5.571a43.348,43.348,0,0,1-10.613,4.63l-2.19,10.525-17.786.309-2.558-10.437a43.731,43.731,0,0,1-10.745-4.248l-9,5.88L196.313,116.13l5.571-9.187a43.452,43.452,0,0,1-4.63-10.642l-10.525-2.22-.309-17.786,10.437-2.558A44.187,44.187,0,0,1,201.1,62.947l-5.88-8.981,12.348-12.8Zm9.481,23.7a19.109,19.109,0,1,0,26.973-.47,19.109,19.109,0,0,0-26.973.47Z" transform="translate(27.662 -31.27)" fill="#ebebeb"/>
      <path id="Path_25680" data-name="Path 25680" d="M120.471,360.435a49.1,49.1,0,0,1,11.951-5.189l2.455-11.833,19.991-.353,2.94,11.76a49.083,49.083,0,0,1,12.127,4.763l10.1-6.615,14.376,13.876-6.262,10.29a49.139,49.139,0,0,1,5.2,11.951l11.76,2.469.353,19.977-11.76,2.94a49.125,49.125,0,0,1-4.777,12.127l6.629,10.1-13.891,14.376-10.29-6.262a48.684,48.684,0,0,1-12.024,5.174L156.9,461.816l-19.991.338-2.94-11.76a48.331,48.331,0,0,1-12.127-4.777l-10.113,6.63L97.349,438.356l6.262-10.29a49.1,49.1,0,0,1-5.189-11.951l-11.76-2.47L86.31,393.67l11.76-2.94a48.847,48.847,0,0,1,4.763-12.127l-6.615-10.1,13.876-14.391,10.29,6.262Zm10.657,26.635a21.417,21.417,0,1,0,15.042-6.557A21.446,21.446,0,0,0,131.129,387.07Z" transform="translate(-19.384 115.253)" fill="#e0e0e0"/>
      <path id="Path_25681" data-name="Path 25681" d="M62.285,412.261a31.013,31.013,0,0,1,7.526-3.278l1.558-7.453,12.6-.221,1.823,7.35a31.1,31.1,0,0,1,7.644,3.013L99.8,407.5l9.07,8.746-3.954,6.512a31.12,31.12,0,0,1,3.278,7.541l7.453,1.544.22,12.612-7.35,1.808a30.1,30.1,0,0,1-2.94,7.644l4.175,6.365-8.82,9.07L94.418,465.4a30.517,30.517,0,0,1-7.541,3.263l-1.47,7.467-12.6.221L70.987,469a30.871,30.871,0,0,1-7.644-2.94l-6.365,4.175-9.07-8.82,3.954-6.512a30.456,30.456,0,0,1-3.41-7.541l-7.467-1.558-.206-12.612,7.35-1.808a30.62,30.62,0,0,1,2.94-7.644l-4.086-6.365,8.82-9.055,6.512,3.939Zm6.747,16.787a13.494,13.494,0,1,0,9.5-4.1,13.524,13.524,0,0,0-9.5,4.1Z" transform="translate(-40.78 142.627)" fill="#f5f5f5"/>
      <rect id="Rectangle_19184" data-name="Rectangle 19184" width="102.087" height="9.952" transform="translate(445.069 469.485)" fill="#ebebeb"/>
    </g>
    <g id="freepik--Table--inject-61" transform="translate(32.65 665.506)">
      <path id="Path_25682" data-name="Path 25682" d="M639.295,463.122c0,.206-135.808.382-303.308.382s-303.337-.221-303.337-.382,135.778-.382,303.337-.382S639.295,462.872,639.295,463.122Z" transform="translate(-32.65 -462.74)" fill="#263238"/>
    </g>
    <g id="freepik--Plant--inject-61" transform="translate(509.25 566.891)">
      <path id="Path_25683" data-name="Path 25683" d="M385.419,395.8a18.55,18.55,0,0,1,9.613,10.892,32.735,32.735,0,0,1,1.279,14.7c-1.088,9.569-6.527,19.227-12.392,26.885-8.055-7.041-9.907-19.315-10.466-25.592-.867-9.937,3.6-28.429,11.965-26.944" transform="translate(-349.143 -395.653)" fill="#56878b"/>
      <path id="Path_25684" data-name="Path 25684" d="M387.02,448.628a15.817,15.817,0,0,1,5.115-15.052,20.962,20.962,0,0,1,15.493-4.836c2.572.191,5.351.941,6.806,3.043a6.791,6.791,0,0,1,.118,6.865,13.613,13.613,0,0,1-5.086,5c-6.982,4.41-14.552,7.35-22.446,4.983" transform="translate(-342.864 -380.148)" fill="#56878b"/>
      <path id="Path_25685" data-name="Path 25685" d="M379.89,474.952a9.918,9.918,0,0,1,.279-1.97c.25-1.382.588-3.175.97-5.321a55.68,55.68,0,0,1,5.5-16.978,33.926,33.926,0,0,1,12.186-12.95,23.308,23.308,0,0,1,4.968-2.2,13.2,13.2,0,0,1,1.47-.367c.367-.088.515-.088.515,0a31.589,31.589,0,0,0-18.492,15.919c-3.381,6.056-4.6,12.333-5.615,16.743-.485,2.234-.882,4.042-1.191,5.277A12.225,12.225,0,0,1,379.89,474.952Z" transform="translate(-346.068 -377.117)" fill="#263238"/>
      <path id="Path_25686" data-name="Path 25686" d="M380.213,405.53a3.608,3.608,0,0,1,.1.853c0,.647.088,1.47.147,2.469.118,2.146.235,5.248.367,9.084.25,7.673.441,18.271.382,29.987s-.338,22.314-.647,29.987c-.162,3.837-.309,6.938-.441,9.084,0,1-.132,1.823-.176,2.455a3.66,3.66,0,0,1-.1.867,5.744,5.744,0,0,1,0-.867v-2.469c0-2.234.132-5.321.22-9.084.191-7.673.4-18.271.456-29.972s-.073-22.3-.191-29.972c0-3.778-.1-6.85-.147-9.084V406.4a6.531,6.531,0,0,1,.029-.867Z" transform="translate(-346.097 -391.011)" fill="#263238"/>
      <path id="Path_25687" data-name="Path 25687" d="M387.087,455.295a37.057,37.057,0,0,0-20.212-27.12c-2.7-1.294-6.218-2.131-8.437-.132s-1.72,5.615-.632,8.408a31.619,31.619,0,0,0,29.09,19.638" transform="translate(-356.881 -380.993)" fill="#56878b"/>
      <path id="Path_25688" data-name="Path 25688" d="M364.56,433.93a8.821,8.821,0,0,1,1.72.75,16.05,16.05,0,0,1,1.926,1.029,24.125,24.125,0,0,1,2.469,1.543,31.235,31.235,0,0,1,2.808,2.117,35.606,35.606,0,0,1,2.94,2.719,40.576,40.576,0,0,1,5.689,7.35,39.691,39.691,0,0,1,3.763,8.482,33.792,33.792,0,0,1,.941,3.939,29.9,29.9,0,0,1,.485,3.484,26.283,26.283,0,0,1,.132,2.94,16.769,16.769,0,0,1,0,2.19,10.286,10.286,0,0,1-.176,1.779c-.162,0,.1-2.661-.353-6.894a34.209,34.209,0,0,0-.573-3.44,33.011,33.011,0,0,0-.985-3.851,39,39,0,0,0-9.29-15.537,35.644,35.644,0,0,0-2.94-2.734c-1-.794-1.882-1.47-2.734-2.161C366.927,435.165,364.5,434.033,364.56,433.93Z" transform="translate(-353.273 -377.665)" fill="#263238"/>
    </g>
    <g id="freepik--coffee-shop--inject-61" transform="translate(406.53 328.639)">
      <rect id="Rectangle_19185" data-name="Rectangle 19185" width="141.173" height="110.069" transform="translate(65.897 36.116)" fill="#f5f5f5"/>
      <path id="Path_25689" data-name="Path 25689" d="M473.027,368.246V338.053c0-19.2,0-46.7-.1-79.891l.206.22H332.015l.265-.265V368.187l-.235-.235L434,368.069h.1l-102.1.118h-.22V258H473.218v.206c0,33.25-.088,60.8-.118,80.024v28.12A15.757,15.757,0,0,1,473.027,368.246Z" transform="translate(-265.956 -222.089)" fill="#263238"/>
      <path id="Path_25690" data-name="Path 25690" d="M333.79,253.75l-11.48,37.337H487.546l-9.334-37.337Z" transform="translate(-270.406 -224.087)" fill="#56878b"/>
      <path id="Path_25691" data-name="Path 25691" d="M322.31,279.15a9.07,9.07,0,0,0,18.124,0Z" transform="translate(-270.406 -212.15)" fill="#56878b"/>
      <path id="Path_25692" data-name="Path 25692" d="M334.82,279.15a9.07,9.07,0,0,0,18.124,0Z" transform="translate(-264.527 -212.15)" fill="#56878b"/>
      <path id="Path_25693" data-name="Path 25693" d="M347.33,279.15a9.07,9.07,0,0,0,18.124,0Z" transform="translate(-258.648 -212.15)" fill="#56878b"/>
      <path id="Path_25694" data-name="Path 25694" d="M359.84,279.15a9.07,9.07,0,0,0,18.124,0Z" transform="translate(-252.77 -212.15)" fill="#56878b"/>
      <path id="Path_25695" data-name="Path 25695" d="M372.35,279.15a9.069,9.069,0,0,0,18.124,0Z" transform="translate(-246.891 -212.15)" fill="#56878b"/>
      <path id="Path_25696" data-name="Path 25696" d="M384.86,279.15a9.07,9.07,0,0,0,18.124,0Z" transform="translate(-241.012 -212.15)" fill="#56878b"/>
      <path id="Path_25697" data-name="Path 25697" d="M397.37,279.15a9.07,9.07,0,0,0,18.124,0Z" transform="translate(-235.133 -212.15)" fill="#56878b"/>
      <path id="Path_25698" data-name="Path 25698" d="M409.88,279.15a9.07,9.07,0,0,0,18.124,0Z" transform="translate(-229.254 -212.15)" fill="#56878b"/>
      <path id="Path_25699" data-name="Path 25699" d="M422.39,279.15a9.069,9.069,0,0,0,18.124,0Z" transform="translate(-223.375 -212.15)" fill="#56878b"/>
      <path id="Path_25700" data-name="Path 25700" d="M487.426,279.28c0,.147-36.94.265-82.493.265s-82.522-.118-82.522-.265,36.94-.25,82.522-.25S487.426,279.148,487.426,279.28Z" transform="translate(-270.359 -212.206)" fill="#263238"/>
      <rect id="Rectangle_19186" data-name="Rectangle 19186" width="29.796" height="63.693" transform="translate(161.37 82.493)" fill="#fff"/>
      <path id="Path_25701" data-name="Path 25701" d="M426.664,289.751a2.037,2.037,0,0,1,0,.294v4.38c0,3.087,0,7.556.073,13.229,0,11.333.073,27.282.118,45.847v.25H396.883c-.529-.514-.147-.162-.265-.279h0V289.56h.191l21.858.1h-.162l-21.74.1.191-.191v63.84h0c-.118-.1.25.279-.25-.235h29.781l-.235.25c0-18.507.073-34.4.1-45.686,0-5.63,0-10.113.073-13.229v-4.469A2.943,2.943,0,0,1,426.664,289.751Z" transform="translate(-235.498 -207.258)" fill="#263238"/>
      <rect id="Rectangle_19187" data-name="Rectangle 19187" width="3.969" height="12.877" transform="translate(164.354 107.894)" fill="#e0e0e0"/>
      <path id="Path_25702" data-name="Path 25702" d="M403.47,325.475a192.976,192.976,0,0,1,11.98-16.4,98.072,98.072,0,0,1-5.777,8.349C406.366,321.947,403.588,325.548,403.47,325.475Z" transform="translate(-232.266 -198.089)" fill="#263238"/>
      <path id="Path_25703" data-name="Path 25703" d="M407.261,322.763c-.1-.1,1.97-2.367,4.263-5.38s3.954-5.586,4.072-5.512a7.085,7.085,0,0,1-.911,1.808,45.1,45.1,0,0,1-2.763,4.028,43.831,43.831,0,0,1-3.16,3.7C407.893,322.351,407.32,322.822,407.261,322.763Z" transform="translate(-230.486 -196.774)" fill="#263238"/>
      <rect id="Rectangle_19188" data-name="Rectangle 19188" width="13.729" height="5.336" transform="translate(70.293 88.49)" fill="#fafafa"/>
      <rect id="Rectangle_19189" data-name="Rectangle 19189" width="11.26" height="5.336" transform="translate(66.147 93.826)" fill="#e0e0e0"/>
      <rect id="Rectangle_19190" data-name="Rectangle 19190" width="13.729" height="5.336" transform="translate(103.837 127.429)" fill="#fafafa"/>
      <rect id="Rectangle_19191" data-name="Rectangle 19191" width="6.571" height="5.336" transform="translate(148.244 113.847)" fill="#e0e0e0"/>
      <rect id="Rectangle_19192" data-name="Rectangle 19192" width="12.847" height="5.336" transform="translate(191.401 108.702)" fill="#e0e0e0"/>
      <rect id="Rectangle_19193" data-name="Rectangle 19193" width="13.127" height="5.336" transform="translate(136.66 135.117)" fill="#e0e0e0"/>
      <rect id="Rectangle_19194" data-name="Rectangle 19194" width="13.127" height="5.336" transform="translate(68.72 130.09)" fill="#fafafa"/>
      <rect id="Rectangle_19195" data-name="Rectangle 19195" width="7.188" height="5.336" transform="translate(153.859 85.257)" fill="#fafafa"/>
      <rect id="Rectangle_19196" data-name="Rectangle 19196" width="13.553" height="5.336" transform="translate(96.619 132.75)" fill="#e0e0e0"/>
      <rect id="Rectangle_19197" data-name="Rectangle 19197" width="64.222" height="44.936" transform="translate(84.022 82.493)" fill="#fff"/>
      <path id="Path_25704" data-name="Path 25704" d="M408.457,334.781V322.492c0-7.82,0-19.036-.1-32.647l.206.206H344.338l.25-.25v44.936l-.235-.235,46.259.1,13.229.073H390.656l-46.406.118H344V289.36h64.677v.206c0,13.67-.073,24.916-.1,32.78v11.363A5.645,5.645,0,0,1,408.457,334.781Z" transform="translate(-260.213 -207.352)" fill="#263238"/>
      <path id="Path_25705" data-name="Path 25705" d="M365.75,318.524a4.072,4.072,0,0,1,.632-.882c.426-.529,1.058-1.308,1.867-2.249,1.6-1.882,3.866-4.41,6.438-7.232s4.939-5.248,6.688-7.012c.867-.867,1.588-1.573,2.087-2.043a4.177,4.177,0,0,1,.823-.706,4.132,4.132,0,0,1-.676.838l-1.984,2.176-6.571,7.1-6.527,7.115-2,2.146a4.488,4.488,0,0,1-.779.75Z" transform="translate(-249.992 -203.104)" fill="#263238"/>
      <path id="Path_25706" data-name="Path 25706" d="M359.571,316.725c-.1-.1,3.484-3.807,8-8.276s8.261-8.011,8.364-7.908-3.484,3.807-8,8.276S359.674,316.828,359.571,316.725Z" transform="translate(-252.897 -202.099)" fill="#263238"/>
      <path id="Path_25707" data-name="Path 25707" d="M358.1,308.7a37.763,37.763,0,0,1,3.851-4.542,35.511,35.511,0,0,1,4.233-4.16,33.9,33.9,0,0,1-3.851,4.542A33.049,33.049,0,0,1,358.1,308.7Z" transform="translate(-253.587 -202.352)" fill="#263238"/>
      <path id="Path_25708" data-name="Path 25708" d="M334.643,291.087c-.147,0,1.338-8.408,3.307-18.712s3.675-18.654,3.822-18.624-1.338,8.393-3.307,18.712S334.776,291.116,334.643,291.087Z" transform="translate(-264.615 -224.087)" fill="#263238"/>
      <path id="Path_25709" data-name="Path 25709" d="M347.263,291.087c-.147,0,1.338-8.408,3.307-18.712s3.675-18.654,3.822-18.624-1.338,8.393-3.307,18.712S347.4,291.116,347.263,291.087Z" transform="translate(-258.685 -224.087)" fill="#263238"/>
      <path id="Path_25710" data-name="Path 25710" d="M359.883,291.087c-.147,0,1.338-8.408,3.307-18.712s3.675-18.654,3.822-18.624-1.352,8.393-3.322,18.712S360.06,291.116,359.883,291.087Z" transform="translate(-252.754 -224.087)" fill="#263238"/>
      <path id="Path_25711" data-name="Path 25711" d="M372.5,290.969c-.147,0,.838-8.305,2.19-18.521S377.267,254,377.414,254s-.853,8.305-2.2,18.521S372.637,290.984,372.5,290.969Z" transform="translate(-246.825 -223.969)" fill="#263238"/>
      <path id="Path_25712" data-name="Path 25712" d="M385.115,290.969c-.132,0,.647-8.305,1.764-18.507S389,254,389.142,254s-.647,8.305-1.749,18.507S385.262,290.984,385.115,290.969Z" transform="translate(-240.899 -223.969)" fill="#263238"/>
      <path id="Path_25713" data-name="Path 25713" d="M397.738,290.969c-.132,0,.294-8.29.956-18.507s1.323-18.477,1.47-18.462-.279,8.29-.955,18.507S397.885,290.984,397.738,290.969Z" transform="translate(-234.971 -223.969)" fill="#263238"/>
      <path id="Path_25714" data-name="Path 25714" d="M411,290.946c-.132,0-.706-8.246-1.249-18.433s-.882-18.448-.735-18.462.706,8.246,1.25,18.433S411.142,290.946,411,290.946Z" transform="translate(-229.678 -223.946)" fill="#263238"/>
      <path id="Path_25715" data-name="Path 25715" d="M425.118,290.946c-.132,0-1.735-8.217-3.557-18.4s-3.2-18.462-3.057-18.492,1.734,8.217,3.557,18.4S425.221,290.916,425.118,290.946Z" transform="translate(-225.206 -223.946)" fill="#263238"/>
      <rect id="Rectangle_19198" data-name="Rectangle 19198" width="94.341" height="29.663" transform="translate(87.121 -0.369)" fill="#455a64"/>
      <path id="Path_25722" data-name="Path 25722" d="M547.841,333.322c0,.206-58.386.382-130.413.382S287,333.528,287,333.322s58.386-.382,130.428-.382S547.841,333.1,547.841,333.322Z" transform="translate(-287 -186.872)" fill="#263238"/>
      <text id="meta-tech" transform="translate(100.121 20.631)" fill="#fff" font-size="16" font-family="Almarai-Regular, Almarai"><tspan x="0" y="0">meta-tech</tspan></text>
    </g>
    <g id="freepik--Device--inject-61" transform="translate(49.334 43.809)">
      <path id="Path_25723" data-name="Path 25723" d="M246.852,528.526l-166.515-.1A36.234,36.234,0,0,1,44,492.248l.088-416.287A36.234,36.234,0,0,1,80.4,39.8l166.53.1a36.219,36.219,0,0,1,36.249,36.175l-.088,416.287a36.234,36.234,0,0,1-36.234,36.161Z" transform="translate(-44 -39.8)" fill="#455a64"/>
      <path id="Path_25724" data-name="Path 25724" d="M244.8,48.554l-32.339-.147a8.041,8.041,0,0,0-7.894,8.188v5.88a8.041,8.041,0,0,1-7.908,8.188l-63.207-.294a8.041,8.041,0,0,1-7.835-8.261v-5.88a8.055,8.055,0,0,0-7.82-8.261H106.391L78.036,47.79A25.489,25.489,0,0,0,52.43,73.176L50.71,482.07a25.474,25.474,0,0,0,25.415,25.592l166.765.779A25.489,25.489,0,0,0,268.5,483.054l1.661-408.894A25.5,25.5,0,0,0,244.8,48.554Z" transform="translate(-40.847 -36.045)" fill="#fff"/>
      <path id="Path_25725" data-name="Path 25725" d="M97.42,95.145V98.3H94.936v-3.19L91.57,89.5H94.2L96.289,93l2.087-3.5h2.411Z" transform="translate(-21.645 -16.444)" fill="#56878b"/>
      <path id="Path_25726" data-name="Path 25726" d="M97.7,94.163a4.91,4.91,0,1,1,4.851,4.586A4.616,4.616,0,0,1,97.7,94.163Zm7.35,0a1.033,1.033,0,1,1-.074,0Z" transform="translate(-18.768 -16.712)" fill="#56878b"/>
      <path id="Path_25727" data-name="Path 25727" d="M105.2,94.38V89.5h2.5v4.807c0,1.47.617,2.117,1.661,2.117s1.661-.617,1.661-2.117V89.5h2.455v4.88a4.145,4.145,0,0,1-8.276,0Z" transform="translate(-15.24 -16.444)" fill="#56878b"/>
      <path id="Path_25728" data-name="Path 25728" d="M115.822,95.972h-1.367V98.31H112V89.49h4.028c2.4,0,3.91,1.249,3.91,3.249a2.94,2.94,0,0,1-1.72,2.793l1.9,2.763h-2.675Zm0-4.513H114.44v2.587h1.382c1.044,0,1.558-.485,1.558-1.294s-.5-1.294-1.543-1.294Z" transform="translate(-12.044 -16.449)" fill="#56878b"/>
      <path id="Path_25729" data-name="Path 25729" d="M120.493,94.163a4.91,4.91,0,1,1,4.895,4.586,4.6,4.6,0,0,1-4.895-4.586Zm7.35,0a1,1,0,1,1-.073,0Z" transform="translate(-8.058 -16.712)" fill="#56878b"/>
      <path id="Path_25730" data-name="Path 25730" d="M131.91,95.972h-1.367V98.31H128V89.49h4.028c2.4,0,3.91,1.249,3.91,3.249a2.94,2.94,0,0,1-1.72,2.793l1.9,2.763h-2.675Zm0-4.513h-1.382v2.587h1.382c1.044,0,1.558-.485,1.558-1.294s-.5-1.294-1.543-1.294Z" transform="translate(-4.525 -16.449)" fill="#56878b"/>
      <path id="Path_25731" data-name="Path 25731" d="M134.37,89.5h4.16c2.94,0,4.924,1.69,4.924,4.41s-2,4.41-4.924,4.41h-4.16Zm4.057,6.821a2.425,2.425,0,1,0,0-4.836h-1.573v4.836Z" transform="translate(-1.531 -16.444)" fill="#56878b"/>
      <path id="Path_25732" data-name="Path 25732" d="M148.51,96.384V98.31h-7.07V89.49h6.909v1.926h-4.41v1.47h3.925v1.852h-3.925v1.617Z" transform="translate(1.791 -16.449)" fill="#56878b"/>
      <path id="Path_25733" data-name="Path 25733" d="M151.041,95.972h-1.367V98.31H147.19V89.49H151.2c2.411,0,3.925,1.249,3.925,3.249a2.94,2.94,0,0,1-1.735,2.793l1.911,2.763h-2.675Zm0-4.513h-1.382v2.587h1.382c1.029,0,1.558-.485,1.558-1.294s-.514-1.294-1.543-1.294Z" transform="translate(4.493 -16.449)" fill="#56878b"/>
      <path id="Path_25734" data-name="Path 25734" d="M89.915,209.634h-2.7V207.65h7.879v1.984H92.4v6.821H89.915Z" transform="translate(-23.694 39.08)" fill="#263238"/>
      <path id="Path_25735" data-name="Path 25735" d="M92.814,212.308a4.91,4.91,0,1,1,4.895,4.571,4.6,4.6,0,0,1-4.895-4.572Zm7.35,0a2.381,2.381,0,1,0-2.381,2.514,2.352,2.352,0,0,0,2.308-2.514Z" transform="translate(-21.066 38.802)" fill="#263238"/>
      <path id="Path_25736" data-name="Path 25736" d="M102.415,209.634h-2.7V207.65h7.879v1.984H104.9v6.821h-2.484Z" transform="translate(-17.82 39.08)" fill="#263238"/>
      <path id="Path_25737" data-name="Path 25737" d="M111.643,214.734h-3.719l-.691,1.705H104.69l3.881-8.82h2.455l3.91,8.82h-2.6Zm-.735-1.837-1.132-2.822-1.132,2.822Z" transform="translate(-15.479 39.066)" fill="#263238"/>
      <path id="Path_25738" data-name="Path 25738" d="M112.13,207.63h2.5v6.835h4.2v1.97h-6.7Z" transform="translate(-11.983 39.07)" fill="#263238"/>
      <path id="Path_25739" data-name="Path 25739" d="M117.15,210.34a1.47,1.47,0,1,1,1.47,1.47A1.47,1.47,0,0,1,117.15,210.34Zm0,4.2a1.47,1.47,0,1,1,1.47,1.47A1.47,1.47,0,0,1,117.15,214.544Z" transform="translate(-9.624 39.653)" fill="#263238"/>
      <path id="Path_25740" data-name="Path 25740" d="M171.4,221.523v2.411h-2.646v-2.323a11.511,11.511,0,0,1-5.483-1.646l1.47-3.16a9.467,9.467,0,0,0,5,1.47c1.779,0,2.47-.5,2.47-1.235,0-2.4-8.614-.647-8.614-6.277,0-2.381,1.705-4.41,5.218-4.821V203.56H171.4V205.9a10.45,10.45,0,0,1,4.41,1.279l-1.323,3.175a8.893,8.893,0,0,0-4.189-1.176c-1.793,0-2.455.617-2.455,1.367,0,2.323,8.6.588,8.6,6.174C176.426,219.038,174.78,221.023,171.4,221.523Z" transform="translate(12.05 37.158)" fill="#263238"/>
      <path id="Path_25741" data-name="Path 25741" d="M180.91,221.523v2.411h-2.587v-2.323a11.511,11.511,0,0,1-5.483-1.646l1.47-3.16a9.466,9.466,0,0,0,5,1.47c1.779,0,2.47-.5,2.47-1.235,0-2.4-8.614-.647-8.614-6.277,0-2.381,1.705-4.41,5.218-4.821V203.56h2.587V205.9a10.451,10.451,0,0,1,4.41,1.279l-1.323,3.175a8.893,8.893,0,0,0-4.189-1.176c-1.793,0-2.455.617-2.455,1.367,0,2.323,8.6.588,8.6,6.174C185.937,219.038,184.291,221.023,180.91,221.523Z" transform="translate(16.547 37.158)" fill="#263238"/>
      <circle id="Ellipse_1629" data-name="Ellipse 1629" cx="16.757" cy="16.757" r="16.757" transform="translate(25.401 59.93)" fill="#56878b"/>
      <circle id="Ellipse_1630" data-name="Ellipse 1630" cx="16.757" cy="16.757" r="16.757" transform="translate(25.401 186.462)" fill="#56878b"/>
      <path id="Path_25742" data-name="Path 25742" d="M100.278,177.583c0,2-1.47,3.249-3.91,3.249H94.78v2.308H92.34v-8.82h4.028C98.764,174.32,100.278,175.569,100.278,177.583Zm-2.514,0c0-.808-.514-1.294-1.47-1.294H94.78v2.572h1.47c1,0,1.47-.47,1.47-1.279Z" transform="translate(-21.283 23.417)" fill="#56878b"/>
      <path id="Path_25743" data-name="Path 25743" d="M104.508,181.42h-3.734l-.691,1.72H97.54l3.9-8.82h2.455l3.9,8.82H105.2Zm-.735-1.837-1.147-2.793-1.132,2.808Z" transform="translate(-18.839 23.417)" fill="#56878b"/>
      <path id="Path_25744" data-name="Path 25744" d="M109.69,179.979v3.16h-2.484v-3.2l-3.366-5.615h2.631l2.087,3.5,2.087-3.5h2.411Z" transform="translate(-15.879 23.417)" fill="#56878b"/>
      <rect id="Rectangle_19199" data-name="Rectangle 19199" width="76.922" height="59.974" transform="translate(60.018 375.849)" fill="#ebebeb"/>
      <path id="Path_25745" data-name="Path 25745" d="M161.79,355.581V295.622l.118.118H84.868l.147-.132v59.959l-.132-.118H84.75V295.21h77.187v59A6.954,6.954,0,0,1,161.79,355.581Z" transform="translate(-24.85 80.228)" fill="#263238"/>
      <path id="Path_25746" data-name="Path 25746" d="M85.9,293.09,79.64,313.434h90.034l-5.086-20.344Z" transform="translate(-27.251 79.232)" fill="#56878b"/>
      <path id="Path_25747" data-name="Path 25747" d="M79.64,306.93a4.939,4.939,0,0,0,9.878,0Z" transform="translate(-27.251 85.736)" fill="#56878b"/>
      <path id="Path_25748" data-name="Path 25748" d="M86.46,306.93a4.939,4.939,0,0,0,9.863,0Z" transform="translate(-24.046 85.736)" fill="#56878b"/>
      <path id="Path_25749" data-name="Path 25749" d="M93.27,306.93a4.939,4.939,0,0,0,9.878,0Z" transform="translate(-20.846 85.736)" fill="#56878b"/>
      <path id="Path_25750" data-name="Path 25750" d="M100.09,306.93a4.939,4.939,0,0,0,9.878,0Z" transform="translate(-17.641 85.736)" fill="#56878b"/>
      <path id="Path_25751" data-name="Path 25751" d="M106.91,306.93a4.939,4.939,0,0,0,9.863,0Z" transform="translate(-14.436 85.736)" fill="#56878b"/>
      <path id="Path_25752" data-name="Path 25752" d="M113.72,306.93a4.939,4.939,0,0,0,9.878,0Z" transform="translate(-11.236 85.736)" fill="#56878b"/>
      <path id="Path_25753" data-name="Path 25753" d="M120.54,306.93a4.939,4.939,0,0,0,9.863,0Z" transform="translate(-8.031 85.736)" fill="#56878b"/>
      <path id="Path_25754" data-name="Path 25754" d="M127.35,306.93a4.939,4.939,0,0,0,9.878,0Z" transform="translate(-4.83 85.736)" fill="#56878b"/>
      <path id="Path_25755" data-name="Path 25755" d="M134.17,306.93a4.939,4.939,0,0,0,9.878,0Z" transform="translate(-1.625 85.736)" fill="#56878b"/>
      <path id="Path_25756" data-name="Path 25756" d="M169.6,307.042c0,.073-20.123.147-44.951.147s-44.951-.147-44.951-.147,20.123-.132,44.951-.132S169.6,306.91,169.6,307.042Z" transform="translate(-27.223 85.726)" fill="#263238"/>
      <rect id="Rectangle_19200" data-name="Rectangle 19200" width="16.228" height="34.705" transform="translate(112.039 401.103)" fill="#fff"/>
      <path id="Path_25757" data-name="Path 25757" d="M136.5,312.736a.738.738,0,0,1,0,.162V347.6H120.267l-.147-.147h0V312.633h.147l.1-.1v34.676h0l-.132-.132h16.169l-.132.132V312.677Z" transform="translate(-8.228 88.367)" fill="#263238"/>
      <rect id="Rectangle_19201" data-name="Rectangle 19201" width="2.161" height="7.012" transform="translate(113.656 414.95)" fill="#e0e0e0"/>
      <path id="Path_25758" data-name="Path 25758" d="M123.86,332.172s1.352-2.073,3.146-4.542,3.322-4.41,3.381-4.41a47.4,47.4,0,0,1-3.146,4.557C125.433,330.246,123.919,332.216,123.86,332.172Z" transform="translate(-6.47 93.391)" fill="#263238"/>
      <path id="Path_25759" data-name="Path 25759" d="M125.93,330.681s1.058-1.294,2.308-2.94a30.438,30.438,0,0,1,2.234-2.94,4.411,4.411,0,0,1-.5.985,23.846,23.846,0,0,1-1.47,2.19c-.632.823-1.264,1.47-1.735,2.029A3.748,3.748,0,0,1,125.93,330.681Z" transform="translate(-5.498 94.132)" fill="#263238"/>
      <rect id="Rectangle_19202" data-name="Rectangle 19202" width="7.482" height="2.91" transform="translate(62.414 404.381)" fill="#f5f5f5"/>
      <rect id="Rectangle_19203" data-name="Rectangle 19203" width="6.13" height="2.91" transform="translate(60.15 407.277)" fill="#e0e0e0"/>
      <rect id="Rectangle_19204" data-name="Rectangle 19204" width="7.482" height="2.91" transform="translate(80.685 425.592)" fill="#f5f5f5"/>
      <rect id="Rectangle_19205" data-name="Rectangle 19205" width="3.572" height="2.91" transform="translate(104.88 418.198)" fill="#e0e0e0"/>
      <rect id="Rectangle_19206" data-name="Rectangle 19206" width="6.997" height="2.91" transform="translate(128.399 415.391)" fill="#e0e0e0"/>
      <rect id="Rectangle_19207" data-name="Rectangle 19207" width="7.159" height="2.91" transform="translate(98.574 429.782)" fill="#e0e0e0"/>
      <rect id="Rectangle_19208" data-name="Rectangle 19208" width="7.159" height="2.91" transform="translate(61.546 427.047)" fill="#f5f5f5"/>
      <rect id="Rectangle_19209" data-name="Rectangle 19209" width="3.91" height="2.91" transform="translate(107.938 402.617)" fill="#f5f5f5"/>
      <rect id="Rectangle_19210" data-name="Rectangle 19210" width="7.379" height="2.91" transform="translate(76.76 428.503)" fill="#e0e0e0"/>
      <rect id="Rectangle_19211" data-name="Rectangle 19211" width="34.999" height="24.475" transform="translate(69.881 401.103)" fill="#fff"/>
      <path id="Path_25760" data-name="Path 25760" d="M126.549,337.272V312.783l.118.118H91.682l.147-.147v24.489l-.132-.132h25.239l-25.3.073H91.52V312.43h35.249V336.6A1.615,1.615,0,0,1,126.549,337.272Z" transform="translate(-21.668 88.32)" fill="#263238"/>
      <path id="Path_25761" data-name="Path 25761" d="M103.31,328.386a2.161,2.161,0,0,1,.338-.47c.235-.309.588-.72,1.029-1.235.867-1.029,2.1-2.425,3.5-3.939s2.69-2.94,3.645-3.822l1.147-1.117a2.456,2.456,0,0,1,.441-.382,2.218,2.218,0,0,1-.367.456l-1.073,1.191c-.97,1.029-2.2,2.381-3.587,3.866l-3.557,3.881-1.088,1.161a2.367,2.367,0,0,1-.426.412Z" transform="translate(-16.128 90.665)" fill="#263238"/>
      <path id="Path_25762" data-name="Path 25762" d="M99.94,327.411s1.9-2.073,4.41-4.513,4.5-4.41,4.542-4.307a56.37,56.37,0,0,1-4.41,4.513C101.969,325.544,100.028,327.455,99.94,327.411Z" transform="translate(-17.711 91.214)" fill="#263238"/>
      <path id="Path_25763" data-name="Path 25763" d="M99.14,323.043a19.108,19.108,0,0,1,2.1-2.469,19.4,19.4,0,0,1,2.308-2.293A36.29,36.29,0,0,1,99.14,323.043Z" transform="translate(-18.087 91.069)" fill="#263238"/>
      <path id="Path_25764" data-name="Path 25764" d="M86.36,313.434s.735-4.572,1.808-10.2,2-10.157,2.073-10.143-.735,4.586-1.808,10.2S86.434,313.449,86.36,313.434Z" transform="translate(-24.093 79.232)" fill="#263238"/>
      <path id="Path_25765" data-name="Path 25765" d="M93.23,313.434s.735-4.572,1.808-10.2,2-10.157,2.087-10.143-.735,4.586-1.808,10.2S93.318,313.449,93.23,313.434Z" transform="translate(-20.865 79.232)" fill="#263238"/>
      <path id="Path_25766" data-name="Path 25766" d="M100.11,313.434s.735-4.572,1.808-10.2,2-10.157,2.073-10.143-.735,4.586-1.808,10.2S100.184,313.449,100.11,313.434Z" transform="translate(-17.632 79.232)" fill="#263238"/>
      <path id="Path_25767" data-name="Path 25767" d="M107,313.368c-.088,0,.456-4.527,1.191-10.084s1.47-10.069,1.47-10.054-.456,4.527-1.191,10.084S107,313.383,107,313.368Z" transform="translate(-14.397 79.297)" fill="#263238"/>
      <path id="Path_25768" data-name="Path 25768" d="M113.86,313.368s.353-4.527.955-10.084,1.161-10.069,1.235-10.054-.353,4.527-.955,10.084S113.933,313.383,113.86,313.368Z" transform="translate(-11.17 79.297)" fill="#263238"/>
      <path id="Path_25769" data-name="Path 25769" d="M120.746,313.368c-.088,0,.147-4.513.514-10.084s.72-10.069.794-10.054-.147,4.513-.514,10.084S120.819,313.383,120.746,313.368Z" transform="translate(-7.943 79.297)" fill="#263238"/>
      <path id="Path_25770" data-name="Path 25770" d="M127.963,313.354s-.382-4.483-.676-10.04-.485-10.054-.412-10.054.382,4.483.691,10.04S128.036,313.354,127.963,313.354Z" transform="translate(-5.061 79.311)" fill="#263238"/>
      <path id="Path_25771" data-name="Path 25771" d="M135.648,313.354c-.074,0-.955-4.41-1.94-10.025s-1.749-10.054-1.676-10.069.955,4.41,1.94,10.025S135.721,313.339,135.648,313.354Z" transform="translate(-2.633 79.311)" fill="#263238"/>
      <rect id="Rectangle_19212" data-name="Rectangle 19212" width="51.404" height="16.155" transform="translate(71.513 356.167)" fill="#455a64"/>
      <path id="Path_25772" data-name="Path 25772" d="M96.9,289.436a4.175,4.175,0,0,1,4.41-4.2,4.292,4.292,0,0,1,3.484,1.47l-1.47,1.323a2.381,2.381,0,0,0-1.911-.941,2.308,2.308,0,1,0,0,4.616,2.4,2.4,0,0,0,1.911-.955l1.47,1.323a4.263,4.263,0,0,1-3.484,1.47,4.175,4.175,0,0,1-4.41-4.1Z" transform="translate(-19.14 75.536)" fill="#fff"/>
      <path id="Path_25773" data-name="Path 25773" d="M102.514,289.927a3.543,3.543,0,1,1,3.543,3.249,3.263,3.263,0,0,1-3.543-3.249Zm4.851,0a1.323,1.323,0,1,0-.614,1.261,1.323,1.323,0,0,0,.614-1.261Z" transform="translate(-16.508 75.942)" fill="#fff"/>
      <path id="Path_25774" data-name="Path 25774" d="M110.636,287.591h1.47v1.632h-1.47v4.41h-2.2v-4.41h-.911v-1.632h.911v-.162a2.352,2.352,0,0,1,2.616-2.484,2.939,2.939,0,0,1,1.47.323l-.544,1.47a1.471,1.471,0,0,0-.661-.191c-.456,0-.72.265-.72.823Z" transform="translate(-14.149 75.397)" fill="#fff"/>
      <path id="Path_25775" data-name="Path 25775" d="M113.826,287.591h1.47v1.632h-1.47v4.41h-2.19v-4.41h-.926v-1.632h.926v-.162a2.337,2.337,0,0,1,2.6-2.484,2.94,2.94,0,0,1,1.47.323l-.544,1.47a1.471,1.471,0,0,0-.661-.191c-.456,0-.72.265-.72.823Z" transform="translate(-12.65 75.396)" fill="#fff"/>
      <path id="Path_25776" data-name="Path 25776" d="M120.856,290.3H116.3a1.47,1.47,0,0,0,1.47,1,2.028,2.028,0,0,0,1.47-.544l1.147,1.205a3.4,3.4,0,0,1-2.661,1.014,3.322,3.322,0,0,1-3.675-3.249,3.234,3.234,0,0,1,3.44-3.219,3.131,3.131,0,0,1,3.351,3.249A2.283,2.283,0,0,1,120.856,290.3Zm-4.586-1.161h2.558a1.294,1.294,0,0,0-2.558,0Z" transform="translate(-11.081 76.137)" fill="#fff"/>
      <path id="Path_25777" data-name="Path 25777" d="M125.891,290.3h-4.542a1.47,1.47,0,0,0,1.47,1,2,2,0,0,0,1.47-.544l1.161,1.205a3.44,3.44,0,0,1-2.675,1.014,3.322,3.322,0,0,1-3.675-3.249,3.234,3.234,0,0,1,3.454-3.219,3.146,3.146,0,0,1,3.351,3.249A2.2,2.2,0,0,1,125.891,290.3Zm-4.586-1.161h2.572a1.308,1.308,0,0,0-2.572,0Z" transform="translate(-8.707 76.137)" fill="#fff"/>
      <path id="Path_25778" data-name="Path 25778" d="M94.688,265.443c0,2-1.47,3.249-3.91,3.249h-1.47V271H86.75v-8.82h4.028C93.174,262.18,94.688,263.385,94.688,265.443Zm-2.514,0c0-.823-.514-1.294-1.47-1.294h-1.47v2.572H90.7C91.66,266.722,92.174,266.325,92.174,265.443Z" transform="translate(-23.91 64.706)" fill="#e0e0e0"/>
      <path id="Path_25779" data-name="Path 25779" d="M93,262.18h2.484V271H93Z" transform="translate(-20.973 64.706)" fill="#e0e0e0"/>
      <path id="Path_25780" data-name="Path 25780" d="M95.56,266.649a4.572,4.572,0,0,1,4.851-4.586,4.674,4.674,0,0,1,3.778,1.661l-1.573,1.47a2.631,2.631,0,0,0-2.087-1.029,2.514,2.514,0,0,0,0,5.027,2.631,2.631,0,0,0,2.087-1.029l1.573,1.47a4.674,4.674,0,0,1-3.778,1.661,4.571,4.571,0,0,1-4.851-4.645Z" transform="translate(-19.77 64.646)" fill="#e0e0e0"/>
      <path id="Path_25781" data-name="Path 25781" d="M105.59,267.8l-.941,1V271H102.18v-8.82h2.469v3.66l3.41-3.66h2.749l-3.6,3.91L111,271h-2.94Z" transform="translate(-16.659 64.706)" fill="#e0e0e0"/>
      <path id="Path_25782" data-name="Path 25782" d="M111.06,267.06v-4.88h2.484v4.807c0,1.47.632,2.117,1.676,2.117s1.661-.6,1.661-2.117V262.18h2.455v4.88a4.145,4.145,0,0,1-8.276,0Z" transform="translate(-12.486 64.706)" fill="#e0e0e0"/>
      <path id="Path_25783" data-name="Path 25783" d="M125.764,265.443c0,2-1.47,3.249-3.925,3.249h-1.47V271h-2.5v-8.82H121.9C124.25,262.18,125.764,263.385,125.764,265.443Zm-2.528,0c0-.823-.514-1.294-1.47-1.294h-1.382v2.572h1.382C122.721,266.722,123.235,266.325,123.235,265.443Z" transform="translate(-9.285 64.706)" fill="#e0e0e0"/>
      <path id="Path_25784" data-name="Path 25784" d="M126.63,262.18h2.484V271H126.63Z" transform="translate(-5.169 64.706)" fill="#e0e0e0"/>
      <path id="Path_25785" data-name="Path 25785" d="M137.909,262.18V271h-2.043l-3.9-4.7V271h-2.44v-8.82h2.058l3.881,4.7v-4.7Z" transform="translate(-3.806 64.706)" fill="#e0e0e0"/>
      <path id="Path_25786" data-name="Path 25786" d="M136.061,264.89a1.47,1.47,0,1,1,1.47,1.47,1.382,1.382,0,0,1-1.47-1.47Zm0,4.2a1.47,1.47,0,1,1,1.433,1.143A1.47,1.47,0,0,1,136.061,269.094Z" transform="translate(-0.738 65.288)" fill="#e0e0e0"/>
      <path id="Path_25787" data-name="Path 25787" d="M194.989,301.682c0,.206-10.848.382-24.239.382s-24.239-.176-24.239-.382,10.848-.382,24.239-.382S194.989,301.462,194.989,301.682Z" transform="translate(4.174 83.09)" fill="#263238"/>
      <path id="Path_25788" data-name="Path 25788" d="M194.989,309.172c0,.206-10.848.382-24.239.382s-24.239-.176-24.239-.382,10.848-.382,24.239-.382S194.989,308.952,194.989,309.172Z" transform="translate(4.174 86.61)" fill="#263238"/>
      <path id="Path_25789" data-name="Path 25789" d="M175.042,316.678a134.937,134.937,0,0,1-14.258.382,135.331,135.331,0,0,1-14.273-.382,130.838,130.838,0,0,1,14.273-.382A130.339,130.339,0,0,1,175.042,316.678Z" transform="translate(4.174 90.113)" fill="#263238"/>
      <path id="Path_25790" data-name="Path 25790" d="M166.087,116.782c0,.206-8.82.382-19.638.382s-19.638-.176-19.638-.382,8.82-.382,19.638-.382S166.087,116.562,166.087,116.782Z" transform="translate(-5.084 -3.802)" fill="#263238"/>
      <path id="Path_25791" data-name="Path 25791" d="M157.811,124.018c0,.206-6.938.382-15.493.382s-15.508-.176-15.508-.382a154.144,154.144,0,0,1,15.508-.382A153.941,153.941,0,0,1,157.811,124.018Z" transform="translate(-5.084 -0.426)" fill="#263238"/>
      <path id="Path_25792" data-name="Path 25792" d="M171.4,132.573v2.411h-2.646v-2.323a11.569,11.569,0,0,1-5.483-1.646l1.47-3.16a9.466,9.466,0,0,0,5,1.47c1.779,0,2.469-.5,2.469-1.235,0-2.4-8.614-.647-8.614-6.277,0-2.381,1.705-4.41,5.218-4.821V114.61H171.4v2.337a10.451,10.451,0,0,1,4.41,1.279l-1.323,3.175a8.893,8.893,0,0,0-4.189-1.176c-1.793,0-2.455.617-2.455,1.367,0,2.323,8.6.588,8.6,6.174C176.426,130.088,174.78,132.073,171.4,132.573Z" transform="translate(12.05 -4.644)" fill="#263238"/>
      <path id="Path_25793" data-name="Path 25793" d="M180.91,132.573v2.411h-2.587v-2.323a11.568,11.568,0,0,1-5.483-1.646l1.47-3.16a9.466,9.466,0,0,0,5,1.47c1.779,0,2.47-.5,2.47-1.235,0-2.4-8.614-.647-8.614-6.277,0-2.381,1.705-4.41,5.218-4.821V114.61h2.587v2.337a10.451,10.451,0,0,1,4.41,1.279l-1.323,3.175a8.893,8.893,0,0,0-4.189-1.176c-1.793,0-2.455.617-2.455,1.367,0,2.323,8.6.588,8.6,6.174C185.937,130.088,184.291,132.073,180.91,132.573Z" transform="translate(16.547 -4.644)" fill="#263238"/>
      <rect id="Rectangle_19213" data-name="Rectangle 19213" width="38.851" height="38.851" rx="4.64" transform="translate(72.395 103.337)" fill="#56878b"/>
      <path id="Path_25794" data-name="Path 25794" d="M113.374,135.151h-8.908a.75.75,0,0,1-.735-.6l-2.558-13.641a.735.735,0,0,1,.72-.867h14.038a.735.735,0,0,1,.72.867l-2.5,13.641A.75.75,0,0,1,113.374,135.151Zm-8.305-1.47h7.688l2.293-12.171H102.791Z" transform="translate(-17.137 -2.092)" fill="#fff"/>
      <path id="Path_25795" data-name="Path 25795" d="M118.857,121.24H100.115a.75.75,0,0,1-.735-.735.735.735,0,0,1,.735-.735h18.742a.735.735,0,1,1,0,1.47Z" transform="translate(-17.975 -2.219)" fill="#fff"/>
      <path id="Path_25796" data-name="Path 25796" d="M101.477,122.84a.574.574,0,0,1-.265,0,.72.72,0,0,1-.426-.941l1.926-5.057a.75.75,0,0,1,.808-.47l11.172,1.705a.764.764,0,0,1,.573.441l1.279,2.94a.737.737,0,1,1-1.352.588l-1.117-2.587-10.2-1.558-1.705,4.513a.764.764,0,0,1-.691.426Z" transform="translate(-17.337 -3.819)" fill="#fff"/>
      <path id="Path_25797" data-name="Path 25797" d="M108.994,124.3a1.205,1.205,0,0,0-1.47-.544,3.572,3.572,0,0,0-1.367.867,2.146,2.146,0,0,0-.676,1.47,1.382,1.382,0,0,0,.75,1.323,1.911,1.911,0,0,0,1.926-.47,2.69,2.69,0,0,0,.9-1.176A1.47,1.47,0,0,0,108.994,124.3Z" transform="translate(-15.109 -0.382)" fill="#fff"/>
      <path id="Path_25798" data-name="Path 25798" d="M105.719,127.024a.176.176,0,0,1-.132,0,.191.191,0,0,1,0-.265,26.912,26.912,0,0,1,2.308-2.175.183.183,0,0,1,.235.279c-.794.676-1.558,1.47-2.278,2.146a.176.176,0,0,1-.132.015Z" transform="translate(-15.083 0.023)" fill="#56878b"/>
      <rect id="Rectangle_19214" data-name="Rectangle 19214" width="2.94" height="218.58" transform="translate(40.188 76.687)" fill="#56878b"/>
      <path id="Path_25799" data-name="Path 25799" d="M74,99.96l-6.865-5.747a.22.22,0,0,1,0-.323l1.808-2.161a.22.22,0,0,1,.323,0l4.41,3.748a.235.235,0,0,0,.323,0l7.085-7.555a.25.25,0,0,1,.338,0l2.043,1.926a.22.22,0,0,1,0,.323l-9.143,9.76A.235.235,0,0,1,74,99.96Z" transform="translate(-33.162 -17.217)" fill="#fff"/>
      <path id="Path_25800" data-name="Path 25800" d="M74,186.016l-6.865-5.733a.22.22,0,0,1,0-.323l1.808-2.161a.22.22,0,0,1,.323,0l4.41,3.748a.235.235,0,0,0,.323,0l7.129-7.526a.25.25,0,0,1,.338,0l2.043,1.926a.22.22,0,0,1,0,.323L74.321,186a.206.206,0,0,1-.323.015Z" transform="translate(-33.162 23.245)" fill="#fff"/>
      <rect id="Rectangle_19215" data-name="Rectangle 19215" width="2.94" height="44.936" transform="translate(40.188 288.388)" fill="#e0e0e0"/>
      <path id="Path_25801" data-name="Path 25801" d="M84,266.87a8.82,8.82,0,1,1-8.82-8.82A8.82,8.82,0,0,1,84,266.87Z" transform="translate(-33.492 62.765)" fill="#e0e0e0"/>
      <rect id="Rectangle_19216" data-name="Rectangle 19216" width="50.743" height="15.955" transform="translate(72.056 356.167)" fill="#455a64"/>
      <text id="meta-tech-2" data-name="meta-tech" transform="translate(79.048 366.932)" fill="#fff" font-size="8" font-family="Almarai-Regular, Almarai"><tspan x="0" y="0">meta-tech</tspan></text>
    </g>
    <g id="freepik--speech-bubble--inject-61" transform="translate(492.988 170.225)">
      <path id="Path_25802" data-name="Path 25802" d="M366.611,136.927a52.918,52.918,0,0,0,26.459,94.561l9.349,15.023,9.025-16.169a52.918,52.918,0,1,0-44.833-93.415Z" transform="translate(-345.764 -125.683)" fill="#fff"/>
      <path id="Path_25803" data-name="Path 25803" d="M366.665,137.044l.72-.544,2.22-1.588,1.6-1.117,2.073-1.161,2.4-1.352,2.94-1.264a58.715,58.715,0,0,1,6.982-2.469l4.131-.9a15.519,15.519,0,0,1,2.22-.338l2.322-.265a52.918,52.918,0,0,1,51.7,27.576,26.866,26.866,0,0,1,1.69,3.381c.485,1.161,1,2.337,1.47,3.513a59.8,59.8,0,0,1,2.1,7.526,53.712,53.712,0,0,1-3.307,32.412,54.27,54.27,0,0,1-23.813,25.592,53.285,53.285,0,0,1-12.524,4.748l.25-.176L402.8,246.79l-.309.559-.338-.544c-3.19-5.159-6.321-10.187-9.349-15.067l.279.176a52.756,52.756,0,0,1-33.809-17.492,39.3,39.3,0,0,1-3.675-4.689l-1.676-2.411c-.529-.808-.941-1.676-1.47-2.514a52.74,52.74,0,0,1-6.365-20.315,54.224,54.224,0,0,1,1.294-18.3c.382-1.352.75-2.661,1.117-3.939l1.4-3.616a29.744,29.744,0,0,1,1.47-3.307,30.348,30.348,0,0,1,1.6-2.94,54.391,54.391,0,0,1,6.659-8.967l2.822-2.94,2.264-1.9,1.382-1.147.485-.367-.441.426-1.352,1.191-2.2,1.926-2.778,2.94a54.686,54.686,0,0,0-6.365,9c-.588.911-1.014,1.97-1.558,2.94a26.983,26.983,0,0,0-1.47,3.293l-1.367,3.587c-.353,1.264-.706,2.572-1.073,3.91a53.872,53.872,0,0,0-1.205,18.154,52.167,52.167,0,0,0,6.409,20.124,25.385,25.385,0,0,0,1.47,2.469l1.646,2.367a41.823,41.823,0,0,0,3.646,4.645,53.933,53.933,0,0,0,9.143,8.1,52.918,52.918,0,0,0,24.048,9.1h.176l.1.162,9.364,15.052h-.647l9.011-16.169.088-.147h.162a52.506,52.506,0,0,0,39.071-61.929,58.809,58.809,0,0,0-2.058-7.423l-1.47-3.469a22.752,22.752,0,0,0-1.661-3.337,52.433,52.433,0,0,0-30.09-25.121,54.034,54.034,0,0,0-21.02-2.352l-2.293.25a13.508,13.508,0,0,0-2.2.323l-4.116.853a58.794,58.794,0,0,0-6.953,2.381l-2.94,1.235-2.411,1.308-2.073,1.132-1.617,1.088-2.2,1.47Z" transform="translate(-345.818 -125.801)" fill="#263238"/>
      <path id="Path_25804" data-name="Path 25804" d="M392.058,203.811a30.869,30.869,0,0,1,0-61.591,30.442,30.442,0,0,1,22.24,9.555,1.471,1.471,0,0,1-2.131,2.029,27.488,27.488,0,0,0-20.109-8.643,27.811,27.811,0,1,0,26.312,18.933,1.474,1.474,0,0,1,2.793-.941,30.869,30.869,0,0,1-29.1,40.659Z" transform="translate(-337.594 -118.085)" fill="#455a64"/>
      <path id="Path_25805" data-name="Path 25805" d="M407.33,158.27a4.41,4.41,0,1,1-4.336-4.41A4.41,4.41,0,0,1,407.33,158.27Z" transform="translate(-321.056 -112.615)" fill="#455a64"/>
      <path id="Path_25806" data-name="Path 25806" d="M385.976,177.523l-12.318-10.29a.426.426,0,0,1,0-.588l3.249-3.881a.426.426,0,0,1,.588,0l8.055,6.762a.412.412,0,0,0,.573,0l12.73-13.6a.412.412,0,0,1,.588,0l3.69,3.469a.441.441,0,0,1,0,.6l-16.537,17.639a.426.426,0,0,1-.617-.118Z" transform="translate(-332.79 -111.701)" fill="#455a64"/>
    </g>
    <g id="freepik--Character--inject-61" transform="translate(238.027 97.193)">
      <path id="Path_25807" data-name="Path 25807" d="M195.186,399.33c-.764,2.278,21.785,93.591,21.785,93.591h54.858l2.161-86.727Z" transform="translate(-161.654 75.773)" fill="#ae7461"/>
      <path id="Path_25808" data-name="Path 25808" d="M263,406.181c.764,4.557,29.781,86.727,29.781,86.727l61.311-.088L336.7,399.36Z" transform="translate(-129.776 75.787)" fill="#ae7461"/>
      <path id="Path_25809" data-name="Path 25809" d="M211.956,277.228a77.466,77.466,0,0,0-19.433,38.865c-1.47,7.776-6.879,24.181-6.5,53.932.617,48.317,2.675,117.816,2.675,117.816a1748,1748,0,0,0,196.972,0s-35.969-175.5-50.639-197.766L328.743,274.7Z" transform="translate(-165.959 17.204)" fill="#263238"/>
      <path id="Path_25810" data-name="Path 25810" d="M212.025,277.318l2.029-.073,6.012-.176,23.166-.573,85.639-1.984h.191l.073.176,6.291,15.361h0a60.266,60.266,0,0,1,4.5,9.657l1.867,5.115c.573,1.734,1.161,3.484,1.749,5.233,2.278,7.07,4.41,14.42,6.5,21.976,4.175,15.126,8.173,31.148,12.2,47.876,8,33.485,16.022,69.822,23.96,107.982l.088.441h-.441c-12.024.676-24.8,1.279-37.719,1.735-57.21,2-111.5.97-159.371-1.764h-.309v-.323c-.706-32.015-1.352-61.546-1.926-87.829q-.22-9.849-.426-19.109c-.118-6.144-.323-12.083-.191-17.816a186.436,186.436,0,0,1,3.1-31.31c.882-4.674,1.94-9.069,2.94-13.229l1.323-6.027c.426-1.955,1.014-3.792,1.47-5.586a84.023,84.023,0,0,1,7.717-17.14,77.22,77.22,0,0,1,6.806-9.569,33.9,33.9,0,0,1,2.763-2.94l-.706.764c-.441.5-1.117,1.249-1.97,2.278a79.611,79.611,0,0,0-6.7,9.613,83.788,83.788,0,0,0-7.629,17.2c-.5,1.779-1.073,3.616-1.47,5.556s-.853,3.954-1.294,6.027c-.941,4.145-2,8.526-2.852,13.229a185.973,185.973,0,0,0-2.94,31.236c-.118,5.7.1,11.642.235,17.8s.294,12.509.456,19.109c.617,26.283,1.294,55.858,2.043,87.829l-.323-.338c47.861,2.675,102.117,3.69,159.3,1.69,12.921-.456,25.68-1.058,37.7-1.72l-.353.456c-7.923-38.218-15.934-74.5-23.9-107.967-4-16.743-8-32.765-12.142-47.876-2.087-7.57-4.189-14.905-6.453-21.961-.588-1.749-1.161-3.5-1.735-5.233s-1.235-3.41-1.852-5.1a59.737,59.737,0,0,0-4.41-9.555h0c-2.2-5.38-4.336-10.628-6.277-15.376l.265.176-85.624,1.529-23.2.441-6.041.088Z" transform="translate(-166.027 17.115)" fill="#455a64"/>
      <path id="Path_25811" data-name="Path 25811" d="M273,443.4a7.946,7.946,0,0,1-.426-1.088l-1.058-3.16c-.911-2.764-2.249-6.732-3.954-11.627-3.41-9.79-8.452-23.2-14.773-37.689s-12.759-27.3-17.639-36.455c-2.425-4.572-4.41-8.261-5.88-10.789l-1.6-2.94a5.734,5.734,0,0,1-.5-1.044,8.273,8.273,0,0,1,.632.97c.441.72,1.014,1.661,1.72,2.94,1.47,2.484,3.572,6.13,6.056,10.686,5,9.1,11.495,21.887,17.83,36.41s11.3,27.929,14.6,37.807c1.646,4.924,2.94,8.923,3.719,11.76.382,1.338.706,2.4.926,3.2A6.221,6.221,0,0,1,273,443.4Z" transform="translate(-146.614 47.238)" fill="#455a64"/>
      <path id="Path_25812" data-name="Path 25812" d="M265.509,332.08c.191.088-2.94,7.35-6.982,16.3s-7.453,16.066-7.673,15.919,2.94-7.35,6.982-16.287S265.318,331.963,265.509,332.08Z" transform="translate(-135.49 44.169)" fill="#455a64"/>
      <path id="Path_25813" data-name="Path 25813" d="M218.634,98.06a33.809,33.809,0,0,0-9.555,29.825c.941,5.2,3.013,11.025,0,15.376s-9.6,4.88-12.406,9.29c-3.307,5.189.617,11.995-.132,18.11a12.171,12.171,0,0,1-11.951,10.29,47.538,47.538,0,0,0,24.5,7.747l5.689-9.1c-2.19,3.2-1.044,7.835,1.69,10.6s6.6,4.013,10.392,4.807a60.4,60.4,0,0,0,51.713-13.994" transform="translate(-166.624 -65.806)" fill="#263238"/>
      <path id="Path_25814" data-name="Path 25814" d="M313.568,144.444c-1.72-3.881-4.307-7.35-5.63-11.407-2.808-8.687.485-19.109-4.66-26.665-3.645-5.38-10.466-7.482-16.846-8.82s-13.229-2.19-18.242-6.247c-3.719-2.94-6.115-7.35-9.834-10.29-5.277-4.263-12.539-5.13-19.315-4.851s-14.053,1.69-19.962,5.395S208.6,91.526,208.188,98.494c-.191,3.4.588,6.85-.132,10.172-.794,3.66-3.293,6.688-4.66,10.172a17.889,17.889,0,0,0,6.659,20.858l53.873,56.46c10.378,2.734,34.1-4.322,41.055-12.495S317.978,154.249,313.568,144.444Z" transform="translate(-158.296 -76.118)" fill="#263238"/>
      <path id="Path_25815" data-name="Path 25815" d="M207.979,123.8c.514-14.126,9.408-31.707,23.519-30.589l44.289,9.922a8.29,8.29,0,0,1,7.629,8.2l3.249,103.454h0a.573.573,0,0,1,.779.794c-4.41,7.982-25.209,43.055-51.2,35.7-5.88-1.646-1.47-19.859-2.793-26.3l-.985-16.713c-.323-8.54-.412-12.054-.426-11.98s-18.11-2.514-22.461-25.944C207.332,158.692,207.405,139.495,207.979,123.8Z" transform="translate(-155.793 -68.111)" fill="#ae7461"/>
      <path id="Path_25816" data-name="Path 25816" d="M213.49,128.5a2.995,2.995,0,0,0,5.983.147,3.028,3.028,0,0,0-2.94-2.94A2.94,2.94,0,0,0,213.49,128.5Z" transform="translate(-153.043 -52.813)" fill="#263238"/>
      <path id="Path_25817" data-name="Path 25817" d="M233.67,129.174a2.995,2.995,0,1,0,3.043-2.793A2.94,2.94,0,0,0,233.67,129.174Z" transform="translate(-143.56 -52.498)" fill="#263238"/>
      <path id="Path_25818" data-name="Path 25818" d="M210.074,122.237c.382.514,2.94-1.543,6.512-1.47s6.027,2.308,6.438,1.823c.206-.22-.162-1.132-1.249-2.146a8.217,8.217,0,0,0-5.115-2.073,8.1,8.1,0,0,0-5.233,1.735C210.295,121.12,209.883,122.016,210.074,122.237Z" transform="translate(-154.669 -56.262)" fill="#263238"/>
      <path id="Path_25819" data-name="Path 25819" d="M231.49,122.693c.47.456,2.94-1.808,6.762-2.043s6.659,1.617,7.026,1.1c.191-.235-.294-1.088-1.558-1.955a9.173,9.173,0,0,0-5.659-1.47,8.937,8.937,0,0,0-5.351,2.234C231.608,121.576,231.27,122.487,231.49,122.693Z" transform="translate(-144.614 -56.292)" fill="#263238"/>
      <path id="Path_25820" data-name="Path 25820" d="M227.639,145.82a22.667,22.667,0,0,0-5.306-.808c-.823,0-1.617-.206-1.779-.764a4.278,4.278,0,0,1,.5-2.484l2.323-6.438c3.175-9.07,5.439-16.537,5.071-16.654s-3.234,7.129-6.394,16.169c-.764,2.234-1.47,4.41-2.19,6.409a4.895,4.895,0,0,0-.338,3.278,2.087,2.087,0,0,0,1.47,1.176,5.614,5.614,0,0,0,1.47.147,21.049,21.049,0,0,0,5.174-.029Z" transform="translate(-150.273 -56.121)" fill="#263238"/>
      <path id="Path_25821" data-name="Path 25821" d="M224.19,166.29a59.93,59.93,0,0,0,31.3-9.29S248,173.713,224.4,172.14Z" transform="translate(-148.015 -38.108)" fill="#6f4439"/>
      <path id="Path_25822" data-name="Path 25822" d="M235.247,143.5a5.071,5.071,0,0,0-1.867-1.793,4.1,4.1,0,0,0-2.808,0,6.644,6.644,0,0,0-3.469,2.234,3.969,3.969,0,0,0-.515,3.954h0c.5,1.308,2.587,1.837,3.984,1.94a6.174,6.174,0,0,0,3.925-1.264,3.513,3.513,0,0,0,1.779-2.94,4.307,4.307,0,0,0-1.029-2.131Z" transform="translate(-147.033 -45.41)" fill="#6f4439"/>
      <path id="Path_25823" data-name="Path 25823" d="M234.848,139.81c-.529,0-.441,3.5-3.4,6.086s-6.718,2.293-6.732,2.793c0,.22.853.661,2.44.661a8.819,8.819,0,0,0,5.63-2.131,7.7,7.7,0,0,0,2.616-5.1C235.495,140.648,235.083,139.781,234.848,139.81Z" transform="translate(-147.766 -46.186)" fill="#263238"/>
      <path id="Path_25824" data-name="Path 25824" d="M231.012,116.185c.338.882,3.572.367,7.35.735s6.923,1.308,7.35.5c.22-.382-.338-1.191-1.6-2.014a12.245,12.245,0,0,0-5.527-1.779,12.553,12.553,0,0,0-5.762.823C231.482,115.053,230.806,115.773,231.012,116.185Z" transform="translate(-144.826 -58.515)" fill="#263238"/>
      <path id="Path_25825" data-name="Path 25825" d="M211.442,113.133c.676.72,3.2-.118,6.277-.235s5.689.353,6.277-.441c.25-.382-.176-1.1-1.338-1.779a10.187,10.187,0,0,0-10.113.544C211.487,111.927,211.148,112.707,211.442,113.133Z" transform="translate(-154.053 -60.388)" fill="#263238"/>
      <path id="Path_25826" data-name="Path 25826" d="M280.35,105.691c-2.5-3.087-6.541-4.41-10.378-5.439a216.58,216.58,0,0,0-50.786-7.482c-1.749,3.69.691,8.217,4.131,10.422s7.629,2.763,11.583,3.792,8.085,2.822,10.04,6.409c2.073,3.807,1.161,8.673,3.043,12.6,3.249,6.732,13.229,7.967,16.449,14.7,2.425,5.115,0,11.069-.25,16.713a20.2,20.2,0,0,0,22.049,20.829q-1.382-30.266-2.763-60.562C283.3,113.481,283,108.969,280.35,105.691Z" transform="translate(-150.64 -68.292)" fill="#263238"/>
      <path id="Path_25827" data-name="Path 25827" d="M311.571,149.524c-3.469-2.514-7.688-4.557-9.378-8.5-2.455-5.718,1.588-13.229-2.043-18.242-3.293-4.63-11.495-3.528-14.611-8.29-2.44-3.7-.47-7.423-1.587-10.789s-6.335-5.88-9.8-5.1l-23.284,42.628c-1.161,13.582-2.94,20.947.676,28.443,2.014,4.116,4.483,8.07,5.571,12.524s.456,9.672-2.94,12.73c16.522-.412,30.986-10.584,44.319-20.344L312.6,164.3a11.01,11.01,0,0,0,3.763-3.866C318.171,156.448,314.966,152.038,311.571,149.524Z" transform="translate(-136.174 -65.617)" fill="#263238"/>
      <path id="Path_25828" data-name="Path 25828" d="M313.4,178.279a7.6,7.6,0,0,1-1.705.514,15.331,15.331,0,0,1-5.145.176,15.949,15.949,0,0,1-7.511-3.1,15.625,15.625,0,0,1-5.689-9.1,16.052,16.052,0,0,1-.1-6.335,25.561,25.561,0,0,1,2.411-6.409,24.077,24.077,0,0,0,2.484-6.644,8.158,8.158,0,0,0-1.6-6.85c-1.69-1.837-4.513-2.043-7.188-2.808a7.555,7.555,0,0,1-3.763-2.234,7.35,7.35,0,0,1-1.573-4.175c-.279-2.94.72-5.88.985-8.731a9.554,9.554,0,0,0-.412-4.189,5.88,5.88,0,0,0-2.7-3.072c-2.543-1.47-5.586-1.47-8.526-1.352a17.845,17.845,0,0,1-8.7-1.617,15.89,15.89,0,0,1-6.424-5.659,26.459,26.459,0,0,1-2.94-7.644,36.749,36.749,0,0,0-2.367-7.188,16.39,16.39,0,0,0-4.41-5.409,18.463,18.463,0,0,0-21.8-.794,22.3,22.3,0,0,0-5.806,5.454,29.294,29.294,0,0,0-3.322,6,1.352,1.352,0,0,1,.1-.441c.1-.294.22-.72.456-1.264a20.992,20.992,0,0,1,2.4-4.5,22.623,22.623,0,0,1,5.88-5.689,19.3,19.3,0,0,1,10.216-3.4A19.624,19.624,0,0,1,249,85.835a16.948,16.948,0,0,1,4.718,5.659,37.276,37.276,0,0,1,2.484,7.35,25.282,25.282,0,0,0,2.852,7.35,15.1,15.1,0,0,0,6.071,5.306,16.89,16.89,0,0,0,8.29,1.47c2.94,0,6.144-.132,9,1.47a6.835,6.835,0,0,1,3.131,3.572,10.157,10.157,0,0,1,.456,4.616c-.294,2.94-1.249,5.88-.985,8.555a6.409,6.409,0,0,0,1.338,3.66,6.688,6.688,0,0,0,3.322,1.955c1.279.382,2.631.6,3.954,1.014a7.746,7.746,0,0,1,3.616,2.073,9,9,0,0,1,1.779,7.585,24.546,24.546,0,0,1-2.6,6.865,25.681,25.681,0,0,0-2.4,6.2,15.523,15.523,0,0,0,0,6.056,15.1,15.1,0,0,0,5.336,8.82,15.464,15.464,0,0,0,7.247,3.146,17.859,17.859,0,0,0,6.791-.279Z" transform="translate(-151.116 -73.44)" fill="#455a64"/>
      <path id="Path_25829" data-name="Path 25829" d="M320.759,148.35a3.366,3.366,0,0,1,.691,1.279,5.88,5.88,0,0,1-.294,4.145,6.042,6.042,0,0,1-1.867,2.411,6.585,6.585,0,0,1-3.4,1.308,8.232,8.232,0,0,1-7.658-3.822,11.039,11.039,0,0,1-1.661-4.865,15.228,15.228,0,0,1,.588-5.542c.926-3.675,2.94-7.35,2.558-11.524a7.585,7.585,0,0,0-2.484-5.439,8.379,8.379,0,0,0-6.144-1.249,19.933,19.933,0,0,1-7.173,0,6.218,6.218,0,0,1-3.175-2.146,8.82,8.82,0,0,1-1.573-3.5,29.4,29.4,0,0,1-.162-7.35,16.317,16.317,0,0,0-1.073-6.7,17.169,17.169,0,0,0-8.673-9.217c-3.763-1.779-7.894-1.588-11.627-1.47a33.426,33.426,0,0,1-10.539-.559A22.049,22.049,0,0,1,244.7,85.6a15.8,15.8,0,0,1-2.484-5,29.4,29.4,0,0,0,2.793,4.777,22.182,22.182,0,0,0,12.23,8.158,33.442,33.442,0,0,0,10.29.426c3.734-.191,8.011-.441,12.039,1.47a17.948,17.948,0,0,1,9.172,9.672,17.037,17.037,0,0,1,1.161,7.085,28.708,28.708,0,0,0,.147,7.115,6.13,6.13,0,0,0,4.072,4.939,20.05,20.05,0,0,0,6.821,0,9.143,9.143,0,0,1,6.806,1.47,8.452,8.452,0,0,1,2.793,6.086,16.346,16.346,0,0,1-.867,6.262c-.6,1.94-1.308,3.748-1.808,5.542a14.7,14.7,0,0,0-.617,5.262,10.539,10.539,0,0,0,1.47,4.572,7.659,7.659,0,0,0,7.041,3.645,6.189,6.189,0,0,0,3.175-1.117,6.027,6.027,0,0,0,1.793-2.22,5.88,5.88,0,0,0,.441-3.925A12.524,12.524,0,0,0,320.759,148.35Z" transform="translate(-139.542 -74.011)" fill="#263238"/>
      <path id="Path_25830" data-name="Path 25830" d="M178.96,168.115a6.615,6.615,0,0,0,.5,4.278,5.689,5.689,0,0,0,3.763,3.1,5.983,5.983,0,0,0,5.88-2.264,5.527,5.527,0,0,0,1.058-3.587,11.847,11.847,0,0,0-1.058-4.086c-1.161-2.675-3.249-5.512-3.352-9.158a13.229,13.229,0,0,1,4-9.981,15.552,15.552,0,0,1,4.836-3.219,22.135,22.135,0,0,1,5.747-1.47,30.486,30.486,0,0,0,5.6-1.191,7.541,7.541,0,0,0,4.131-3.19,9.29,9.29,0,0,0,1.088-5.013,19.021,19.021,0,0,0-.941-5.013c-1.014-3.2-2.323-6.291-2.47-9.437a14.552,14.552,0,0,1,2.1-8.261,18.506,18.506,0,0,1,4.88-5.057,35.4,35.4,0,0,0,3.954-3.4,11.216,11.216,0,0,0,2.337-3.734v.294a4.747,4.747,0,0,1-.25.838A8.967,8.967,0,0,1,219,101.424a33.528,33.528,0,0,1-3.9,3.557,18.389,18.389,0,0,0-4.63,5,14.053,14.053,0,0,0-1.9,7.864c.162,2.94,1.47,5.88,2.514,9.217a18.991,18.991,0,0,1,1.014,5.248,10.1,10.1,0,0,1-1.191,5.512,8.5,8.5,0,0,1-4.616,3.616,31.636,31.636,0,0,1-5.777,1.235A22.4,22.4,0,0,0,195,144.052a14.7,14.7,0,0,0-4.542,2.94,12.421,12.421,0,0,0-3.778,9.29c0,3.337,2,6.056,3.19,8.82a11.98,11.98,0,0,1,1.073,4.41,6.218,6.218,0,0,1-1.249,4.013,6.541,6.541,0,0,1-6.512,2.367,6.041,6.041,0,0,1-3.984-3.454,6.174,6.174,0,0,1-.5-3.322A3.647,3.647,0,0,1,178.96,168.115Z" transform="translate(-169.418 -66.097)" fill="#263238"/>
      <path id="Path_25831" data-name="Path 25831" d="M329.188,177.261l-34.294-6.821s-14.067,20.388-35.984,18.624c-12.788-1.029-18.2-13.229-18.2-13.229L204.6,186.007l-.514,73.085,8.261,39.688-21.9,66.147s58.709,37.337,153.873-1.132l-16.625-40.1,4.513-23.754s6.027-44.848,3.645-58.8-6.732-30.413-6.732-30.413Z" transform="translate(-163.875 -31.792)" fill="#56878b"/>
      <path id="Path_25832" data-name="Path 25832" d="M220,253.75a13.348,13.348,0,0,0,2.293,1.72c1.47,1.044,3.763,2.47,6.615,4.116a134.882,134.882,0,0,0,48.42,16.581c3.263.426,5.88.691,7.761.779a14.3,14.3,0,0,0,2.866,0,15.391,15.391,0,0,0-2.822-.47c-1.823-.22-4.41-.588-7.688-1.117a159.344,159.344,0,0,1-24.783-6.2,157.587,157.587,0,0,1-23.416-10.289c-2.94-1.558-5.189-2.866-6.776-3.807A14.7,14.7,0,0,0,220,253.75Z" transform="translate(-149.984 7.359)" fill="#263238"/>
      <g id="Group_75830" data-name="Group 75830" transform="translate(39.485 214.145)" opacity="0.3">
        <path id="Path_25833" data-name="Path 25833" d="M199.23,301.912a14.259,14.259,0,0,0,13.788-5.145c2.94-3.954,4.278-8.82,5.512-13.641q4.278-16.419,8.526-32.868a81.435,81.435,0,0,1,54.285-8.981,18.712,18.712,0,0,1,7.952,2.94c3.146,2.4,4.645,6.335,5.968,10.054,3.2,9.07,6.291,18.33,11.833,26.18s7.805,13.641,17.4,14.141l8.026-38.63L305.272,221.8l-68.632,2.381-24.989,16.272-8.511,49.258Z" transform="translate(-199.23 -221.8)"/>
      </g>
      <path id="Path_25834" data-name="Path 25834" d="M282.585,175.014s15.934-1.764,26.679,17.419c7.894,14.082,17.83,42.3,17.83,42.3l-37.822,10.51L281.1,208.322Z" transform="translate(-121.27 -29.662)" fill="#56878b"/>
      <path id="Path_25835" data-name="Path 25835" d="M211.631,181.08S200,183.2,193.462,192.957s-17.992,44.1-17.992,44.1l39.688,4.307,3.69-39.394Z" transform="translate(-170.91 -26.792)" fill="#56878b"/>
      <path id="Path_25836" data-name="Path 25836" d="M290.928,201.16a21.713,21.713,0,0,0-.941,4.777c-.529,3.381-1.132,7.35-1.793,11.568s-1.352,8.188-1.911,11.568a23.52,23.52,0,0,0-.6,4.836,20.681,20.681,0,0,0,1.367-4.689c.676-2.94,1.47-7,2.234-11.539s1.205-8.658,1.47-11.657a21.657,21.657,0,0,0,.176-4.865Z" transform="translate(-119.118 -17.355)" fill="#263238"/>
      <path id="Path_25837" data-name="Path 25837" d="M201.909,201.35c-.294,0-.926,8.379-1.382,18.756s-.6,18.786-.309,18.786.926-8.379,1.47-18.742S202.218,201.365,201.909,201.35Z" transform="translate(-159.351 -17.266)" fill="#263238"/>
      <path id="Path_25838" data-name="Path 25838" d="M264.547,177l7.144,56.622a3.631,3.631,0,0,1-3.146,3.969l-36.263,5.189a3.66,3.66,0,0,1-4.189-2.94l-9.54-59.077a3.587,3.587,0,0,1,3.381-4.1l38.674-2.764A3.66,3.66,0,0,1,264.547,177Z" transform="translate(-150.682 -30.175)" fill="#263238"/>
      <path id="Path_25839" data-name="Path 25839" d="M243.234,197.06c.985,0,22.7,2.866,22.7,2.866l31.177,14.244,15.655,20.579-14.185,28.105L289.331,239.5a39.571,39.571,0,0,1-13.891,2.484c-6.6-.338-27.488-1.029-27.488-1.029l-10.966-5.292s-3.675-5.277-3.734-6.791a2.44,2.44,0,0,1,3.675-2.264c2.234,1.117,17.286.808,20.976-.853,0,0-21.976-.632-24.989-3.969s-2.117-6.1,1.323-6.247,16.052,1.176,19.785.72,8.452-.647,9.319-2.5-2.014-3.234-2.014-3.234l-4.189-2.852s-16.1-2.073-17.169-5.351a3.9,3.9,0,0,1,3.263-5.262Z" transform="translate(-144.774 -19.282)" fill="#ae7461"/>
      <path id="Path_25840" data-name="Path 25840" d="M249.618,196.639s-18.139,3.616-19.315,4.763-23.078,29.3-23.078,29.3l-5.395,5.365L217.044,254.3l2.852-1.823,20.182-11.6a35.028,35.028,0,0,1,6.482-2.308s20.7-4,21.946-6.468.456-2.94-1.1-3.293-13.964,1.558-16.713,2.161a44.011,44.011,0,0,1-8.29.338s8.57-2.293,10.5-3.028,21.123-5.689,20.682-9.011-2.94-4.41-14.905-.808a89.505,89.505,0,0,1-20.3,4l26.459-10.084s10.672-3.778,7.07-6.615S245.443,210,245.443,210l-10.069,4.131,2.646-6.056s14.376-4.733,16.169-6.218c2.234-1.823,2.484-3.44.691-4.792S249.618,196.639,249.618,196.639Z" transform="translate(-158.523 -19.625)" fill="#ae7461"/>
      <path id="Path_25841" data-name="Path 25841" d="M180.338,219.43l32.339,3.557v7.35l4.733-6.865,13.45,19.991s-3.969,14.17-6.1,22.049c-5.645,20.9-15.317,44.422-28.355,43.819-15.655-.779-23.842-16.713-24.034-28.238C172.195,270.613,180.338,219.43,180.338,219.43Z" transform="translate(-172.368 -8.769)" fill="#ae7461"/>
      <path id="Path_25842" data-name="Path 25842" d="M328.516,216.273l-27.253,7.805-8.335,2.087-8.085-10.745L273.32,239.454s5.057,13.817,7.791,21.461c7.35,20.447,18.786,43.216,31.736,41.541,15.537-2,26.238-20.241,25.533-31.751C337.733,260.253,328.516,216.273,328.516,216.273Z" transform="translate(-124.927 -10.654)" fill="#ae7461"/>
      <path id="Path_25843" data-name="Path 25843" d="M205.49,230.691s.176-.279.588-.808l1.779-2.352c1.617-2.073,3.954-5.1,6.938-8.967l11.039-14.082,1.661-2.073.867-1.073a4.175,4.175,0,0,1,1.352-.676,51.915,51.915,0,0,1,5.689-1.47c3.925-.941,8.085-1.823,12.465-2.7h0a10.07,10.07,0,0,1,3.4-.294,4.821,4.821,0,0,1,1.72.5,3.939,3.939,0,0,1,1.323,1.235,2.19,2.19,0,0,1,.265,1.837,4.409,4.409,0,0,1-.955,1.558,6.586,6.586,0,0,1-1.47,1.191c-.529.294-1.088.544-1.632.794-4.41,1.882-9.231,3.5-14.17,5.159l.206-.176-2.661,6.056-.441-.426,10.069-4.131h0c4.336-1.308,8.82-2.514,13.45-3.513a68.743,68.743,0,0,1,7.1-1.22,25.47,25.47,0,0,1,3.69-.147,6.276,6.276,0,0,1,1.9.367,2.47,2.47,0,0,1,1.47,1.47,2.087,2.087,0,0,1-.559,1.97,7.792,7.792,0,0,1-1.47,1.264,22.444,22.444,0,0,1-3.293,1.808c-2.293,1.044-4.674,1.837-7.026,2.764l-14.317,5.439-7.791,2.94-.147-.691a92.6,92.6,0,0,0,18.83-3.543,89.511,89.511,0,0,1,9.084-2.337,14.008,14.008,0,0,1,4.7-.191,3.5,3.5,0,0,1,2.161,1.161,4.028,4.028,0,0,1,.808,2.234,1.779,1.779,0,0,1-.544,1.191,5.587,5.587,0,0,1-.9.779,15.435,15.435,0,0,1-1.955,1.147c-1.338.676-2.7,1.22-4.072,1.749-2.749,1.029-5.5,1.911-8.217,2.734l-4.042,1.205c-1.308.382-2.631.882-3.954,1.235-2.631.764-5.233,1.47-7.791,2.146v-.6a36.66,36.66,0,0,0,9.025-.47c2.94-.529,5.88-.955,8.658-1.338,1.47-.176,2.808-.353,4.189-.485.691-.073,1.382-.132,2.073-.162a5.615,5.615,0,0,1,1.1,0,4.808,4.808,0,0,1,1.029.309,1.47,1.47,0,0,1,.823.823,2,2,0,0,1,0,1.1,5.261,5.261,0,0,1-.338.955l-.206.441a1.72,1.72,0,0,1-.353.441,12.348,12.348,0,0,1-3.557,1.705,132.883,132.883,0,0,1-13.773,3.513l-3.16.647a23.07,23.07,0,0,0-2.94.72,22.051,22.051,0,0,0-5.277,2.073l-14.611,8.261-3.851,2.1-.985.544-.353.176a1.468,1.468,0,0,1,.323-.22l.97-.588,3.822-2.234c3.366-1.955,8.276-4.807,14.523-8.408,3.175-1.867,7.232-2.69,11.51-3.557a137.3,137.3,0,0,0,13.685-3.572,11.98,11.98,0,0,0,3.351-1.6.942.942,0,0,0,.235-.294l.191-.426a5.88,5.88,0,0,0,.309-.853,1,1,0,0,0-.529-1.323,5.324,5.324,0,0,0-.9-.265h-.955l-2.043.176c-1.367.132-2.763.309-4.16.5-2.808.382-5.7.823-8.629,1.352a36.75,36.75,0,0,1-9.187.5.309.309,0,0,1-.309-.323.323.323,0,0,1,.235-.294h0q3.837-1.014,7.776-2.161c1.323-.353,2.587-.838,3.939-1.249l4.042-1.205c2.7-.823,5.439-1.705,8.158-2.734,1.352-.514,2.7-1.073,4.013-1.72a13.683,13.683,0,0,0,1.852-1.1c.544-.4,1.161-.926,1.147-1.47a3.337,3.337,0,0,0-.647-1.808,2.764,2.764,0,0,0-1.735-.9,13.348,13.348,0,0,0-4.41.191,85.578,85.578,0,0,0-9.011,2.337,93.27,93.27,0,0,1-19.006,3.572.367.367,0,0,1-.4-.338.353.353,0,0,1,.235-.353h0l7.776-2.94,14.332-5.439c2.352-.926,4.748-1.72,6.968-2.719a21.581,21.581,0,0,0,3.19-1.764,7.35,7.35,0,0,0,1.294-1.117,1.47,1.47,0,0,0,.426-1.323c-.338-.911-1.573-1.235-2.734-1.279a22.244,22.244,0,0,0-3.557.147,69.383,69.383,0,0,0-7.026,1.191c-4.6.985-9.07,2.19-13.377,3.469h0l-10.084,4.1a.327.327,0,0,1-.441-.426l2.661-6.041a.353.353,0,0,1,.206-.176c4.924-1.646,9.7-3.249,14.111-5.1q.812-.342,1.588-.764a6.131,6.131,0,0,0,1.264-1.058c.764-.794,1.235-1.867.632-2.7a3.322,3.322,0,0,0-2.6-1.47,9.466,9.466,0,0,0-3.16.265h0c-4.41.867-8.54,1.734-12.45,2.631-1.955.47-3.866.926-5.645,1.47a4.058,4.058,0,0,0-1.161.544l-.853,1.044-1.676,2.058c-4.322,5.454-8.07,10.143-11.127,14.009s-5.424,6.821-7.07,8.82l-1.852,2.308C205.725,230.441,205.49,230.691,205.49,230.691Z" transform="translate(-156.803 -19.707)" fill="#6f4439"/>
      <path id="Path_25844" data-name="Path 25844" d="M215.578,223.07c.22.162-8.82,11.951-20.2,26.341s-20.8,25.915-21.02,25.739,8.82-11.951,20.212-26.327S215.358,222.967,215.578,223.07Z" transform="translate(-171.433 -7.059)" fill="#6f4439"/>
      <path id="Path_25845" data-name="Path 25845" d="M315.213,259.987c-.162,0-1.338-2.469-3.734-6.291a132.892,132.892,0,0,0-10.554-14.185c-4.41-5.307-8.7-9.966-11.642-13.45-1.47-1.735-2.631-3.175-3.41-4.189a7.191,7.191,0,0,1-1.1-1.632,8.6,8.6,0,0,1,1.47,1.47l3.631,3.984c3.072,3.381,7.35,7.967,11.862,13.3a104.165,104.165,0,0,1,10.407,14.42,50.671,50.671,0,0,1,2.367,4.689,7.922,7.922,0,0,1,.706,1.881Z" transform="translate(-119.546 -8.389)" fill="#6f4439"/>
    </g>
  </g>
</svg>
