<svg xmlns="http://www.w3.org/2000/svg" width="979.638" height="637.632" viewBox="0 0 979.638 637.632">
  <g id="Reset_password-pana_1_" data-name="Reset password-pana (1)" transform="translate(0 0)">
    <g id="freepik--background-complete--inject-2" transform="translate(0 4.378)">
      <path id="Path_2287" data-name="Path 2287" d="M455.787,227.746v-4.97c0-3.217,0-7.853-.116-13.678l.217.217-70.491.13c.159-.159-.362.362.362-.348h0v18.619l-.348-.362,50.234.159,14.823.1h5.057a1.93,1.93,0,0,1,.377,0h-5.26l-14.895.333-50.481.159h-.348v-19h0l.362-.362,70.491.13h.261v.232c0,5.883-.087,10.563-.116,13.808v4.535A1.231,1.231,0,0,1,455.787,227.746Z" transform="translate(116.947 47.202)" fill="#e0e0e0"/>
      <path id="Path_2288" data-name="Path 2288" d="M549.331,93.13a1.442,1.442,0,0,1,0-.333V88.16c0-3.217-.073-7.839-.116-13.678l.217.217-70.491.145c.159-.159-.362.362.348-.362h0V93.13l-.362-.348,50.235.159,14.837.1h5.433a1.362,1.362,0,0,1-.333,0h-4.941l-14.75.1-50.481.159h-.348V74.511h0c.71-.71.188-.2.362-.362l70.491.145h.217v.217c0,5.9-.1,10.563-.13,13.808v4.55a1.773,1.773,0,0,1-.188.261Z" transform="translate(158.994 -13.238)" fill="#e0e0e0"/>
      <path id="Path_2289" data-name="Path 2289" d="M729.747,285.863a1.456,1.456,0,0,1,0-.333v-4.622c0-3.217,0-7.853-.116-13.692l.217.217-70.491.145.362-.362h0v18.648l-.348-.348,50.235.159,14.822.1h.174l-14.75.1-50.481.159h-.362V267.288h0l.362-.348,70.491.13h.13v.217c0,5.9-.087,10.563-.116,13.823v4.535A1.772,1.772,0,0,1,729.747,285.863Z" transform="translate(239.995 73.325)" fill="#e0e0e0"/>
      <path id="Path_2290" data-name="Path 2290" d="M727.644,273.131a.985.985,0,0,1,0-.348V268.06c0-3.275-.072-7.9-.13-13.576l.261.261-42.352.1c-.333.319.435-.435.348-.362h0v18.633l-.348-.333,30.312.159,8.824.1h3.231a4.972,4.972,0,0,1-.768,0H724.7l-8.694.1-30.529.159H685V254.324h0c-.087.087.681-.681.362-.348l42.352.087h.261v.246c0,5.8-.1,10.418-.13,13.721v3.695a12.26,12.26,0,0,1-.2,1.405Z" transform="translate(251.66 67.468)" fill="#e0e0e0"/>
      <path id="Path_2291" data-name="Path 2291" d="M286.505,467.017l-15.938,6.854,1.072-94.543c.493-11.316-4.709-16.141-7.535-19.358-25.661-29.181-63.927-8.013-64.26,21.56l-.956,84.487-15.518-.174,1.536-88.385c.116-9.954,7.853-27.225,15.663-33.412,43.178-34.209,87.356,1.13,86.936,38.513Z" transform="translate(26.464 101.716)" fill="#f5f5f5"/>
      <path id="Path_2292" data-name="Path 2292" d="M286.631,467.072V460.48c0-4.347.087-10.65.145-18.836s.159-18.112.261-29.689q.087-8.694.174-18.5c0-6.549.594-13.519-.753-20.676a50.191,50.191,0,0,0-8.882-20.734c-.594-.8-1.159-1.608-1.782-2.391s-1.333-1.449-2-2.246a50.7,50.7,0,0,0-4.347-4.274c-.739-.71-1.608-1.275-2.42-1.927a19.694,19.694,0,0,0-2.521-1.84,48.828,48.828,0,0,0-5.477-3.159,52.468,52.468,0,0,0-12.2-4.347l-3.275-.536-1.637-.275-1.666-.1-3.362-.217c-1.13,0-2.26.072-3.391.116a50.814,50.814,0,0,0-26.2,8.694,51.364,51.364,0,0,0-18.445,22.371,54.133,54.133,0,0,0-3.8,14.649c-.435,5.071-.319,10.3-.42,15.533-.232,20.966-.478,42.671-.724,64.912q0,4.448-.1,8.867l-.362-.377,15.518.174-.362.362q.275-25.211.565-49.264.13-11.968.275-23.6,0-5.8.13-11.519a39.454,39.454,0,0,1,1.884-11.215A36.528,36.528,0,0,1,214.3,352.766a23.362,23.362,0,0,1,2.217-1.55l2.318-1.449a36.442,36.442,0,0,1,4.883-2.144,36.865,36.865,0,0,1,5.086-1.449c.855-.188,1.724-.261,2.579-.406l1.29-.174h1.3a36.614,36.614,0,0,1,10.143.855,38.714,38.714,0,0,1,9.3,3.55,36.948,36.948,0,0,1,17.387,21.459,37.961,37.961,0,0,1,1.449,8.694,21.341,21.341,0,0,0,.072,2.159,20.886,20.886,0,0,1,0,2.13v4.2c0,2.767,0,5.491-.1,8.157-.145,10.664-.261,20.459-.377,29.3-.246,17.662-.435,31.485-.565,40.672l-.1-.1,11.707.188h.043l-11.765-.072h-.1v-.1c0-9.186.2-23.009.362-40.672.087-8.838.188-18.648.29-29.312,0-2.666,0-5.39.087-8.158v-6.317l-.087-2.13a34.109,34.109,0,0,0-5.115-16.764,36.078,36.078,0,0,0-13.432-12.91,38.206,38.206,0,0,0-9.143-3.477,36.066,36.066,0,0,0-10.012-.811h-1.275l-1.261.188c-.855.13-1.71.2-2.55.391a38.52,38.52,0,0,0-9.78,3.521l-2.275,1.362a22.482,22.482,0,0,0-2.173,1.449,35.789,35.789,0,0,0-12.591,17.387,38.44,38.44,0,0,0-1.826,11.012q0,5.709-.13,11.519-.13,11.591-.261,23.6c-.174,15.938-.362,32.413-.551,49.264v.362h-.362l-15.533-.174h-.362v-.362q0-4.347.1-8.867c.261-22.227.507-43.932.753-64.912.1-5.245,0-10.418.42-15.6a55.06,55.06,0,0,1,3.869-14.837A56.176,56.176,0,0,1,196,348.811a55.48,55.48,0,0,1,10.881-9.838,51.408,51.408,0,0,1,26.544-8.81c1.145,0,2.289-.13,3.434-.1l3.9.232,2.144.246,3.246.536,1.449.319a50.609,50.609,0,0,1,11.591,4.26,47.6,47.6,0,0,1,5.549,3.2c.913.536,1.7,1.261,2.536,1.869a26.369,26.369,0,0,1,2.463,1.942,51.7,51.7,0,0,1,4.347,4.347l2.028,2.275c.623.8,1.188,1.623,1.782,2.434a50.569,50.569,0,0,1,8.94,20.966c1.347,7.245.667,14.258.71,20.807s-.174,12.78-.246,18.575c-.159,11.591-.3,21.56-.42,29.718s-.2,14.489-.275,18.749c0,2.115,0,3.753-.087,4.854A4.494,4.494,0,0,0,286.631,467.072Z" transform="translate(26.339 101.661)" fill="#e0e0e0"/>
      <path id="Path_2293" data-name="Path 2293" d="M0,0H140.546a5.419,5.419,0,0,1,5.419,5.419V114.045a4.926,4.926,0,0,1-4.926,4.926H.058V0Z" transform="matrix(1, 0.011, -0.011, 1, 192.113, 512.373)" fill="#e0e0e0"/>
      <path id="Path_2294" data-name="Path 2294" d="M5.883,0H129.477a5.883,5.883,0,0,1,5.883,5.883V111.655a7.245,7.245,0,0,1-7.245,7.245H6.086A6.085,6.085,0,0,1,0,112.814V5.883A5.883,5.883,0,0,1,5.883,0Z" transform="translate(186.228 512.008) rotate(0.573)" fill="#ebebeb"/>
      <path id="Path_2295" data-name="Path 2295" d="M236.136,425.35a16.59,16.59,0,0,0-16.924-16.779,16.779,16.779,0,0,0-16.272,16.271,16.532,16.532,0,0,0,11.881,16.17L203.738,463.79l28.616.855-8.462-23.574a16.547,16.547,0,0,0,12.243-15.721Z" transform="translate(35.249 136.907)" fill="#e0e0e0"/>
      <path id="Path_2296" data-name="Path 2296" d="M259.2,489.745c-.2,0,0-20.705.362-46.235s.884-46.25,1.087-46.25,0,20.705-.362,46.25S259.408,489.76,259.2,489.745Z" transform="translate(60.473 131.83)" fill="#fafafa"/>
      <path id="Path_2297" data-name="Path 2297" d="M263.557,389.089c0,.2-18.213.406-40.686.449s-40.7-.087-40.7-.29,18.213-.391,40.7-.435S263.557,388.857,263.557,389.089Z" transform="translate(25.926 128.033)" fill="#fff"/>
      <path id="Path_2298" data-name="Path 2298" d="M203.318,434.244a3.737,3.737,0,0,1-.681-1.043,16.939,16.939,0,0,1-1.246-3.159,18.619,18.619,0,0,1,6.81-20.053,16.461,16.461,0,0,1,2.9-1.753,3.622,3.622,0,0,1,1.159-.406,40.028,40.028,0,0,0-3.753,2.565,19.1,19.1,0,0,0-6.622,19.517C202.594,432.708,203.434,434.157,203.318,434.244Z" transform="translate(34.234 136.575)" fill="#fff"/>
      <path id="Path_2299" data-name="Path 2299" d="M208.233,432.32c-.1.174-1.072-.246-2.173-.927s-1.9-1.377-1.8-1.55,1.087.246,2.188.927A4.8,4.8,0,0,1,208.233,432.32Z" transform="translate(35.84 146.44)" fill="#fff"/>
      <path id="Path_2300" data-name="Path 2300" d="M229.791,333.184a23.489,23.489,0,0,1-2.8.362,48.545,48.545,0,0,0-7.477,1.608,45.489,45.489,0,0,0-32.253,43.468v2.811a2.26,2.26,0,0,1-.116-.724c0-.478-.145-1.174-.159-2.086a40.268,40.268,0,0,1,.435-7.708,43.961,43.961,0,0,1,31.963-36.223,39.894,39.894,0,0,1,7.592-1.449c.9-.1,1.608-.087,2.087-.1A3.651,3.651,0,0,1,229.791,333.184Z" transform="translate(28.075 103.044)" fill="#fff"/>
      <path id="Path_2301" data-name="Path 2301" d="M186.744,378.014a13.041,13.041,0,0,1-.261-4.347,12.882,12.882,0,0,1,.449-4.347,25.428,25.428,0,0,1-.188,8.694Z" transform="translate(27.828 119.287)" fill="#fff"/>
      <rect id="Rectangle_18561" data-name="Rectangle 18561" width="70.491" height="18.648" transform="translate(233.38 93.7)" fill="#f5f5f5"/>
      <path id="Path_2302" data-name="Path 2302" d="M249.612,129.144v-4.97c0-3.217,0-7.839-.116-13.678l.217.217-70.491.145c.159-.159-.362.348.362-.362h0v18.619l-.348-.348,50.234.159,14.823.1h5.057a1.928,1.928,0,0,1,.377,0h-5.26l-14.75.1-50.481.159h-.348V110.322h0l.362-.362,70.491.145h.217v.217c0,5.883-.087,10.563-.116,13.808v4.535A.782.782,0,0,1,249.612,129.144Z" transform="translate(24.453 2.852)" fill="#e0e0e0"/>
      <rect id="Rectangle_18562" data-name="Rectangle 18562" width="70.491" height="18.648" transform="translate(888.862 45.016)" fill="#f5f5f5"/>
      <path id="Path_2303" data-name="Path 2303" d="M702.007,95.481a1.694,1.694,0,0,1,0-.333V90.511c0-3.217,0-7.839-.116-13.678l.217.217-70.491.145c.159-.159-.362.348.362-.362h0V95.481l-.348-.348,50.234.159,14.823.1h.174l-14.75.1-50.481.159h-.362V76.862h0l.362-.362,70.49.145h.217v.217c0,5.883-.087,10.563-.116,13.808v4.55A.233.233,0,0,1,702.007,95.481Z" transform="translate(227.541 -12.169)" fill="#e0e0e0"/>
      <rect id="Rectangle_18563" data-name="Rectangle 18563" width="70.491" height="18.648" transform="translate(486.856 415.74)" fill="#f5f5f5"/>
      <path id="Path_2304" data-name="Path 2304" d="M424.588,351.341a1.947,1.947,0,0,1,0-.348v-4.622c0-3.217-.072-7.839-.116-13.678l.217.217-70.491.145c.159-.159-.362.348.348-.362h0v18.619l-.348-.348,50.234.159,14.823.1h.174l-14.75.1-50.568.362h-.362V332.722h0l.362-.362,70.491.145h.217v.217c0,5.883-.087,10.563-.116,13.808v4.535A2.411,2.411,0,0,1,424.588,351.341Z" transform="translate(102.953 102.694)" fill="#e0e0e0"/>
      <path id="Path_2305" data-name="Path 2305" d="M126.213,82.491a1.447,1.447,0,0,1,0-.333V77.521c0-3.217,0-7.839-.116-13.678l.217.217-70.592.159c.159-.159-.362.362.348-.362h0V82.491l-.348-.348,50.234.159,14.823.1h5.433a1.362,1.362,0,0,1-.333,0h-4.941l-14.736.1-50.481.159H55.36V63.872h0l.362-.362,70.491.145h.217v.217c0,5.9-.087,10.563-.116,13.808v4.55a1.782,1.782,0,0,1-.1.261Z" transform="translate(-31.003 -18.001)" fill="#e0e0e0"/>
      <path id="Path_2306" data-name="Path 2306" d="M611.323,453.674V448.7c0-3.217,0-7.839-.116-13.678l.217.217-70.491.145.362-.362h0v18.619l-.348-.348,50.235.159,14.823.1h.174l-14.75.1-50.481.159H540.6V434.852h0l.362-.362,70.491.145h.217v.217c0,5.883-.087,10.563-.116,13.808v4.55A.646.646,0,0,1,611.323,453.674Z" transform="translate(186.837 148.544)" fill="#e0e0e0"/>
      <path id="Path_2307" data-name="Path 2307" d="M416.272,64.011v-4.97c0-3.217,0-7.853-.116-13.678l.217.217-70.491.13.362-.348h0V64.011l-.348-.348,50.234.159,14.823.087h5.071a1.841,1.841,0,0,1,.362,0h-5.26l-14.75.1L345.9,64.17h-.348V45.392h0l.362-.362,70.491.145h.217v.217c0,5.883-.087,10.563-.116,13.808v4.535A1.235,1.235,0,0,1,416.272,64.011Z" transform="translate(99.272 -26.297)" fill="#e0e0e0"/>
      <path id="Path_2308" data-name="Path 2308" d="M414.178,51.167a2.04,2.04,0,0,1,0-.362c0-.261,0-.594,0-.985V46.082c0-3.275-.087-7.882-.145-13.562l.261.246-42.352.1.348-.348h0V51.138l-.333-.348,30.3.159,8.824.1h3.231a4.753,4.753,0,0,1-.768,0h-2.318l-8.694.087L372,51.3h-.348V32.549h0c-.087,0,.681-.681.362-.362l42.352.1h.261v.261c0,5.8-.116,10.4-.145,13.721v3.68C414.483,50.863,414.178,51.182,414.178,51.167Z" transform="translate(110.987 -32.101)" fill="#e0e0e0"/>
      <path id="Path_2309" data-name="Path 2309" d="M109.272,370.893a3,3,0,0,1,0-.333v-4.622c0-3.217,0-7.853-.116-13.692l.217.217-70.491.145.362-.362h0v18.633l-.348-.348,50.234.159,14.823.1h.174l-14.75.1-50.481.159H38.55V352.259h0c.724-.71.2-.188.362-.348l70.491.13h.217v.217c0,5.9-.087,10.563-.116,13.823v4.535C109.287,370.893,109.287,370.893,109.272,370.893Z" transform="translate(-38.55 111.455)" fill="#e0e0e0"/>
      <path id="Path_2310" data-name="Path 2310" d="M107.176,358.089a1.768,1.768,0,0,1,0-.348v-4.723c0-3.275-.087-7.9-.145-13.577l.261.261-42.352.1c-.319.319.435-.435.348-.362h0v18.633l-.333-.333,30.3.159,8.824.1h3.231a4.751,4.751,0,0,1-.768,0H104.22l-8.694.1L65,358.263H64.65V339.282h0l.362-.362,42.164.261h.261v.261c0,5.8-.116,10.418-.145,13.721v3.695A3.947,3.947,0,0,1,107.176,358.089Z" transform="translate(-26.833 105.639)" fill="#e0e0e0"/>
      <path id="Path_2311" data-name="Path 2311" d="M262.481,265.143a1.452,1.452,0,0,1,0-.333v-4.622c0-3.231-.072-7.853-.116-13.692l.217.217-70.491.145c.159-.159-.362.362.348-.362h0v18.619l-.348-.348,50.234.159,14.823.1h.159l-14.736.087-50.481.159h-.362V246.292h0l.362-.362,70.491.145h.217v.217c0,5.9-.087,10.563-.116,13.823v4.535a1.783,1.783,0,0,1-.2.493Z" transform="translate(30.217 63.893)" fill="#e0e0e0"/>
      <path id="Path_2312" data-name="Path 2312" d="M260.35,252.288a.983.983,0,0,1,0-.348v-1l-.072-3.738c0-3.26,0-7.882-.13-13.562l.261.261-42.367.1.362-.362h0v18.633l-.348-.333,30.3.159,8.838.087h3.231a5.344,5.344,0,0,1-.782,0h-2.3l-8.694.1-30.529.159h-.333V233.467h0c0,.072.7-.681.362-.362l42.367.1h.261v.261c0,5.8-.1,10.418-.13,13.721,0,1.55,0,2.782-.072,3.68A6.612,6.612,0,0,1,260.35,252.288Z" transform="translate(41.912 58.1)" fill="#e0e0e0"/>
    </g>
    <g id="freepik--Floor--inject-2" transform="translate(27.66 636.879)">
      <path id="Path_2313" data-name="Path 2313" d="M980.2,469.007c0,.2-206.545.377-461.253.377s-461.311-.217-461.311-.377,206.5-.377,461.311-.377S980.2,468.8,980.2,469.007Z" transform="translate(-57.64 -468.63)" fill="#263238"/>
    </g>
    <g id="freepik--Tab--inject-2" transform="translate(605.089 141.315)">
      <rect id="Rectangle_18564" data-name="Rectangle 18564" width="328.922" height="422.132" transform="translate(0.304 0.42)" fill="#fff"/>
      <path id="Path_2314" data-name="Path 2314" d="M785.387,549.148c0-2.97-.145-171.582-.348-422.117l.348.333H456.479l.377-.377V549.1l-.319-.3,328.908.3-328.908.319h-.3V549.1c0-120.145,0-265.531-.072-422.117v-.377H785.821v.348C785.517,377.565,785.387,546.177,785.387,549.148Z" transform="translate(-456.16 -126.61)" fill="#263238"/>
      <rect id="Rectangle_18565" data-name="Rectangle 18565" width="264.213" height="45.641" rx="1.45" transform="translate(33.166 161.469)" fill="#ebebeb"/>
      <rect id="Rectangle_18566" data-name="Rectangle 18566" width="264.213" height="45.641" rx="1.45" transform="translate(33.427 224.15)" fill="#ebebeb"/>
      <path id="Path_2315" data-name="Path 2315" d="M501.6,253.14c0,2.289-1.666,3.68-4.347,3.68h-2.608v3.188H493.2V249.46h4.115C499.894,249.431,501.6,250.822,501.6,253.14Zm-1.449,0c0-1.449-1.014-2.376-2.9-2.376h-2.565V255.5h2.565c1.782-.029,2.8-.913,2.8-2.362Z" transform="translate(-439.532 -71.459)" fill="#263238"/>
      <path id="Path_2316" data-name="Path 2316" d="M506.807,254.387v4.825H505.43v-1.043a2.97,2.97,0,0,1-2.623,1.159c-1.811,0-2.9-.971-2.9-2.362s.826-2.333,3.217-2.333h2.289v-.29c0-1.217-.71-1.927-2.144-1.927a4.086,4.086,0,0,0-2.536.855l-.594-1.087a5.361,5.361,0,0,1,3.289-1.014C505.561,251.156,506.807,252.2,506.807,254.387Zm-1.449,2.391v-1.116h-2.231c-1.449,0-1.84.551-1.84,1.232s.667,1.29,1.768,1.29a2.333,2.333,0,0,0,2.3-1.463Z" transform="translate(-436.519 -70.692)" fill="#263238"/>
      <path id="Path_2317" data-name="Path 2317" d="M505.82,258.376l.594-1.145a5.185,5.185,0,0,0,2.811.826c1.347,0,1.9-.406,1.9-1.087,0-1.8-5.042-.232-5.042-3.419,0-1.449,1.275-2.391,3.332-2.391a5.694,5.694,0,0,1,2.9.724l-.609,1.145a4.1,4.1,0,0,0-2.318-.638c-1.261,0-1.884.464-1.884,1.1,0,1.884,5.071.348,5.071,3.448,0,1.449-1.319,2.376-3.448,2.376A5.8,5.8,0,0,1,505.82,258.376Z" transform="translate(-433.866 -70.696)" fill="#263238"/>
      <path id="Path_2318" data-name="Path 2318" d="M511,258.376l.609-1.145a5.1,5.1,0,0,0,2.8.826c1.347,0,1.9-.406,1.9-1.087,0-1.8-5.042-.232-5.042-3.42,0-1.449,1.275-2.391,3.332-2.391a5.8,5.8,0,0,1,2.9.724l-.623,1.145a4.086,4.086,0,0,0-2.3-.638c-1.275,0-1.9.464-1.9,1.1,0,1.884,5.071.348,5.071,3.448,0,1.449-1.318,2.376-3.448,2.376a5.8,5.8,0,0,1-3.289-.942Z" transform="translate(-431.541 -70.696)" fill="#263238"/>
      <path id="Path_2319" data-name="Path 2319" d="M529.3,251.21l-2.985,7.984h-1.449l-2.3-6.056-2.217,6.056H518.9L516,251.21h1.376l2.318,6.361,2.405-6.361h1.145l2.362,6.39,2.376-6.39Z" transform="translate(-429.296 -70.673)" fill="#263238"/>
      <path id="Path_2320" data-name="Path 2320" d="M525.521,255.311a4.158,4.158,0,1,1,4.158,4.086,3.97,3.97,0,0,1-4.158-4.086Zm6.839,0a2.7,2.7,0,1,0-2.681,2.811,2.622,2.622,0,0,0,2.68-2.811Z" transform="translate(-425.023 -70.732)" fill="#263238"/>
      <path id="Path_2321" data-name="Path 2321" d="M536.933,251.163v1.449H536.6a2.391,2.391,0,0,0-2.521,2.71v3.97H532.63v-7.984h1.449v1.333A3.057,3.057,0,0,1,536.933,251.163Z" transform="translate(-421.83 -70.698)" fill="#263238"/>
      <path id="Path_2322" data-name="Path 2322" d="M544.537,249v11.186h-1.449v-1.261a3.419,3.419,0,0,1-2.9,1.362,4.086,4.086,0,0,1,0-8.157,3.419,3.419,0,0,1,2.9,1.217V249Zm-1.449,7.245a2.695,2.695,0,1,0-2.7,2.811,2.637,2.637,0,0,0,2.7-2.811Z" transform="translate(-420.161 -71.665)" fill="#263238"/>
      <path id="Path_2323" data-name="Path 2323" d="M492.5,300.057a5.332,5.332,0,0,1,5.593-5.4,5.188,5.188,0,0,1,4,1.652l-.971.942a3.926,3.926,0,0,0-2.97-1.246,4.057,4.057,0,1,0,0,8.114,3.9,3.9,0,0,0,2.97-1.275l.971.956a5.2,5.2,0,0,1-4.014,1.652,5.332,5.332,0,0,1-5.578-5.39Z" transform="translate(-439.846 -51.173)" fill="#263238"/>
      <path id="Path_2324" data-name="Path 2324" d="M499.721,300.571a4.158,4.158,0,1,1,4.173,4.086,3.985,3.985,0,0,1-4.173-4.086Zm6.854,0a2.7,2.7,0,1,0-2.7,2.7,2.7,2.7,0,0,0,2.7-2.7Z" transform="translate(-436.605 -50.413)" fill="#263238"/>
      <path id="Path_2325" data-name="Path 2325" d="M514.418,299.939V304.5h-1.449v-4.347c0-1.565-.782-2.333-2.144-2.333a2.362,2.362,0,0,0-2.536,2.652V304.5H506.84v-7.984h1.449v1.2a3.419,3.419,0,0,1,2.9-1.29,3.1,3.1,0,0,1,3.231,3.506Z" transform="translate(-433.408 -50.375)" fill="#263238"/>
      <path id="Path_2326" data-name="Path 2326" d="M517.129,294.285a2.652,2.652,0,0,1,1.623.464l-.435,1.1a1.855,1.855,0,0,0-1.116-.377c-.855,0-1.289.478-1.289,1.449v.7h2.318v1.188h-2.289v6.723h-1.449v-6.8H513.13v-1.188h1.362v-.71a2.391,2.391,0,0,1,2.637-2.55Zm3.42.811a.956.956,0,0,1,.985-.956.942.942,0,1,1-.985.956Zm.261,2.478h1.449v7.955h-1.449Z" transform="translate(-430.584 -51.401)" fill="#263238"/>
      <path id="Path_2327" data-name="Path 2327" d="M525.619,296.456V297.9h-.333a2.376,2.376,0,0,0-2.507,2.695v3.9H521.33v-7.984h1.377v1.333A3.072,3.072,0,0,1,525.619,296.456Z" transform="translate(-426.903 -50.369)" fill="#263238"/>
      <path id="Path_2328" data-name="Path 2328" d="M538.792,299.94V304.5h-1.449v-4.347c0-1.565-.753-2.333-2.072-2.333a2.375,2.375,0,0,0-2.391,2.652V304.5h-1.449v-4.347c0-1.565-.754-2.333-2.072-2.333a2.374,2.374,0,0,0-2.391,2.652V304.5H525.52V296.52h1.449v1.188a3.2,3.2,0,0,1,2.753-1.275,2.9,2.9,0,0,1,2.767,1.449,3.637,3.637,0,0,1,3.086-1.449,3.072,3.072,0,0,1,3.217,3.507Z" transform="translate(-425.022 -50.376)" fill="#263238"/>
      <path id="Path_2329" data-name="Path 2329" d="M547.944,298.429c0,2.289-1.666,3.666-4.347,3.666h-2.608v3.173H539.54V294.72h4.115C546.278,294.749,547.944,296.126,547.944,298.429Zm-1.521,0c0-1.449-1-2.376-2.9-2.376h-2.594v4.738H543.5c1.927,0,2.927-.855,2.927-2.362Z" transform="translate(-418.728 -51.14)" fill="#263238"/>
      <path id="Path_2330" data-name="Path 2330" d="M553.133,299.705v4.8h-1.362v-1.058a2.984,2.984,0,0,1-2.623,1.145c-1.811,0-2.9-.956-2.9-2.347s.826-2.333,3.2-2.333h2.231v-.29c0-1.217-.7-1.927-2.13-1.927a4.085,4.085,0,0,0-2.536.855l-.609-1.087a5.346,5.346,0,0,1,3.3-1.029C551.944,296.46,553.133,297.517,553.133,299.705Zm-1.449,2.376v-1.116h-2.231c-1.449,0-1.826.565-1.826,1.246s.652,1.29,1.753,1.29a2.289,2.289,0,0,0,2.3-1.42Z" transform="translate(-415.716 -50.373)" fill="#263238"/>
      <path id="Path_2331" data-name="Path 2331" d="M552.19,303.68l.594-1.145a5.187,5.187,0,0,0,2.811.826c1.333,0,1.9-.406,1.9-1.087,0-1.8-5.057-.246-5.057-3.419,0-1.449,1.29-2.405,3.333-2.405a5.794,5.794,0,0,1,2.9.725l-.623,1.145a4.187,4.187,0,0,0-2.3-.623c-1.261,0-1.884.464-1.884,1.1,0,1.884,5.071.348,5.071,3.448,0,1.449-1.333,2.362-3.463,2.362A5.8,5.8,0,0,1,552.19,303.68Z" transform="translate(-413.049 -50.364)" fill="#263238"/>
      <path id="Path_2332" data-name="Path 2332" d="M557.4,303.68l.594-1.145a5.187,5.187,0,0,0,2.811.826c1.333,0,1.9-.406,1.9-1.087,0-1.8-5.057-.246-5.057-3.419,0-1.449,1.29-2.405,3.332-2.405a5.8,5.8,0,0,1,2.9.725l-.623,1.145a4.187,4.187,0,0,0-2.3-.623c-1.261,0-1.884.464-1.884,1.1,0,1.884,5.071.348,5.071,3.448,0,1.449-1.333,2.362-3.463,2.362a5.8,5.8,0,0,1-3.275-.927Z" transform="translate(-410.71 -50.364)" fill="#263238"/>
      <path id="Path_2333" data-name="Path 2333" d="M575.694,296.519l-2.985,7.955H571.26l-2.3-6.057-2.289,6.057h-1.449l-2.9-7.984h1.362l2.333,6.361,2.405-6.361h1.217l2.376,6.39,2.376-6.39Z" transform="translate(-408.501 -50.345)" fill="#263238"/>
      <path id="Path_2334" data-name="Path 2334" d="M571.891,300.571a4.158,4.158,0,1,1,4.158,4.086,3.97,3.97,0,0,1-4.158-4.086Zm6.839,0a2.695,2.695,0,1,0-2.7,2.7,2.7,2.7,0,0,0,2.7-2.7Z" transform="translate(-404.206 -50.413)" fill="#263238"/>
      <path id="Path_2335" data-name="Path 2335" d="M583.333,296.454V297.9H583a2.376,2.376,0,0,0-2.521,2.695v3.9H579.03v-7.984h1.449v1.333a3.057,3.057,0,0,1,2.854-1.391Z" transform="translate(-401 -50.367)" fill="#263238"/>
      <path id="Path_2336" data-name="Path 2336" d="M590.878,294.3v11.157h-1.449V304.2a3.361,3.361,0,0,1-2.9,1.347,4.086,4.086,0,0,1,0-8.158,3.347,3.347,0,0,1,2.782,1.29v-4.347Zm-1.449,7.245a2.695,2.695,0,1,0-2.68,2.825,2.622,2.622,0,0,0,2.695-2.883Z" transform="translate(-399.358 -51.329)" fill="#263238"/>
      <rect id="Rectangle_18567" data-name="Rectangle 18567" width="264.198" height="45.641" rx="1.45" transform="translate(31.891 294.829)" fill="#56878b"/>
      <path id="Path_2337" data-name="Path 2337" d="M546.79,347.78a5.448,5.448,0,0,1,5.8-5.477,5.564,5.564,0,0,1,4.535,1.985l-1.9,1.724a3.1,3.1,0,0,0-2.492-1.246,3.028,3.028,0,0,0,0,6.042,3.144,3.144,0,0,0,2.492-1.246l1.9,1.724a5.607,5.607,0,0,1-4.535,1.985,5.448,5.448,0,0,1-5.8-5.491Z" transform="translate(-415.474 -29.783)" fill="#fff"/>
      <path id="Path_2338" data-name="Path 2338" d="M563.466,348.52v4.68h-2.9v-4.216c0-1.174-.522-1.666-1.348-1.666s-1.623.565-1.623,1.927V353.2h-2.9V342h2.9v3.782a3.492,3.492,0,0,1,2.449-.9,3.2,3.2,0,0,1,3.419,3.637Z" transform="translate(-411.922 -29.915)" fill="#fff"/>
      <path id="Path_2339" data-name="Path 2339" d="M569.8,347.758v4.55h-2.666V351.25a2.492,2.492,0,0,1-2.42,1.188c-1.956,0-3.043-1.1-3.043-2.521s1.1-2.434,3.637-2.434h1.623c0-.84-.609-1.3-1.739-1.3a3.853,3.853,0,0,0-2.217.71l-.956-1.942a6.8,6.8,0,0,1,3.608-.956C568.277,344,569.8,345.164,569.8,347.758Zm-2.9,1.927v-.71h-1.232c-.927,0-1.261.319-1.261.826s.406.826,1.072.826a1.449,1.449,0,0,0,1.449-.942Z" transform="translate(-408.793 -29.022)" fill="#fff"/>
      <path id="Path_2340" data-name="Path 2340" d="M577.246,347.631v4.68h-2.9v-4.216c0-1.174-.507-1.666-1.333-1.666s-1.637.565-1.637,1.927v3.956h-2.9v-8.172H571.2v.884a3.507,3.507,0,0,1,2.594-1.029,3.2,3.2,0,0,1,3.448,3.637Z" transform="translate(-405.736 -29.025)" fill="#fff"/>
      <path id="Path_2341" data-name="Path 2341" d="M584.78,344.137v6.68c0,3.086-1.753,4.55-4.8,4.55a7.245,7.245,0,0,1-4.057-1.072l1.043-2a4.781,4.781,0,0,0,2.753.869c1.536,0,2.188-.7,2.188-1.97v-.275a3.028,3.028,0,0,1-2.42.956,3.941,3.941,0,0,1,0-7.882,2.985,2.985,0,0,1,2.565,1.13v-.985Zm-2.9,3.8A1.782,1.782,0,1,0,580.1,349.6a1.652,1.652,0,0,0,1.9-1.666Z" transform="translate(-402.562 -29.024)" fill="#fff"/>
      <path id="Path_2342" data-name="Path 2342" d="M591.672,348.948h-5.94a1.9,1.9,0,0,0,2.014,1.3,2.651,2.651,0,0,0,1.884-.71l1.449,1.565a4.346,4.346,0,0,1-3.492,1.333c-2.9,0-4.8-1.8-4.8-4.245a4.231,4.231,0,0,1,4.506-4.2,4.086,4.086,0,0,1,4.347,4.245C591.788,348.441,591.686,348.716,591.672,348.948Zm-5.984-1.521h3.347a1.7,1.7,0,0,0-3.347,0Z" transform="translate(-399.312 -29.024)" fill="#fff"/>
      <path id="Path_2343" data-name="Path 2343" d="M554.5,196.945h-2.42V201.1H547.65V185.44h7.158c4.274,0,6.969,2.217,6.969,5.8a5.2,5.2,0,0,1-3.072,4.941l3.376,4.926h-4.738Zm0-8.013H552.04V193.5H554.5c1.826,0,2.753-.84,2.753-2.275s-.884-2.289-2.709-2.289Z" transform="translate(-415.087 -100.199)" fill="#263238"/>
      <path id="Path_2344" data-name="Path 2344" d="M571.526,195.09h-8.809a2.782,2.782,0,0,0,2.9,1.942,3.854,3.854,0,0,0,2.8-1.058l2.231,2.333a6.52,6.52,0,0,1-5.158,1.971c-4.347,0-7.114-2.666-7.114-6.288a6.259,6.259,0,0,1,6.665-6.245,6.085,6.085,0,0,1,6.491,6.288A3.7,3.7,0,0,1,571.526,195.09Zm-8.882-2.246h4.97a2.521,2.521,0,0,0-4.97,0Z" transform="translate(-410.275 -99.171)" fill="#263238"/>
      <path id="Path_2345" data-name="Path 2345" d="M568.19,199.013l1.275-2.9a8.694,8.694,0,0,0,4.231,1.116c1.449,0,1.9-.319,1.9-.826,0-1.637-7.158.217-7.158-4.637,0-2.275,2.1-4.028,5.912-4.028a10.678,10.678,0,0,1,4.781,1.029l-1.275,2.9a7.1,7.1,0,0,0-3.492-.884c-1.449,0-1.942.391-1.942.84,0,1.681,7.143-.13,7.143,4.68,0,2.231-2.057,3.985-6,3.985A11.157,11.157,0,0,1,568.19,199.013Z" transform="translate(-405.866 -99.167)" fill="#263238"/>
      <path id="Path_2346" data-name="Path 2346" d="M589.886,195.09h-8.809a2.8,2.8,0,0,0,2.9,1.942,3.854,3.854,0,0,0,2.8-1.058l2.246,2.333a6.564,6.564,0,0,1-5.173,1.97c-4.347,0-7.114-2.666-7.114-6.288a6.259,6.259,0,0,1,6.665-6.245,6.086,6.086,0,0,1,6.491,6.288A3.687,3.687,0,0,1,589.886,195.09ZM581,192.845h4.97a2.376,2.376,0,0,0-2.478-2.072A2.42,2.42,0,0,0,581,192.845Z" transform="translate(-402.032 -99.171)" fill="#263238"/>
      <path id="Path_2347" data-name="Path 2347" d="M595.972,200.359a5.709,5.709,0,0,1-2.9.7c-3.115,0-4.926-1.449-4.926-4.637v-4.072H586.38v-3.173h1.768V186h4.245v3.159h2.782v3.173h-2.782v4.028a1.232,1.232,0,0,0,1.275,1.449,2.333,2.333,0,0,0,1.3-.377Z" transform="translate(-397.7 -99.948)" fill="#263238"/>
      <path id="Path_2348" data-name="Path 2348" d="M519.123,212.821v5.622H514.69v-5.694l-5.97-9.969h4.666L517.109,209l3.709-6.216h4.347Z" transform="translate(-432.564 -92.415)" fill="#263238"/>
      <path id="Path_2349" data-name="Path 2349" d="M519.22,211.325c0-3.651,2.9-6.245,6.839-6.245s6.853,2.594,6.853,6.245-2.9,6.288-6.853,6.288S519.22,214.991,519.22,211.325Zm9.389,0a2.565,2.565,0,1,0-1.19,2.446A2.565,2.565,0,0,0,528.609,211.325Z" transform="translate(-427.85 -91.382)" fill="#263238"/>
      <path id="Path_2350" data-name="Path 2350" d="M542.812,205.238v12.128h-4.1v-1.3a4.781,4.781,0,0,1-3.608,1.449c-2.9,0-5.144-1.71-5.144-5.549V205.18h4.245v6.086c0,1.884.739,2.608,2.014,2.608s2.289-.826,2.289-2.9v-5.8Z" transform="translate(-423.029 -91.337)" fill="#263238"/>
      <path id="Path_2351" data-name="Path 2351" d="M548.83,205.084v3.825a8.071,8.071,0,0,0-.956-.072,2.652,2.652,0,0,0-2.9,3v5.578H540.73V205.287h4.042v1.449a4.956,4.956,0,0,1,4.057-1.652Z" transform="translate(-418.194 -91.386)" fill="#263238"/>
      <path id="Path_2352" data-name="Path 2352" d="M566.317,208.576c0,3.55-2.7,5.8-6.969,5.8h-2.724v4.1H552.19V202.78h7.158C563.622,202.78,566.317,205,566.317,208.576Zm-4.477,0c0-1.449-.927-2.3-2.753-2.3h-2.463v4.579h2.536C560.913,210.851,561.84,210.01,561.84,208.576Z" transform="translate(-413.049 -92.415)" fill="#263238"/>
      <path id="Path_2353" data-name="Path 2353" d="M574.79,210.691v6.738h-3.956v-1.565a3.709,3.709,0,0,1-3.593,1.768c-2.9,0-4.521-1.637-4.521-3.738s1.637-3.622,5.4-3.622h2.405c0-1.232-.884-1.927-2.565-1.927a5.7,5.7,0,0,0-3.289,1.043l-1.449-2.9a10.244,10.244,0,0,1,5.347-1.449C572.529,205.1,574.79,206.837,574.79,210.691Zm-4.26,2.9v-1.058H568.7c-1.362,0-1.855.493-1.855,1.232s.58,1.232,1.579,1.232a2.086,2.086,0,0,0,2.1-1.463Z" transform="translate(-408.322 -91.4)" fill="#263238"/>
      <path id="Path_2354" data-name="Path 2354" d="M572.24,216.349l1.275-2.9a8.49,8.49,0,0,0,4.231,1.13c1.449,0,1.9-.319,1.9-.826,0-1.637-7.158.217-7.158-4.637,0-2.289,2.1-4.028,5.9-4.028a10.693,10.693,0,0,1,4.8,1.029l-1.275,2.9a7.159,7.159,0,0,0-3.492-.9c-1.449,0-1.942.406-1.942.855,0,1.681,7.129-.13,7.129,4.68,0,2.231-2.057,3.985-6,3.985a11.084,11.084,0,0,1-5.361-1.29Z" transform="translate(-404.048 -91.379)" fill="#263238"/>
      <path id="Path_2355" data-name="Path 2355" d="M580.69,216.349l1.275-2.9a8.476,8.476,0,0,0,4.216,1.13c1.449,0,1.913-.319,1.913-.826,0-1.637-7.158.217-7.158-4.637,0-2.289,2.1-4.028,5.9-4.028a10.737,10.737,0,0,1,4.8,1.029l-1.275,2.9a7.245,7.245,0,0,0-3.492-.9c-1.449,0-1.956.406-1.956.855,0,1.681,7.143-.13,7.143,4.68,0,2.231-2.057,3.985-6,3.985a11.056,11.056,0,0,1-5.361-1.29Z" transform="translate(-400.255 -91.378)" fill="#263238"/>
      <path id="Path_2356" data-name="Path 2356" d="M610.186,205.234l-4.347,12.128h-4.115l-2.26-6.651-2.362,6.607h-4.115L588.64,205.19h4.028l2.478,7.332,2.565-7.332h3.637l2.507,7.4,2.565-7.4Z" transform="translate(-396.686 -91.333)" fill="#263238"/>
      <path id="Path_2357" data-name="Path 2357" d="M603.65,211.325c0-3.651,2.9-6.245,6.853-6.245s6.839,2.594,6.839,6.245-2.9,6.288-6.839,6.288S603.65,214.991,603.65,211.325Zm9.4,0a2.55,2.55,0,1,0-.612,2.033,2.564,2.564,0,0,0,.612-2.033Z" transform="translate(-389.947 -91.382)" fill="#263238"/>
      <path id="Path_2358" data-name="Path 2358" d="M622.588,205.085v3.825a8.1,8.1,0,0,0-.971-.072,2.637,2.637,0,0,0-2.9,3v5.578h-4.26V205.287h4.057v1.449a4.926,4.926,0,0,1,4.071-1.652Z" transform="translate(-385.094 -91.387)" fill="#263238"/>
      <path id="Path_2359" data-name="Path 2359" d="M634.3,202.13v16.6h-4.043v-1.217a4.347,4.347,0,0,1-3.564,1.449,6.274,6.274,0,0,1,0-12.533,4.477,4.477,0,0,1,3.362,1.246v-5.52Zm-4.187,10.519a2.565,2.565,0,1,0-2.521,2.9,2.536,2.536,0,0,0,2.521-2.9Z" transform="translate(-382.285 -92.707)" fill="#263238"/>
    </g>
    <g id="freepik--Padlock--inject-2" transform="translate(709.532 48.495)">
      <path id="Path_2360" data-name="Path 2360" d="M623.771,171.626l-11.447-2.376,14.489-69.708a15.287,15.287,0,0,0-2.26-10.49c-18.242-25.255-47.916-15-52.466,6.824l-13.04,62.3L547.6,155.789l14.62-70.157a24.964,24.964,0,0,1,12.939-17.083c36.861-19,67.8,10.534,61.493,40.8Z" transform="translate(-519.553 -62.549)" fill="#e0e0e0"/>
      <path id="Path_2361" data-name="Path 2361" d="M623.752,171.623s.072-.435.246-1.246.406-2.043.724-3.622l2.9-13.866c1.246-6.013,2.753-13.359,4.506-21.893l2.9-13.649c.9-4.839,2.391-9.911,2.449-15.388a37.784,37.784,0,0,0-3.565-16.6c-.319-.667-.623-1.362-.956-2.029l-1.159-1.956a38.856,38.856,0,0,0-2.593-3.782c-.464-.638-1.014-1.188-1.521-1.782a16.263,16.263,0,0,0-1.594-1.724,35.427,35.427,0,0,0-3.593-3.13,38.828,38.828,0,0,0-8.375-5l-2.333-.869-1.319-.435-1.217-.319-2.449-.638c-.84-.188-1.681-.275-2.521-.42a38.422,38.422,0,0,0-42.367,26.762c-1.058,3.695-1.739,7.563-2.565,11.418-3.217,15.46-6.564,31.471-9.969,47.815-.464,2.188-.913,4.347-1.362,6.535l-.217-.333,11.447,2.391-.319.217c2.579-12.388,5.115-24.516,7.563-36.223q1.84-8.824,3.637-17.387l1.768-8.491a30.426,30.426,0,0,1,3.014-8.027,27.689,27.689,0,0,1,12.055-11.186c.623-.275,1.217-.609,1.869-.826l1.913-.667a28.719,28.719,0,0,1,3.912-.884,28.189,28.189,0,0,1,3.97-.319,14.95,14.95,0,0,1,1.971.087h.971l.971.159a27.226,27.226,0,0,1,7.389,2.1,29.167,29.167,0,0,1,6.332,3.97,27.675,27.675,0,0,1,8.158,11.693,26.242,26.242,0,0,1,1.347,13.33l-.261,1.608c-.1.522-.217,1.043-.319,1.565l-.652,3.1c-.435,2.043-.855,4.042-1.26,6.013-1.652,7.853-3.173,15.083-4.535,21.589-2.753,13.04-4.9,23.183-6.317,29.978l-.073-.1,8.694,1.84,2.116.464.7.159-.681-.13-2.1-.406-8.694-1.768h0v-.087l6.172-29.993c1.347-6.52,2.9-13.75,4.477-21.618.406-1.956.826-3.97,1.246-6.013.2-1.014.42-2.058.638-3.086.116-.522.217-1.043.333-1.579s.159-1.058.246-1.579a25.85,25.85,0,0,0-1.348-13.127,27.21,27.21,0,0,0-8.056-11.49,28.761,28.761,0,0,0-6.26-3.9,27.3,27.3,0,0,0-7.245-2.057l-.956-.145h-.971a14.253,14.253,0,0,0-1.927,0,27.834,27.834,0,0,0-7.737,1.188l-1.884.667a17.084,17.084,0,0,0-1.826.811,27.038,27.038,0,0,0-11.823,11,29.085,29.085,0,0,0-2.9,7.868q-.869,4.216-1.768,8.491-1.782,8.563-3.622,17.387l-7.549,36.223v.275h-.275L547.9,156.163h-.261v-.275c.449-2.159.9-4.347,1.362-6.535,3.419-16.387,6.752-32.4,9.983-47.815.826-3.869,1.449-7.708,2.579-11.476a41.768,41.768,0,0,1,5-10.4,39.082,39.082,0,0,1,38.02-16.677c.855.145,1.71.246,2.55.42l2.9.753,1.55.493,2.318.869,1.072.449a38.949,38.949,0,0,1,7.955,4.825,39.985,39.985,0,0,1,3.622,3.173q.686.746,1.3,1.55c.507.609,1.072,1.159,1.521,1.8a39.231,39.231,0,0,1,2.637,3.84l1.159,1.971c.348.681.637,1.449.971,2.057a38.149,38.149,0,0,1,3.55,16.793c0,5.535-1.579,10.621-2.492,15.475s-1.985,9.418-2.9,13.692c-1.8,8.534-3.362,15.938-4.622,21.893s-2.26,10.65-2.9,13.808l-.768,3.579C623.854,171.232,623.752,171.623,623.752,171.623Z" transform="translate(-519.535 -62.546)" fill="#263238"/>
      <path id="Path_2362" data-name="Path 2362" d="M0,0H104.454a5.419,5.419,0,0,1,5.419,5.419v79.2a4.926,4.926,0,0,1-4.926,4.926H0V0Z" transform="translate(23.105 49.838) rotate(11.77)" fill="#455a64"/>
      <g id="Group_75754" data-name="Group 75754" transform="translate(4.893 49.92)" opacity="0.3">
        <path id="Path_2363" data-name="Path 2363" d="M0,0H103.9a5.97,5.97,0,0,1,5.97,5.97v78.1a5.477,5.477,0,0,1-5.477,5.477H0V0Z" transform="translate(18.265 0) rotate(11.77)"/>
      </g>
      <path id="Path_2364" data-name="Path 2364" d="M5.825,0H95.919A5.883,5.883,0,0,1,101.8,5.883v76.46a7.245,7.245,0,0,1-7.245,7.245H6.086A6.085,6.085,0,0,1,0,83.5V5.883A5.883,5.883,0,0,1,5.825,0Z" transform="translate(18.274 48.834) rotate(11.77)" fill="#455a64"/>
      <g id="Group_75755" data-name="Group 75755" transform="translate(44.898 83.217)" opacity="0.3">
        <path id="Path_2365" data-name="Path 2365" d="M588.759,135.019A12.5,12.5,0,0,0,578.7,120.153a12.664,12.664,0,0,0-14.4,9.664,12.476,12.476,0,0,0,6.448,13.678L559.23,158.723l21.024,4.781-2.9-18.619A12.461,12.461,0,0,0,588.759,135.019Z" transform="translate(-559.23 -119.983)"/>
      </g>
      <path id="Path_2366" data-name="Path 2366" d="M598.292,186.559c-.145,0,2.985-15.3,6.984-34.108s7.375-34.05,7.52-34.021-2.985,15.315-6.984,34.151S598.437,186.588,598.292,186.559Z" transform="translate(-496.798 -37.462)" fill="#263238"/>
      <path id="Path_2367" data-name="Path 2367" d="M612.01,112.769c0,.145-13.518-2.362-30.123-5.593s-30.065-5.97-30.036-6.114,13.518,2.347,30.138,5.578S612.039,112.566,612.01,112.769Z" transform="translate(-517.645 -45.262)" fill="#fff"/>
      <path id="Path_2368" data-name="Path 2368" d="M561.766,136.973a4.184,4.184,0,0,1-.348-.869,11.257,11.257,0,0,1-.464-2.507,14.183,14.183,0,0,1,1.811-8.157,14.329,14.329,0,0,1,6.129-5.68,12.847,12.847,0,0,1,2.405-.869,2.9,2.9,0,0,1,.927-.13c0,.1-1.29.362-3.159,1.348a14.489,14.489,0,0,0-7.723,13.461C561.418,135.684,561.867,136.944,561.766,136.973Z" transform="translate(-513.579 -37.314)" fill="#fff"/>
      <path id="Path_2369" data-name="Path 2369" d="M564.794,136.768c-.1.116-.768-.333-1.449-1s-1.2-1.29-1.1-1.449.768.348,1.449,1A4.084,4.084,0,0,1,564.794,136.768Z" transform="translate(-512.985 -30.342)" fill="#fff"/>
      <path id="Path_2370" data-name="Path 2370" d="M597.265,64.905s-.754,0-2.115-.145a36.3,36.3,0,0,0-5.8.1,33.615,33.615,0,0,0-28.529,21.893,36.208,36.208,0,0,0-1.579,5.535c-.261,1.333-.377,2.086-.42,2.086a2.32,2.32,0,0,1,0-.551,5.534,5.534,0,0,1,.188-1.579,31.531,31.531,0,0,1,1.449-5.622A33.166,33.166,0,0,1,589.354,64.47a30.428,30.428,0,0,1,5.8.087,9.383,9.383,0,0,1,1.565.217,1.985,1.985,0,0,1,.55.13Z" transform="translate(-514.521 -61.73)" fill="#fff"/>
      <path id="Path_2371" data-name="Path 2371" d="M557.152,93.511a9.894,9.894,0,0,1,.435-3.246,9.873,9.873,0,0,1,.956-3.115,9.6,9.6,0,0,1-.42,3.231,9.671,9.671,0,0,1-.971,3.13Z" transform="translate(-515.267 -51.505)" fill="#fff"/>
    </g>
    <g id="freepik--Characters--inject-2" transform="translate(5.593 0)">
      <path id="Path_2372" data-name="Path 2372" d="M68.487,413.6,42.45,448.954l43.845,32.63c2.9-4.347-13.577-29.674-13.577-29.674l17.619-21.966Z" transform="translate(-42.392 143.544)" fill="#455a64"/>
      <path id="Path_2373" data-name="Path 2373" d="M55.9,431.822a2.217,2.217,0,0,0-2.753,1.116,2.159,2.159,0,0,0,1.087,2.753,2.347,2.347,0,0,0,2.9-1.2,2.231,2.231,0,0,0-1.449-2.739" transform="translate(-37.659 151.664)" fill="#fff"/>
      <path id="Path_2374" data-name="Path 2374" d="M42.41,439.236l2.767-3.8,40.961,32.978s1.3,2.318,0,3.521Z" transform="translate(-42.41 153.348)" fill="#263238"/>
      <path id="Path_2375" data-name="Path 2375" d="M65.8,440.731c-.159.217-1.3-.478-2.9-.58s-2.8.391-2.9.159,1.116-1.232,3-1.087S65.913,440.572,65.8,440.731Z" transform="translate(-34.515 155.041)" fill="#263238"/>
      <path id="Path_2376" data-name="Path 2376" d="M67.786,444.172c-.116.246-1.3-.087-2.71.275s-2.318,1.174-2.536,1,.565-1.449,2.318-1.9S67.931,443.97,67.786,444.172Z" transform="translate(-33.388 156.932)" fill="#263238"/>
      <path id="Path_2377" data-name="Path 2377" d="M65.137,449.9c-.232-.1.275-1.449,1.7-2.159s2.767-.478,2.724-.232-1.13.406-2.275,1.058S65.369,450.026,65.137,449.9Z" transform="translate(-32.231 158.656)" fill="#263238"/>
      <path id="Path_2378" data-name="Path 2378" d="M67.813,437.54c-.246.13-1-.9-2.275-1.71s-2.492-1.145-2.478-1.449,1.449-.362,2.985.623S68.044,437.453,67.813,437.54Z" transform="translate(-33.14 152.785)" fill="#263238"/>
      <path id="Path_2379" data-name="Path 2379" d="M169.822,322.917c.782,4.434,2.028,42.149,2.825,62.043s-1.188,29.674-3.463,34.137-88.066,67.68-94.6,82.821L52.85,484.4s31.877-57.218,45.467-67.622,39.744-19.952,39.744-19.952l-7.433-108.945,35.629-1.942Z" transform="translate(-37.723 86.233)" fill="#263238"/>
      <path id="Path_2380" data-name="Path 2380" d="M78.667,437.73l-.377,43.859,54.639.753c-.246-5.216-28.37-16.1-28.37-16.1l1.449-28.124Z" transform="translate(-26.302 154.376)" fill="#455a64"/>
      <path id="Path_2381" data-name="Path 2381" d="M85.279,455.671a2.231,2.231,0,0,0-1.579,2.521,2.159,2.159,0,0,0,2.492,1.594,2.362,2.362,0,0,0,1.652-2.681,2.217,2.217,0,0,0-2.767-1.362" transform="translate(-23.888 162.415)" fill="#fff"/>
      <path id="Path_2382" data-name="Path 2382" d="M78.28,469.569V464.86l52.524,2.724s2.405,1.116,2.1,2.825Z" transform="translate(-26.307 166.556)" fill="#263238"/>
      <path id="Path_2383" data-name="Path 2383" d="M98.556,457.348c0,.275-1.348.377-2.666,1.217s-2.043,1.941-2.289,1.84.174-1.652,1.8-2.637S98.671,457.1,98.556,457.348Z" transform="translate(-19.458 163.07)" fill="#263238"/>
      <path id="Path_2384" data-name="Path 2384" d="M102.133,459.042c0,.261-1.116.7-2.029,1.811s-1.2,2.318-1.449,2.289-.42-1.521.753-2.9S102.133,458.738,102.133,459.042Z" transform="translate(-17.24 163.883)" fill="#263238"/>
      <path id="Path_2385" data-name="Path 2385" d="M103.245,465.149c-.246,0-.594-1.29.1-2.738s1.971-2.014,2.072-1.8-.667,1-1.232,2.2S103.506,465.12,103.245,465.149Z" transform="translate(-15.237 164.63)" fill="#263238"/>
      <path id="Path_2386" data-name="Path 2386" d="M98.563,453.109c-.116.246-1.333-.145-2.9,0s-2.7.536-2.9.3,1-1.159,2.782-1.232S98.693,452.906,98.563,453.109Z" transform="translate(-19.813 160.862)" fill="#263238"/>
      <path id="Path_2387" data-name="Path 2387" d="M163.737,293.272c0,2.565,4.158,67.491-17.068,114.466,0,0-7.346,14.692-8.694,21.111s-28.8,112.886-28.8,112.886l-31.732-1.159s-5.071-53.335,0-84.212,14.489-27.254,14.489-47.192S87.19,347.9,87.19,347.9,80.264,336.61,77.9,314.716c-1.927-17.778,6.448-36.832,6.448-36.832l8.273-14.649,70-3.666Z" transform="translate(-27.697 74.395)" fill="#263238"/>
      <path id="Path_2388" data-name="Path 2388" d="M163.842,293.34v-2.217c0-1.463-.087-3.637-.145-6.491-.13-5.723-.348-14.156-.609-25.052v-.159h-.174l-70,3.564h-.145l-.087.13c-2.565,4.55-5.39,9.519-8.288,14.649h0a93.764,93.764,0,0,0-5.028,16.083,71.621,71.621,0,0,0-1.753,17.663,109.238,109.238,0,0,0,2.9,18.387,74.722,74.722,0,0,0,6.709,18.213v-.145c1.2,10.809,2.318,22.009,3.26,33.543.464,5.8.869,11.591,1.159,17.547.145,2.9.261,5.941.275,8.94,0,1.449,0,3-.087,4.492a41.7,41.7,0,0,1-.551,4.463,29.327,29.327,0,0,1-3.115,8.491c-1.449,2.71-2.9,5.39-4.347,8.215a77.271,77.271,0,0,0-5.694,17.967c-2.521,12.461-3.028,25.414-3.173,38.469,0,17.228.811,34.151,2.231,50.51v.348h.333l31.732,1.159h.3l.072-.3c9.2-35.658,17.778-68.984,25.342-98.948L137.7,431.77c.478-1.84.782-3.666,1.348-5.4s1.2-3.463,1.869-5.144c1.362-3.362,2.9-6.622,4.347-9.795l1.13-2.362a23.351,23.351,0,0,0,1.072-2.376c.652-1.608,1.3-3.188,1.956-4.767A192.247,192.247,0,0,0,159.437,365.8a314.153,314.153,0,0,0,4.781-53.234c.087-12.49-.42-19.271-.42-19.271v1.246c0,.826,0,2.086.087,3.709.087,3.26.145,8.071,0,14.316a322.325,322.325,0,0,1-4.825,53.19,192.129,192.129,0,0,1-10.143,35.991l-1.942,4.738c-.319.811-.681,1.579-1.072,2.362s-.768,1.579-1.145,2.376c-1.449,3.173-2.985,6.433-4.347,9.809-.681,1.7-1.333,3.419-1.9,5.187s-.9,3.637-1.362,5.434c-.913,3.651-1.826,7.332-2.767,11.084-7.694,29.935-16.257,63.26-25.429,98.919l.377-.275L77.6,540.209l.377.348c-1.449-16.329-2.289-33.239-2.231-50.437.145-13.04.652-25.936,3.159-38.31A77.534,77.534,0,0,1,84.542,434c1.3-2.8,2.9-5.448,4.347-8.2a30.3,30.3,0,0,0,3.072-8.694,40.472,40.472,0,0,0,.565-4.564c0-1.449.145-3.043.087-4.535,0-3.014-.13-6.013-.275-8.983-.29-5.941-.71-11.794-1.188-17.561Q89.7,364.076,87.86,347.892h0V347.8a73.9,73.9,0,0,1-6.738-18,109.462,109.462,0,0,1-2.9-18.257,71.157,71.157,0,0,1,1.71-17.5,95.126,95.126,0,0,1,4.912-15.938h0l8.259-14.663-.232.145,70-3.782-.188-.159c.348,10.882.609,19.314.782,25.038.1,2.9.174,5.013.232,6.491S163.842,293.34,163.842,293.34Z" transform="translate(-27.802 74.327)" fill="#455a64"/>
      <path id="Path_2389" data-name="Path 2389" d="M125.919,191.118s-18.836-3.333-17.083,20.908c1.1,14.489,5.361,39.353,7.723,55.219.811,5.491,2.608,15.315,9.867,21.082l52.017,35.991,16.416-19.633-46.453-44.236-7.245-43.758Z" transform="translate(-12.641 43.595)" fill="#455a64"/>
      <path id="Path_2390" data-name="Path 2390" d="M133.24,130.77a23.85,23.85,0,0,1,8.838,20.169c-.29,3.709-1.319,7.926,1.1,10.751s7.056,2.724,9.346,5.593c2.681,3.39.435,8.433,1.449,12.649a8.578,8.578,0,0,0,9.114,6.361,33.456,33.456,0,0,1-16.576,7.245l-4.752-5.926c1.768,2.086,1.29,5.4-.406,7.534a14.055,14.055,0,0,1-6.839,4.057,42.439,42.439,0,0,1-37.165-6.042" transform="translate(-17.746 16.572)" fill="#263238"/>
      <path id="Path_2391" data-name="Path 2391" d="M74.256,169.839c.927-2.9,2.492-5.462,3.115-8.375,1.333-6.274-1.724-13.345,1.319-19,2.173-4.014,6.781-5.984,11.157-7.332s9.041-2.478,12.3-5.68c2.376-2.347,3.738-5.593,6.114-7.94,3.391-3.362,8.4-4.506,13.156-4.8a28.573,28.573,0,0,1,14.359,2.333,15.677,15.677,0,0,1,8.838,11.055c.377,2.347.087,4.825.84,7.1.811,2.492,2.767,4.434,3.985,6.767a12.577,12.577,0,0,1-3.144,15.069L112.71,202.425c-7.056,2.666-24.154-.551-29.6-5.8S71.923,177.011,74.256,169.839Z" transform="translate(-28.353 10.206)" fill="#263238"/>
      <path id="Path_2392" data-name="Path 2392" d="M138.812,148.248c-1.449-9.853-8.882-21.488-18.662-19.691L89.954,138.7c-2.9.551-.84,5.4-.551,8.4l6.564,68.1s-4.086,2.9-5.535,2.347a.42.42,0,0,0-.493.623c3.666,5.289,20.749,28.283,38.44,21.227,3.941-1.579-.42-14,0-18.59l-.522-11.751c-.391-6-.58-8.462-.58-8.4s12.49-3.072,13.837-19.778C141.8,172.6,140.348,159.188,138.812,148.248Z" transform="translate(-21.753 15.496)" fill="#ffbf9d"/>
      <path id="Path_2393" data-name="Path 2393" d="M123.059,153.1a2.13,2.13,0,0,1-1.884,2.289,2.028,2.028,0,0,1-2.333-1.739,2.13,2.13,0,0,1,1.884-2.289,2.028,2.028,0,0,1,2.333,1.739Z" transform="translate(-8.1 25.803)" fill="#263238"/>
      <path id="Path_2394" data-name="Path 2394" d="M108.854,153.987a2.115,2.115,0,0,1-1.869,2.289,2.043,2.043,0,0,1-2.333-1.739,2.13,2.13,0,0,1,1.884-2.289,2.014,2.014,0,0,1,2.318,1.739Z" transform="translate(-14.471 26.203)" fill="#263238"/>
      <path id="Path_2395" data-name="Path 2395" d="M125.1,148.418c-.232.391-2.2-.855-4.666-.493s-4.043,2.043-4.347,1.739,0-.811.71-1.579a5.636,5.636,0,0,1,7.245-1C124.852,147.65,125.215,148.244,125.1,148.418Z" transform="translate(-9.387 23.498)" fill="#263238"/>
      <path id="Path_2396" data-name="Path 2396" d="M110.038,149.792c-.29.362-2.217-1.043-4.868-.927s-4.535,1.608-4.839,1.275.13-.782.956-1.449a6.389,6.389,0,0,1,7.752-.275C109.864,149.009,110.168,149.618,110.038,149.792Z" transform="translate(-16.451 23.965)" fill="#263238"/>
      <path id="Path_2397" data-name="Path 2397" d="M113.513,165.643a14.4,14.4,0,0,1,3.651-.956c.565-.1,1.116-.261,1.174-.666a2.9,2.9,0,0,0-.522-1.7c-.652-1.362-1.333-2.8-2.057-4.347-2.9-6.129-5-11.171-4.753-11.287s2.782,4.753,5.651,10.867c.7,1.521,1.362,2.9,1.985,4.347a3.333,3.333,0,0,1,.478,2.26,1.449,1.449,0,0,1-.884.927,4.014,4.014,0,0,1-.971.2,15.935,15.935,0,0,1-3.753.348Z" transform="translate(-11.624 23.719)" fill="#263238"/>
      <path id="Path_2398" data-name="Path 2398" d="M122.225,179.582a42.105,42.105,0,0,1-22.545-4.2s6.448,11.157,22.835,8.346Z" transform="translate(-16.7 36.599)" fill="#ff9a6c"/>
      <path id="Path_2399" data-name="Path 2399" d="M108.138,164.886a3.738,3.738,0,0,1,1.159-1.449,2.9,2.9,0,0,1,1.971-.188,4.549,4.549,0,0,1,2.579,1.3,2.767,2.767,0,0,1,.652,2.724h0c-.261.956-1.681,1.449-2.652,1.652a4.347,4.347,0,0,1-2.9-.594,2.536,2.536,0,0,1-1.449-1.884,3.115,3.115,0,0,1,.638-1.565Z" transform="translate(-13.189 31.111)" fill="#ff9a6c"/>
      <path id="Path_2400" data-name="Path 2400" d="M108.347,162.14c.362,0,.565,2.42,2.811,4.014s4.854,1.116,4.9,1.449-.536.522-1.652.638a6.143,6.143,0,0,1-4.086-1.087,5.318,5.318,0,0,1-2.2-3.376C107.97,162.778,108.173,162.14,108.347,162.14Z" transform="translate(-12.935 30.655)" fill="#263238"/>
      <path id="Path_2401" data-name="Path 2401" d="M110.057,143.278c-.188.623-2.478.507-5.129,1.043s-4.753,1.449-5.144.884c-.174-.246.145-.855.971-1.521a9.012,9.012,0,0,1,7.824-1.449C109.594,142.524,110.13,142.973,110.057,143.278Z" transform="translate(-16.673 21.568)" fill="#263238"/>
      <path id="Path_2402" data-name="Path 2402" d="M124.039,142.629c-.42.551-2.246.159-4.347.3s-3.956.652-4.419.145c-.2-.246,0-.8.8-1.347a6.78,6.78,0,0,1,3.521-1.116,6.592,6.592,0,0,1,3.593.768C123.937,141.818,124.227,142.34,124.039,142.629Z" transform="translate(-9.733 20.984)" fill="#263238"/>
      <path id="Path_2403" data-name="Path 2403" d="M85.3,141.311c1.449-2.347,4.26-3.55,6.868-4.55a151.978,151.978,0,0,1,34.977-8.911c1.449,2.449.116,5.8-2.13,7.578s-5.144,2.492-7.824,3.492-5.448,2.565-6.564,5.216-.174,6.143-1.217,9.012c-1.782,4.955-8.694,6.549-10.418,11.49-1.333,3.753.84,7.737,1.449,11.678A14.2,14.2,0,0,1,86.5,192.472q-1.217-21.285-2.449-42.541C83.808,146.976,83.692,143.788,85.3,141.311Z" transform="translate(-23.779 15.261)" fill="#263238"/>
      <path id="Path_2404" data-name="Path 2404" d="M66.117,173.748c2.246-2.014,5.057-3.753,5.941-6.622,1.3-4.187-2.057-9.1.116-12.91,1.971-3.477,7.781-3.289,9.621-6.839,1.449-2.782-.217-5.231.319-7.665s4.014-4.564,6.477-4.274L107.918,163.5c1.8,9.418,3.608,14.489,1.594,19.937a43.991,43.991,0,0,0-3,9.157c-.435,3.188.391,6.8,2.985,8.694-11.591.913-22.429-5.144-32.456-11.012l-10.563-6.2a7.578,7.578,0,0,1-2.9-2.434C62,179.066,63.885,175.748,66.117,173.748Z" transform="translate(-33.168 18.656)" fill="#263238"/>
      <path id="Path_2405" data-name="Path 2405" d="M72.52,193.941a5.491,5.491,0,0,0,1.246.246,10.853,10.853,0,0,0,3.608-.261,11.142,11.142,0,0,0,5.028-2.71,10.968,10.968,0,0,0,3.3-6.767A11.2,11.2,0,0,0,85.329,180a18.358,18.358,0,0,0-2.144-4.347,16.677,16.677,0,0,1-2.217-4.463,5.709,5.709,0,0,1,.623-4.912c1.043-1.449,3-1.753,4.825-2.478a5.26,5.26,0,0,0,2.463-1.84,5.2,5.2,0,0,0,.8-3.028,33.052,33.052,0,0,0-1.319-6.028,6.376,6.376,0,0,1,0-2.9,4.158,4.158,0,0,1,1.666-2.362,11.708,11.708,0,0,1,5.8-1.565,12.446,12.446,0,0,0,5.97-1.753,11.171,11.171,0,0,0,4.129-4.448,18.329,18.329,0,0,0,1.449-5.549,26.617,26.617,0,0,1,1.13-5.216,11.824,11.824,0,0,1,2.724-4.1,13.388,13.388,0,0,1,8.013-3.622,13.243,13.243,0,0,1,7.245,1.449,15.939,15.939,0,0,1,4.463,3.391,21.048,21.048,0,0,1,2.753,3.956.785.785,0,0,0-.1-.3,8.073,8.073,0,0,0-.406-.84,15.025,15.025,0,0,0-2.014-2.927,16.2,16.2,0,0,0-4.492-3.55,13.475,13.475,0,0,0-7.375-1.637,13.765,13.765,0,0,0-8.418,3.695,12.258,12.258,0,0,0-2.9,4.347,26.978,26.978,0,0,0-1.188,5.318,17.9,17.9,0,0,1-1.449,5.361,10.606,10.606,0,0,1-3.854,4.158,11.954,11.954,0,0,1-5.68,1.637,12.186,12.186,0,0,0-6.2,1.681,4.738,4.738,0,0,0-1.913,2.695,7.071,7.071,0,0,0,0,3.26,33.238,33.238,0,0,1,1.3,5.912,4.477,4.477,0,0,1-.667,2.652,4.811,4.811,0,0,1-2.188,1.608c-.855.362-1.782.609-2.68.985a5.651,5.651,0,0,0-2.391,1.724,6.419,6.419,0,0,0-.7,5.448,17.62,17.62,0,0,0,2.318,4.608,17.387,17.387,0,0,1,2.1,4.144,10.94,10.94,0,0,1,.406,4.231,10.664,10.664,0,0,1-3.1,6.549,10.939,10.939,0,0,1-4.839,2.724A12.128,12.128,0,0,1,72.52,193.941Z" transform="translate(-28.893 12.141)" fill="#455a64"/>
      <path id="Path_2406" data-name="Path 2406" d="M62,173.966a2.463,2.463,0,0,0-.377.942,4.173,4.173,0,0,0,.493,2.9,4.535,4.535,0,0,0,1.449,1.55,4.622,4.622,0,0,0,2.478.667,5.8,5.8,0,0,0,5.071-3.231,7.7,7.7,0,0,0,.826-3.521,10.781,10.781,0,0,0-.811-3.825c-.913-2.507-2.594-4.955-2.623-7.882a5.375,5.375,0,0,1,1.347-3.985,5.8,5.8,0,0,1,4.2-1.3,14.343,14.343,0,0,0,5.013-.522,4.347,4.347,0,0,0,2.057-1.739,6.259,6.259,0,0,0,.855-2.55,20.04,20.04,0,0,0-.42-5.158,10.968,10.968,0,0,1,.275-4.767,12,12,0,0,1,5.376-7.071,17.054,17.054,0,0,1,8.071-1.855,23.428,23.428,0,0,0,7.332-1.159,15.373,15.373,0,0,0,5.187-3.188,15.184,15.184,0,0,0,2.9-3.651,10.736,10.736,0,0,0,1.377-3.666,22.112,22.112,0,0,1-1.608,3.535,15.576,15.576,0,0,1-7.969,6.607,23.879,23.879,0,0,1-7.245,1.043,17.387,17.387,0,0,0-8.317,1.855,12.577,12.577,0,0,0-5.709,7.317,11.751,11.751,0,0,0-.3,5.028,20.9,20.9,0,0,1,.42,4.984,4.347,4.347,0,0,1-2.507,3.753,13.635,13.635,0,0,1-4.767.478A6.419,6.419,0,0,0,69.419,157a5.926,5.926,0,0,0-1.449,4.448,11.476,11.476,0,0,0,1.058,4.347c.565,1.3,1.188,2.521,1.666,3.738a10.446,10.446,0,0,1,.811,3.637,7.317,7.317,0,0,1-.724,3.3,5.375,5.375,0,0,1-4.651,3.072,4.346,4.346,0,0,1-2.3-.565,4.027,4.027,0,0,1-1.449-1.449,4.086,4.086,0,0,1-.594-2.71C61.855,174.3,62.044,173.981,62,173.966Z" transform="translate(-33.819 12.164)" fill="#263238"/>
      <path id="Path_2407" data-name="Path 2407" d="M156.761,176.658a4.564,4.564,0,0,1,0,3.028,3.955,3.955,0,0,1-2.405,2.449,4.187,4.187,0,0,1-4.245-1.159,3.854,3.854,0,0,1-1-2.434,8.1,8.1,0,0,1,.449-2.9c.609-1.956,1.869-4.086,1.681-6.651a9.375,9.375,0,0,0-3.535-6.694,10.751,10.751,0,0,0-3.608-1.9,16.416,16.416,0,0,0-4.115-.594,21.036,21.036,0,0,1-4.014-.42,5.332,5.332,0,0,1-3.115-1.927,6.491,6.491,0,0,1-1.116-3.434,13.286,13.286,0,0,1,.29-3.564,26.876,26.876,0,0,0,1.043-6.781A10.273,10.273,0,0,0,131,138.058a13.157,13.157,0,0,0-3.767-3.188,26.7,26.7,0,0,1-3.028-2.086,7.593,7.593,0,0,1-1.884-2.434v.2a2.9,2.9,0,0,0,.232.565A6.26,6.26,0,0,0,124,132.973a23.4,23.4,0,0,0,3,2.217,13.041,13.041,0,0,1,3.593,3.159,9.708,9.708,0,0,1,1.884,5.361,27.051,27.051,0,0,1-1.087,6.622,13.84,13.84,0,0,0-.333,3.738,7.245,7.245,0,0,0,1.246,3.782,5.97,5.97,0,0,0,3.477,2.188,22.1,22.1,0,0,0,4.129.449,16.111,16.111,0,0,1,3.97.551,10.547,10.547,0,0,1,3.39,1.782,8.78,8.78,0,0,1,3.318,6.216c.2,2.333-.956,4.347-1.594,6.448a8.694,8.694,0,0,0-.435,3.13,4.347,4.347,0,0,0,1.174,2.709,4.593,4.593,0,0,0,4.724,1.2,4.231,4.231,0,0,0,2.521-2.724,4.173,4.173,0,0,0,.116-2.347A2.447,2.447,0,0,0,156.761,176.658Z" transform="translate(-6.536 16.384)" fill="#263238"/>
      <path id="Path_2408" data-name="Path 2408" d="M164.041,266.175V250.15c1.8-9,.942-19.662-3.246-27.878a150.049,150.049,0,0,0-10.056-15.286L134.8,186.281c-8.781,6.39-22.531,1.768-34.325-2.521,0,0-11.591,6.448-17.068,12.5C77.713,202.64,97.187,282.4,97.187,282.4c-8.824,17.648-20.213,33.325-21.937,49.409l92.152,3.55-3.912-42.251Z" transform="translate(-27.667 40.361)" fill="#455a64"/>
      <path id="Path_2409" data-name="Path 2409" d="M135.679,273.735a8.132,8.132,0,0,1-.072-1.811v-4.912c.072-4.347.159-9.954.261-16.2s.29-12.055.493-16.2c.1-2.072.2-3.753.29-4.912a8,8,0,0,1,.232-1.782,9.207,9.207,0,0,1,0,1.8v4.912c-.072,4.347-.174,9.954-.275,16.2s-.275,12.055-.478,16.2c-.1,2.072-.2,3.753-.3,4.912A7.651,7.651,0,0,1,135.679,273.735Z" transform="translate(-0.58 60.186)" fill="#263238"/>
      <path id="Path_2410" data-name="Path 2410" d="M167.919,269.6s8.983.493,14.489,3.97,14.489,8.9,18.184,15.605c1.7,3.086-3.13,3.738-5.52,1.956s-6.028-5.173-7.839-5.578l-1.811-.42a120.822,120.822,0,0,0,5.52,10.954c1.869,2.9,3.492,7.708-2.13,7.926,0,0-3.782,4.926-7.607,1.275,0,0-2.985,4.477-7.8-1.724,0,0-2.811,3.55-3.97,2.188s-5-3.506-6.115-7.94a160.655,160.655,0,0,0-5.8-15.2Z" transform="translate(9.271 78.897)" fill="#ffbf9d"/>
      <path id="Path_2411" data-name="Path 2411" d="M308.92,204.037c1,0,42.135-4.347,42.135-4.347s3.492-16.721,3.3-21.067-3.115-33.108-3.115-33.108l15.4-7.245s20.589,69.433,16.1,75.2-12.939,10.939-13.663,10.968-39.86,17.387-67.086,8.36S308.92,204.037,308.92,204.037Z" transform="translate(69.397 19.939)" fill="#ffbf9d"/>
      <path id="Path_2412" data-name="Path 2412" d="M278.63,228.043c6.057,6.013,16.489,11.012,33.9,6.665,34.427-8.607,60.232-15.938,70.491-21.444s6.259-30.109,7.129-31.225c2.594-3.362-.261-10.577-3.956-11.707-10.534-3.188-28.863-1.927-29.79-.971-5.4,5.68-.478,12.577-.478,12.577l-45.395,5.955a75.983,75.983,0,0,0-16.677,1.058" transform="translate(63.637 33.417)" fill="#455a64"/>
      <path id="Path_2413" data-name="Path 2413" d="M293.863,189.064l1.087-.232c.725-.13,1.8-.319,3.217-.493a74.632,74.632,0,0,1,12.388-.522h0l45.381-6.086-.217.507a12.157,12.157,0,0,1-2.086-7.462,8.693,8.693,0,0,1,1.3-3.854,12.326,12.326,0,0,1,1.246-1.652,2.348,2.348,0,0,1,.594-.319l.522-.13c.348-.087.681-.116,1.014-.188a89.99,89.99,0,0,1,16.938-.348,58.238,58.238,0,0,1,8.809,1.217c.725.159,1.449.377,2.2.565a5.449,5.449,0,0,1,2.072,1.217,10.143,10.143,0,0,1,2.565,3.941,9.955,9.955,0,0,1,.594,4.709,5.8,5.8,0,0,1-.913,2.318c-.13.145-.116.536-.13.913v1.159c.1,3.115.246,6.288.159,9.476a40.281,40.281,0,0,1-2.188,13.3,13.172,13.172,0,0,1-3.767,5.549,12.938,12.938,0,0,1-2.9,1.71c-.956.507-1.971.9-2.9,1.362-3.97,1.7-7.955,3.086-11.881,4.347s-7.781,2.478-11.591,3.593c-15.156,4.347-28.979,7.868-40.483,10.751a77.906,77.906,0,0,1-8.346,1.724,44.774,44.774,0,0,1-7.607.406,31.718,31.718,0,0,1-11.867-2.579,27.312,27.312,0,0,1-6.52-4.057,16.972,16.972,0,0,1-1.942-1.84s.667.637,2.043,1.724a28.382,28.382,0,0,0,6.549,3.912,32.035,32.035,0,0,0,11.751,2.42,44.079,44.079,0,0,0,7.52-.464,79,79,0,0,0,8.288-1.768c11.591-2.9,25.3-6.462,40.411-10.9,3.782-1.116,7.636-2.3,11.591-3.608s7.882-2.681,11.809-4.347c.956-.449,1.956-.84,2.9-1.348a12.677,12.677,0,0,0,2.709-1.623,12.33,12.33,0,0,0,3.55-5.231,39.916,39.916,0,0,0,2.1-13.113c.087-3.173,0-6.317-.159-9.447v-1.811a1.731,1.731,0,0,1,0-.348,2.034,2.034,0,0,1,.116-.261l.073-.116a4.768,4.768,0,0,0,.782-1.985,9.07,9.07,0,0,0-.565-4.347,9.388,9.388,0,0,0-2.347-3.651,4.751,4.751,0,0,0-1.8-1.058c-.724-.188-1.449-.391-2.159-.565a57.79,57.79,0,0,0-8.694-1.2,88.094,88.094,0,0,0-16.764.319,3.8,3.8,0,0,0-.985.174l-.464.1a1.8,1.8,0,0,0-.29.145,10.785,10.785,0,0,0-1.174,1.536,7.766,7.766,0,0,0-1.217,3.55,11.591,11.591,0,0,0,1.941,7.027l.29.449h-.507l-45.41,5.8h0a78.241,78.241,0,0,0-12.33.348c-1.449.145-2.507.3-3.231.406A4.038,4.038,0,0,0,293.863,189.064Z" transform="translate(63.632 33.304)" fill="#263238"/>
      <path id="Path_2414" data-name="Path 2414" d="M.014,0h38.02V400.253A17.387,17.387,0,0,1,20.647,417.64h-3.26A17.387,17.387,0,0,1,0,400.253V0Z" transform="translate(234.592 269.57) rotate(-119.1)" fill="#56878b"/>
      <path id="Path_2415" data-name="Path 2415" d="M0,0H88.052A3.246,3.246,0,0,1,91.3,3.246V25.733a3.246,3.246,0,0,1-3.246,3.246H0V0Z" transform="translate(527.849 93.866) rotate(-119.1)" fill="#56878b"/>
      <rect id="Rectangle_18568" data-name="Rectangle 18568" width="73.562" height="28.979" rx="3.24" transform="translate(477.1 118.215) rotate(-119.1)" fill="#56878b"/>
      <rect id="Rectangle_18569" data-name="Rectangle 18569" width="39.73" height="45.004" transform="translate(490.484 89.48) rotate(-119.1)" fill="#56878b"/>
      <path id="Path_2416" data-name="Path 2416" d="M524.465,59.86c.1.174-68.534,38.571-153.268,85.748S217.61,230.892,217.61,230.7s68.52-38.571,153.283-85.762S524.364,59.672,524.465,59.86Z" transform="translate(36.243 -15.262)" fill="#263238"/>
      <path id="Path_2417" data-name="Path 2417" d="M110.707,301.32c25.791,46.366,80.169,65.2,121.464,42.236s53.9-79.184,28.109-125.492-80.155-65.2-121.464-42.236S84.93,255.012,110.707,301.32Zm127.2-70.795c18.068,32.456,9.244,71.824-19.706,87.921s-67.042,2.9-85.11-29.587-9.244-71.824,19.691-87.936S219.84,198.069,237.908,230.525Z" transform="translate(-17.758 32.413)" fill="#56878b"/>
      <rect id="Rectangle_18570" data-name="Rectangle 18570" width="58.131" height="20.662" rx="6.52" transform="translate(298.642 245.706) rotate(-119.1)" fill="#56878b"/>
      <rect id="Rectangle_18571" data-name="Rectangle 18571" width="58.131" height="20.662" rx="6.52" transform="translate(335.289 225.307) rotate(-119.1)" fill="#56878b"/>
      <path id="Path_2418" data-name="Path 2418" d="M244.362,162c.188-.1,4.608,7.679,9.9,17.387s9.418,17.619,9.23,17.72-4.608-7.665-9.9-17.387S244.174,162,244.362,162Z" transform="translate(48.25 30.592)" fill="#263238"/>
      <path id="Path_2419" data-name="Path 2419" d="M232.752,170.25c.188-.1,4.506,7.332,9.664,16.576s9.172,16.851,9,16.953-4.506-7.332-9.606-16.5S232.578,170.352,232.752,170.25Z" transform="translate(43.038 34.296)" fill="#263238"/>
      <path id="Path_2420" data-name="Path 2420" d="M269.812,148.07c.188-.1,4.694,7.636,10.07,17.286s9.577,17.576,9.389,17.677-4.68-7.65-10.056-17.3S269.638,148.172,269.812,148.07Z" transform="translate(59.676 24.338)" fill="#263238"/>
      <path id="Path_2421" data-name="Path 2421" d="M257.6,155.44c.174-.1,4.593,7.592,9.838,17.184s9.375,17.387,9.186,17.547-4.579-7.592-9.838-17.184S257.414,155.542,257.6,155.44Z" transform="translate(54.194 27.647)" fill="#263238"/>
      <path id="Path_2422" data-name="Path 2422" d="M341.3,130.061a6.839,6.839,0,0,0,2.9-13.3,7.129,7.129,0,0,0-6.187-12.026,8.534,8.534,0,0,0-12.838-7.013,9.592,9.592,0,0,0-11.809-.261,6.824,6.824,0,0,0-6.042,11.591" transform="translate(75.59 0.763)" fill="#263238"/>
      <path id="Path_2423" data-name="Path 2423" d="M317.07,101.53h1.449a29.066,29.066,0,0,1,28.95,26.762c1.087,14.04,2.1,29.558,1.985,37.093-.275,15.648-15.837,17.967-15.837,17.967l1.261,18.749-37.861-1.232-3.144-67.955C292.54,116.7,300.842,102.428,317.07,101.53Z" transform="translate(70.418 3.445)" fill="#ffbf9d"/>
      <path id="Path_2424" data-name="Path 2424" d="M327.675,159.872a37.86,37.86,0,0,1-20.415-6.042s5.013,11.809,20.575,10.447Z" transform="translate(76.49 26.925)" fill="#ff9a6c"/>
      <path id="Path_2425" data-name="Path 2425" d="M326.288,130.78a2.217,2.217,0,0,1-2.159,2.231A2.144,2.144,0,0,1,321.84,131,2.246,2.246,0,0,1,324,128.752a2.144,2.144,0,0,1,2.289,2.028Z" transform="translate(83.035 15.664)" fill="#263238"/>
      <path id="Path_2426" data-name="Path 2426" d="M331.23,126.017c-.275.29-1.971-.956-4.347-.956s-4.158,1.188-4.419.9.159-.652.927-1.217a6.1,6.1,0,0,1,3.535-1.072,5.8,5.8,0,0,1,3.463,1.13C331.114,125.365,331.36,125.9,331.23,126.017Z" transform="translate(83.281 13.385)" fill="#263238"/>
      <path id="Path_2427" data-name="Path 2427" d="M311.383,130.047a2.231,2.231,0,0,1-2.173,2.275,2.144,2.144,0,0,1-2.289-2.014,2.231,2.231,0,0,1,2.159-2.246,2.145,2.145,0,0,1,2.3,1.985Z" transform="translate(76.337 15.354)" fill="#263238"/>
      <path id="Path_2428" data-name="Path 2428" d="M314.97,126.277c-.275.29-1.971-.956-4.347-.956s-4.158,1.188-4.419.9.159-.652.927-1.217a6.1,6.1,0,0,1,3.535-1.072,5.8,5.8,0,0,1,3.463,1.13C314.854,125.625,315.1,126.147,314.97,126.277Z" transform="translate(75.981 13.501)" fill="#263238"/>
      <path id="Path_2429" data-name="Path 2429" d="M318.52,144.027a15.5,15.5,0,0,1,3.9-.7c.609,0,1.188-.174,1.3-.594a3.13,3.13,0,0,0-.406-1.811l-1.8-4.666c-2.492-6.651-4.347-12.113-4.028-12.2s2.507,5.2,5,11.838c.594,1.637,1.174,3.2,1.724,4.695a3.608,3.608,0,0,1,.3,2.405,1.536,1.536,0,0,1-1.014.884,3.506,3.506,0,0,1-1.029.145,15.937,15.937,0,0,1-3.956,0Z" transform="translate(81.067 13.559)" fill="#263238"/>
      <path id="Path_2430" data-name="Path 2430" d="M316.715,119.988c-.319.609-2.362,0-4.9-.145s-4.651.333-4.883-.3c-.1-.3.348-.84,1.261-1.333a7.665,7.665,0,0,1,3.8-.782,7.36,7.36,0,0,1,3.666,1.13C316.483,119.119,316.86,119.713,316.715,119.988Z" transform="translate(76.337 10.576)" fill="#263238"/>
      <path id="Path_2431" data-name="Path 2431" d="M331.621,119.236c-.507.536-2.492,0-4.868,0s-4.347.362-4.854-.217c-.2-.275.116-.826,1-1.333a7.8,7.8,0,0,1,3.956-.884,7.621,7.621,0,0,1,3.869,1.116C331.563,118.411,331.838,118.961,331.621,119.236Z" transform="translate(83.035 10.298)" fill="#263238"/>
      <path id="Path_2432" data-name="Path 2432" d="M347.138,121.759s-4.086-9.78-8.8-12.07c-5.694-2.782-8.157,3.463-13.591,1.927s-10.867-4.187-16.431,0c-6.086,4.579-3.246,7.81-3.651,14.736-1.594,28.051-6.752,35.963-8.158,22.748-.159-1.449-4.173-2.608-4.752-8.694-.753-7.926-1.029-17.561.768-23.183,1.449-4.738,4.216-8.013,9.07-11.591,7.679-5.68,18.2-5.8,25.342-5.028S347.819,109.53,347.138,121.759Z" transform="translate(69.27 2.878)" fill="#263238"/>
      <path id="Path_2433" data-name="Path 2433" d="M298.806,134.944a4.231,4.231,0,0,0-4.55-4.1c-2.9.275-6.158,1.913-5.984,7.926.3,10.664,10.954,8.157,10.968,7.839S298.98,139.407,298.806,134.944Z" transform="translate(67.962 16.6)" fill="#ffbf9d"/>
      <path id="Path_2434" data-name="Path 2434" d="M295.662,141.592a2.355,2.355,0,0,1-.493.29,1.869,1.869,0,0,1-1.377.072,4.579,4.579,0,0,1-2.246-4.072,6.116,6.116,0,0,1,.435-2.666,2.13,2.13,0,0,1,1.362-1.449.942.942,0,0,1,1.116.478c.145.29.087.507.145.522s.217-.188.116-.623a1.072,1.072,0,0,0-.435-.652,1.362,1.362,0,0,0-1.029-.246,2.608,2.608,0,0,0-1.9,1.71,6.26,6.26,0,0,0-.565,2.985c.13,2.144,1.29,4.129,2.9,4.535a1.956,1.956,0,0,0,1.681-.333C295.662,141.852,295.705,141.592,295.662,141.592Z" transform="translate(69.093 17.675)" fill="#ff9a6c"/>
      <path id="Path_2435" data-name="Path 2435" d="M298.913,129.155a10.143,10.143,0,0,0,4.506,2.1,3.477,3.477,0,0,0,3.869-2.434c.13-.739,0-1.608.435-2.173s1.666-.464,2.55-.362c3.1.333,6.738-3.086,7.534-6.1a2.767,2.767,0,0,0,3.709.782,9.912,9.912,0,0,0,2.579-2.275,4.419,4.419,0,0,1,3.666-1.811,10.145,10.145,0,0,0,2.318.507c1.449-.116,2.086-1.753,2.3-3.144s.391-3,1.579-3.753a5.607,5.607,0,0,1,3.811-.1c1.29.2,2.9-.1,3.289-1.362a2.55,2.55,0,0,0-.478-1.927,6.9,6.9,0,0,0-8.143-2.637,9.346,9.346,0,0,0-17.2-1.869,9.49,9.49,0,0,0-15.2,3.419,6.882,6.882,0,0,0-7.8,9.983,6.535,6.535,0,0,0-3.608,5.2c0,2.2,2.1,4.347,4.231,3.825a3.811,3.811,0,0,0,6.578,3.825" transform="translate(68.131 1.727)" fill="#263238"/>
      <path id="Path_2436" data-name="Path 2436" d="M332.923,104.53v.2a1.635,1.635,0,0,1-.072.565,6.939,6.939,0,0,1-.782,2.057,7.723,7.723,0,0,1-2.362,2.507,7.129,7.129,0,0,1-4.347,1.232l.174-.232a3.811,3.811,0,0,1-.217,2.9,11,11,0,0,1-1.826,2.608,8,8,0,0,1-1.2,1.232,3.985,3.985,0,0,1-5.115-.623l.391-.116a7.984,7.984,0,0,1-3.405,5.52,5.8,5.8,0,0,1-3.506,1.145,10.78,10.78,0,0,1-3.448-.768l.29-.13a8.447,8.447,0,0,1-2.536,3.289,4.463,4.463,0,0,1-3.709,1,5.883,5.883,0,0,1-4.521-4.608l.246.116a5.608,5.608,0,0,1-3.666.522,6.042,6.042,0,0,1-2.55-1.145,5.318,5.318,0,0,1-1.188-1.3,1.914,1.914,0,0,1-.261-.565,6.259,6.259,0,0,0,1.55,1.724,5.8,5.8,0,0,0,2.492,1.029,5.187,5.187,0,0,0,3.463-.551l.2-.116v.232a5.506,5.506,0,0,0,4.26,4.26,4.072,4.072,0,0,0,3.376-.942,8,8,0,0,0,2.376-3.115l.087-.188h.2a10.214,10.214,0,0,0,3.289.724,5.375,5.375,0,0,0,3.245-1.058,7.578,7.578,0,0,0,3.217-5.2v-.507l.333.391a3.448,3.448,0,0,0,3.028,1.1,3.39,3.39,0,0,0,1.449-.551,7.052,7.052,0,0,0,1.13-1.145,10.621,10.621,0,0,0,1.8-2.492,3.463,3.463,0,0,0,.232-2.666l-.087-.261h.275a6.839,6.839,0,0,0,4.187-1.116,7.592,7.592,0,0,0,2.347-2.391A8,8,0,0,0,332.923,104.53Z" transform="translate(68.431 4.792)" fill="#455a64"/>
      <path id="Path_2437" data-name="Path 2437" d="M320.813,145.207c-.087-.391-2.681.246-5.086-1.521s-2.8-4.608-3.159-4.535-.362.753-.1,1.927a6.65,6.65,0,0,0,2.507,3.825,5.8,5.8,0,0,0,4.2,1.1C320.291,145.83,320.871,145.381,320.813,145.207Z" transform="translate(78.745 20.334)" fill="#263238"/>
      <path id="Path_2438" data-name="Path 2438" d="M384.068,423.12l10.287,35.05s39.121,1.3,41.628,7.607l-67.317,22.372L350.38,434.175Z" transform="translate(95.848 147.818)" fill="#455a64"/>
      <path id="Path_2439" data-name="Path 2439" d="M366.088,450.21a2.9,2.9,0,0,0-.855,3.767,2.782,2.782,0,0,0,3.724.884,3.057,3.057,0,0,0,.884-4,2.9,2.9,0,0,0-3.985-.493" transform="translate(102.352 159.791)" fill="#e0e0e0"/>
      <path id="Path_2440" data-name="Path 2440" d="M427.024,450.819s3.434.3,3.8,2.536L363.5,475.726l-1.623-5.52,65.086-19.416" transform="translate(101.01 160.239)" fill="#263238"/>
      <path id="Path_2441" data-name="Path 2441" d="M382.946,446.855c.1.333-1.449,1.029-2.753,2.623s-1.666,3.26-2.014,3.231-.478-2.087,1.087-3.985S382.917,446.536,382.946,446.855Z" transform="translate(108.228 158.423)" fill="#fff"/>
      <path id="Path_2442" data-name="Path 2442" d="M387.932,447.23c.188.3-1.043,1.333-1.71,3.086s-.478,3.347-.811,3.434-1.159-1.7-.3-3.869S387.83,446.925,387.932,447.23Z" transform="translate(111.269 158.613)" fill="#fff"/>
      <path id="Path_2443" data-name="Path 2443" d="M391.981,454.135c-.275.174-1.275-1.319-1.029-3.39s1.536-3.318,1.768-3.086-.406,1.449-.58,3.217S392.3,453.961,391.981,454.135Z" transform="translate(114.044 158.821)" fill="#fff"/>
      <path id="Path_2444" data-name="Path 2444" d="M381.3,441.63c0,.348-1.7.391-3.506,1.13s-3.072,1.811-3.332,1.594.739-1.855,2.9-2.71S381.388,441.311,381.3,441.63Z" transform="translate(106.641 155.924)" fill="#fff"/>
      <path id="Path_2445" data-name="Path 2445" d="M281.887,427.4l-14.649,33.47s29.109,26.081,27.008,32.572L228.32,467.359,249,414.27Z" transform="translate(41.051 143.844)" fill="#455a64"/>
      <path id="Path_2446" data-name="Path 2446" d="M242.847,438.9a2.9,2.9,0,0,0-3.072,2.333,2.8,2.8,0,0,0,2.289,3.072,3.072,3.072,0,0,0,3.246-2.492c0-1.449-1.319-3.1-2.738-2.9" transform="translate(46.186 154.899)" fill="#e0e0e0"/>
      <path id="Path_2447" data-name="Path 2447" d="M292.957,474.254s2.434,2.449,1.29,4.347L228.32,452.52l2.3-5.26,62.3,26.95" transform="translate(41.051 158.655)" fill="#263238"/>
      <path id="Path_2448" data-name="Path 2448" d="M258.308,446.814c-.13.319-1.8-.174-3.8.232s-3.376,1.449-3.622,1.188.971-1.913,3.391-2.362S258.511,446.539,258.308,446.814Z" transform="translate(51.169 157.985)" fill="#fff"/>
      <path id="Path_2449" data-name="Path 2449" d="M261.952,450.484c0,.333-1.652.333-3.289,1.261s-2.507,2.246-2.9,2.115.2-2.043,2.246-3.159S262.068,450.18,261.952,450.484Z" transform="translate(53.321 159.908)" fill="#fff"/>
      <path id="Path_2450" data-name="Path 2450" d="M260.5,458.567c-.319,0-.13-1.826,1.449-3.26s3.3-1.55,3.333-1.232-1.275.9-2.507,2.1S260.834,458.669,260.5,458.567Z" transform="translate(55.439 161.649)" fill="#fff"/>
      <path id="Path_2451" data-name="Path 2451" d="M259.894,441.908c-.246.232-1.55-.782-3.42-1.449s-3.506-.58-3.564-.913,1.753-.956,3.941-.232S260.155,441.676,259.894,441.908Z" transform="translate(52.09 154.937)" fill="#fff"/>
      <path id="Path_2452" data-name="Path 2452" d="M304.569,296.43l-23.1,93.688s-41.657,70.128-48.713,105.221l38.107,14.982s27.718-67.593,35.847-80a99.881,99.881,0,0,1,12.548-15.46,24.124,24.124,0,0,0,6.332-10.954l17.489-66.839Z" transform="translate(43.044 90.942)" fill="#263238"/>
      <path id="Path_2453" data-name="Path 2453" d="M275.53,295.513s3.217,25.1,27.37,36.223l50.886,82.879s3.985,26.95,11.591,49.655,22.98,66.463,22.98,66.463l41.86-15.648-26.675-91.2-4.347-31.63L357.67,286.486,322,265.1Z" transform="translate(62.245 76.877)" fill="#263238"/>
      <path id="Path_2454" data-name="Path 2454" d="M275.53,295.58l.768-.522,2.3-1.536,9.041-5.97,34.282-22.531.116-.072.116.072,35.7,21.343h0v.087l41.613,105.671v.072c1.376,10,2.9,20.705,4.347,31.63h0c7.245,24.632,14.924,50.988,22.864,78.141q1.927,6.564,3.825,13.04l.1.333-.333.116L388.416,531.1l-.362.13-.116-.362c-7.245-21.024-14.258-41.266-20.879-60.464-1.666-4.8-3.3-9.548-4.666-14.3s-2.594-9.476-3.709-14.142c-2.2-9.331-3.97-18.445-5.361-27.283v.116l-50.6-82.908.087.072a47.25,47.25,0,0,1-15.938-12.142,50.205,50.205,0,0,1-7.824-12.548,51.626,51.626,0,0,1-2.9-8.694c-.246-.985-.391-1.753-.478-2.275s-.1-.782-.1-.782a2.9,2.9,0,0,0,.159.768c.159.507.246,1.275.522,2.275a53.035,53.035,0,0,0,2.985,8.578,50.554,50.554,0,0,0,7.853,12.417,47.308,47.308,0,0,0,15.938,12h0l50.988,82.821h0v.072c1.449,8.809,3.188,17.909,5.39,27.225,1.116,4.651,2.333,9.36,3.709,14.1s3,9.462,4.665,14.257c6.651,19.2,13.649,39.44,20.923,60.449l-.478-.217,41.86-15.648-.232.449q-1.884-6.477-3.825-13.04L403.2,423.869h0c-1.449-10.925-2.985-21.633-4.347-31.63v.087L357.395,286.554l.116.13-35.644-21.43h.217L287.8,287.684l-9.128,5.883-2.347,1.521Z" transform="translate(62.245 76.81)" fill="#455a64"/>
      <path id="Path_2455" data-name="Path 2455" d="M300.06,165.487s-12.2,9.389-18.126,19.879c-7.1,12.562-7.868,31.181-8.085,60.1-.217,26.747,3.782,34.18,2.246,44.265-3.028,19.691-5.274,85.777-5.274,85.777s39.121-15.025,46.714-21.734l7.636-6.636,48.959,16.185-9.882-60.16-6.781-74.982-8.694-39.773-1.449-15.6L305.276,155.91Z" transform="translate(60.131 27.858)" fill="#455a64"/>
      <path id="Path_2456" data-name="Path 2456" d="M336.6,169.213c.507.1-1.2,3.535-4.216,8.578l-.13.2-.232-.087c-4.245-1.652-9.867-3.724-16.011-5.97-6.926-2.521-13.185-4.868-17.663-6.694-2.246-.913-4.043-1.681-5.274-2.246a11.9,11.9,0,0,1-1.883-.927,10.316,10.316,0,0,1,2,.667l5.347,2.014,17.735,6.477c6.143,2.246,11.751,4.347,15.938,6.143l-.348.116C335.02,172.546,336.889,169.286,336.6,169.213Z" transform="translate(69.275 30.624)" fill="#263238"/>
      <path id="Path_2457" data-name="Path 2457" d="M363.674,161.359s-3.1-4.825-6.028-9.273-7.361-6.636-8.071-8.954-4.608-12.649-5.231-15.214a33.023,33.023,0,0,1-.753-7.563s3.2-1.362,4.738,3.217c.927,2.753,3.883,12.1,4.521,12.562s1.449-.217,1.449-.217a109.792,109.792,0,0,1-3.4-10.679c-.145-1.7.449-12.939.449-12.939a3.391,3.391,0,0,1,3.854,2.159c1.521,2.9,1.579,10.143,1.579,10.143l2.3,8.085-.811-8,1.159-14.707a5.535,5.535,0,0,1,4.637,4.347c.971,3.97-.319,9.5.333,10.679s1.362,8.273,1.362,8.273.8-17.242,2.637-17.735,3.347,1.333,3.086,4.81-.333,10.838.623,14.084,10.766,15.938,9.969,21.5a93.384,93.384,0,0,0-.913,10.143H364.355Z" transform="translate(92.798 7.239)" fill="#ffbf9d"/>
      <path id="Path_2458" data-name="Path 2458" d="M323.981,188.478c.942.362,41.092,10.3,41.092,10.3s8.969-14.489,10.287-18.691,8.375-32.2,8.375-32.2L400.7,146.3s-4.347,72.287-10.49,76.185-15.938,5.868-16.576,5.651-43.4,2.753-65.926-15S323.981,188.478,323.981,188.478Z" transform="translate(73.534 23.544)" fill="#ffbf9d"/>
      <g id="Group_75756" data-name="Group 75756" transform="translate(368.116 250.043)" opacity="0.3">
        <path id="Path_2459" data-name="Path 2459" d="M297.093,201.9a30.659,30.659,0,0,0,16.416,9.65c10.65,2.347,33.325,6.506,33.325,6.506l-1.1-11.128L296.47,201.65" transform="translate(-296.47 -201.65)"/>
      </g>
      <path id="Path_2460" data-name="Path 2460" d="M284.56,201.038c3.651,7.708,11.765,15.938,29.6,17.807,35.311,3.651,62.043,5.593,73.591,3.854s16.141-26.182,17.387-26.936c3.593-2.26,3.362-10.027.261-12.345-8.809-6.593-26.472-11.591-27.66-11.055-7.027,3.492-4.738,11.664-4.738,11.664l-44.772-9.882a75.346,75.346,0,0,0-16.04-4.666" transform="translate(66.299 33.95)" fill="#455a64"/>
      <path id="Path_2461" data-name="Path 2461" d="M312.16,169.48a6.309,6.309,0,0,1,1.1.145c.724.145,1.811.319,3.2.623a74.632,74.632,0,0,1,11.823,3.738h0l44.743,9.737-.377.406a12.04,12.04,0,0,1,.579-7.723,8.563,8.563,0,0,1,2.521-3.188,11.678,11.678,0,0,1,1.753-1.13,2.448,2.448,0,0,1,.652-.1h.536a6.1,6.1,0,0,1,1.029.174,89.838,89.838,0,0,1,16.04,5.433,60.179,60.179,0,0,1,7.868,4.144c.623.406,1.246.855,1.869,1.29a5.361,5.361,0,0,1,1.536,1.84,10.274,10.274,0,0,1,1.072,4.579,9.824,9.824,0,0,1-1.043,4.637,5.505,5.505,0,0,1-1.652,1.869c-.174.087-.29.464-.435.811l-.377,1.087c-.956,2.9-1.913,6-3.072,8.983a40.727,40.727,0,0,1-6.578,11.823,11.591,11.591,0,0,1-8.694,4.55c-1.087.159-2.173.188-3.246.275-4.347.261-8.52.2-12.649.087s-8.172-.333-12.1-.58c-15.75-1.014-29.877-2.449-41.729-3.68a76.111,76.111,0,0,1-8.433-1.217,44.915,44.915,0,0,1-7.245-2.2,31.963,31.963,0,0,1-10.273-6.462,27.384,27.384,0,0,1-4.753-6.042,17.1,17.1,0,0,1-1.2-2.391s.406.826,1.333,2.318a28.672,28.672,0,0,0,4.825,5.9,31.644,31.644,0,0,0,10.229,6.288,45.967,45.967,0,0,0,7.245,2.13,78.521,78.521,0,0,0,8.4,1.145c11.852,1.174,25.979,2.55,41.7,3.535,3.941.232,7.969.435,12.084.536s8.331.159,12.591-.087c1.058-.1,2.144-.13,3.2-.29a11.59,11.59,0,0,0,3.1-.594,12.4,12.4,0,0,0,5.129-3.709,39.919,39.919,0,0,0,6.433-11.591c1.159-2.9,2.1-5.955,3.057-8.94l.406-1.13a1.8,1.8,0,0,1,.232-.565,2.008,2.008,0,0,1,.188-.319,1.164,1.164,0,0,1,.188-.188l.1-.087a4.708,4.708,0,0,0,1.449-1.608,9.011,9.011,0,0,0,.956-4.347,9.591,9.591,0,0,0-.971-4.231,4.722,4.722,0,0,0-1.318-1.594c-.623-.42-1.217-.869-1.84-1.261a57.71,57.71,0,0,0-7.766-4.1,88.936,88.936,0,0,0-15.866-5.419c-.333,0-.667-.145-.985-.174h-.8a11.131,11.131,0,0,0-1.623,1.058,7.838,7.838,0,0,0-2.362,2.9,11.591,11.591,0,0,0-.565,7.245l.13.507-.507-.116-44.671-10h0a79.18,79.18,0,0,0-11.707-3.883c-1.449-.333-2.449-.565-3.173-.71A6.555,6.555,0,0,0,312.16,169.48Z" transform="translate(66.33 33.95)" fill="#263238"/>
      <path id="Path_2462" data-name="Path 2462" d="M360.462,193.709a9.491,9.491,0,0,1-2.9-1.261,28.633,28.633,0,0,1-6.086-4.55,30.428,30.428,0,0,1-4.752-5.941,10.491,10.491,0,0,1-1.377-2.9A64.183,64.183,0,0,0,352,187.3,59.322,59.322,0,0,0,360.462,193.709Z" transform="translate(93.59 38.251)" fill="#263238"/>
      <path id="Path_2463" data-name="Path 2463" d="M141.439,271.53s8.983.478,14.489,3.97,14.489,8.882,18.184,15.605c1.7,3.086-3.13,3.738-5.506,1.942s-6.042-5.158-7.853-5.578l-1.811-.406A119.18,119.18,0,0,0,164.462,298c1.869,2.9,3.492,7.708-2.115,7.94,0,0-3.8,4.926-7.621,1.275,0,0-2.985,4.463-7.8-1.724,0,0-2.8,3.535-3.97,2.188s-5-3.506-6.114-7.94a155.128,155.128,0,0,0-5.8-15.2Z" transform="translate(-2.617 79.764)" fill="#ffbf9d"/>
      <path id="Path_2464" data-name="Path 2464" d="M90.157,190a21.618,21.618,0,0,0-11.287,8.476c-3.448,5.3-4.506,14.489-3.521,21.328,2.086,14.417,8.694,38.744,12.417,54.364,1.275,5.39,3.9,15.04,11.591,20.155l54.9,32.92,14.678-21.734-50.046-40.787-9.9-55.9Z" transform="translate(-27.781 43.162)" fill="#455a64"/>
      <path id="Path_2465" data-name="Path 2465" d="M78.91,235.772a3.2,3.2,0,0,1,.174.565l.464,1.7c.391,1.536.942,3.738,1.666,6.564,1.449,5.8,3.506,14.026,6.071,24.27a28.414,28.414,0,0,0,9.041,14.315,54.375,54.375,0,0,0,8.027,5.332l8.824,5.332,39.541,23.878-.507.116L157.5,310l9.389-13.953.072.507-49.6-40.845h-.087v-.1c-3.275-13.779-5.651-25.067-7.158-32.92-.739-3.927-1.261-6.984-1.594-9.07-.145-1.014-.261-1.811-.348-2.376s-.1-.811-.1-.811a6.827,6.827,0,0,1,.188.8c.1.565.246,1.348.42,2.362.391,2.072.956,5.129,1.768,9.041,1.579,7.824,4.043,19.082,7.39,32.847l-.1-.159,49.684,40.657.261.217-.188.275-9.389,13.953-5.289,7.839-.188.29-.319-.174L112.83,294.425l-8.81-5.347a55.477,55.477,0,0,1-8.085-5.376,28.791,28.791,0,0,1-9.143-14.649c-2.478-10.273-4.463-18.575-5.8-24.328-.652-2.9-1.174-5.057-1.536-6.593l-.42-1.782a4.231,4.231,0,0,1-.13-.58Z" transform="translate(-26.024 52.334)" fill="#263238"/>
      <path id="Path_2466" data-name="Path 2466" d="M79.53,195.772a3.464,3.464,0,0,1,1.116-.478,21.137,21.137,0,0,1,3.217-.724,19.053,19.053,0,0,1,10.708,1.449,21.357,21.357,0,0,1,8,7.245,13.041,13.041,0,0,1,1.449,2.97,3.418,3.418,0,0,1,.261,1.174,30.515,30.515,0,0,0-2.159-3.84,22.7,22.7,0,0,0-7.882-6.824,20.01,20.01,0,0,0-10.316-1.594C81.211,195.366,79.573,195.9,79.53,195.772Z" transform="translate(-25.746 45.114)" fill="#263238"/>
    </g>
  </g>
</svg>
