<svg xmlns="http://www.w3.org/2000/svg" width="130.9" height="41.747" viewBox="0 0 130.9 41.747">
  <g id="Layer_1-2" transform="translate(277.813 0.005)">
    <g id="Group_1" data-name="Group 1" transform="translate(-230.739 15.869)">
      <path id="Path_13" data-name="Path 13" d="M315.542,102.766a4.824,4.824,0,0,0-1.462,3.523v.668H322.6a3.636,3.636,0,0,1-3.557,2.932h-4.96v1.387h5a5.005,5.005,0,0,0,4.972-5.013v-.693h-8.517a3.479,3.479,0,0,1,1.213-2.04,3.548,3.548,0,0,1,2.344-.853h4.96V101.29h-4.987A4.872,4.872,0,0,0,315.542,102.766Z" transform="translate(-314.08 -101.29)" fill="#fff"/>
      <path id="Path_14" data-name="Path 14" d="M397.036,122.34a3.3,3.3,0,0,0-2.645,1.31,3.337,3.337,0,0,0-5.991,2.04v3.336h1.4V125.69a1.893,1.893,0,0,1,.566-1.384,1.949,1.949,0,0,1,3.321,1.279v3.441h1.387v-3.438a1.884,1.884,0,0,1,.6-1.315,1.977,1.977,0,0,1,2.744.039A1.877,1.877,0,0,1,399,125.69v3.336h1.374V125.69a3.328,3.328,0,0,0-3.336-3.349Z" transform="translate(-376.753 -119.041)" fill="#fff"/>
      <path id="Path_15" data-name="Path 15" d="M477.609,122.17a3.364,3.364,0,0,0,0,6.728,3.334,3.334,0,0,0,1.964-.63v.63h1.387v-3.363a3.36,3.36,0,0,0-3.349-3.363Zm-1.385,1.979a1.949,1.949,0,1,1-.58,1.384A1.9,1.9,0,0,1,476.224,124.149Z" transform="translate(-449.158 -118.898)" fill="#fff"/>
      <path id="Path_16" data-name="Path 16" d="M528.682,123.209a3.214,3.214,0,0,0-.992,2.34v3.4h1.387V125.6a1.98,1.98,0,0,1,1.964-1.964h.078V122.25h-.078a3.267,3.267,0,0,0-2.358.958Z" transform="translate(-494.215 -118.965)" fill="#fff"/>
      <path id="Path_17" data-name="Path 17" d="M560.4,101.38H559.01v6.674a3.163,3.163,0,0,0,.986,2.333,3.277,3.277,0,0,0,2.365.965h.078v-1.387h-.078A1.98,1.98,0,0,1,560.4,108v-1.964h2.042v-1.387H560.4Z" transform="translate(-520.627 -101.366)" fill="#fff"/>
      <path id="Path_18" data-name="Path 18" d="M610.453,109.916h-1.139a3.633,3.633,0,0,1-3.626-3.626v-4.96H604.3v5.013a5.016,5.016,0,0,0,5.012,4.96h2.526v-9.972h-1.387v8.585Z" transform="translate(-558.819 -101.324)" fill="#32f8bd"/>
      <rect id="Rectangle_4" data-name="Rectangle 4" width="1.387" height="6.699" transform="translate(54.708 3.28)" fill="#32f8bd"/>
      <path id="Path_19" data-name="Path 19" d="M663.793,102.713a.642.642,0,0,0,.481-.207.679.679,0,0,0,.2-.486.663.663,0,0,0-.2-.481.654.654,0,0,0-.481-.2.678.678,0,0,0-.486.2.646.646,0,0,0-.207.481.693.693,0,0,0,.693.694Z" transform="translate(-608.405 -101.332)" fill="#32f8bd"/>
      <path id="Path_20" data-name="Path 20" d="M683.688,123.21a3.361,3.361,0,0,0-.958,2.4v.653h5.114a1.846,1.846,0,0,1-.665.873,1.883,1.883,0,0,1-1.138.384H682.73v1.4h3.311a3.364,3.364,0,0,0,3.31-3.311v-.746h-5.12a1.674,1.674,0,0,1,.569-.81,2,2,0,0,1,1.069-.447h3.481v-1.4h-3.311a3.148,3.148,0,0,0-2.354,1Z" transform="translate(-624.959 -118.932)" fill="#32f8bd"/>
      <rect id="Rectangle_5" data-name="Rectangle 5" width="1.387" height="6.699" transform="translate(66.08 3.28)" fill="#32f8bd"/>
      <path id="Path_21" data-name="Path 21" d="M736.373,102.713a.642.642,0,0,0,.481-.207.679.679,0,0,0,.2-.486.663.663,0,0,0-.2-.481.655.655,0,0,0-.481-.2.679.679,0,0,0-.486.2.647.647,0,0,0-.207.481.693.693,0,0,0,.693.694Z" transform="translate(-669.611 -101.332)" fill="#32f8bd"/>
      <path id="Path_22" data-name="Path 22" d="M757.378,122.3a3.216,3.216,0,0,0-2.366.986,3.356,3.356,0,0,0,0,4.723,3.33,3.33,0,0,0,5.689-2.358,3.262,3.262,0,0,0-.972-2.365,3.2,3.2,0,0,0-2.352-.986Zm-1.384,1.979a1.967,1.967,0,0,1,2.761,0,1.93,1.93,0,0,1,0,2.742,1.96,1.96,0,0,1-2.755,0,1.937,1.937,0,0,1-.006-2.742Z" transform="translate(-685.094 -119.008)" fill="#32f8bd"/>
      <path id="Path_23" data-name="Path 23" d="M811.745,123.028a3.381,3.381,0,0,0-4.763.006,3.228,3.228,0,0,0-.992,2.365v3.376h1.4V125.4a1.89,1.89,0,0,1,.578-1.39,1.92,1.92,0,0,1,1.4-.574,1.871,1.871,0,0,1,1.377.572,1.9,1.9,0,0,1,.572,1.39v3.376h1.414V125.4a3.238,3.238,0,0,0-.986-2.373Z" transform="translate(-728.902 -118.797)" fill="#32f8bd"/>
    </g>
    <path id="Path_24" data-name="Path 24" d="M20.874,41.742a20.873,20.873,0,1,1,14.761-6.113h0a20.734,20.734,0,0,1-14.761,6.113ZM8.907,10.572V22.064a9.529,9.529,0,0,0,1.6,5.347c2.612,3.8,7.26,4.1,8.627,4.1.172,0,.3,0,.365-.008h.752a11.285,11.285,0,0,1-7.695-4.592,8.472,8.472,0,0,1-1.6-4.816v-9.6h6.159a8.672,8.672,0,0,1,4.217,1.1,6.82,6.82,0,0,1,3.618,5.61v4.8l1.995,2.014V19.2a8.941,8.941,0,0,0-.509-2.8,8.415,8.415,0,0,0-3.915-4.686,9.289,9.289,0,0,0-4.452-1.138H8.907Zm6.062,5.515v6.8a8.922,8.922,0,0,0,.509,2.8,8.415,8.415,0,0,0,3.916,4.681A9.277,9.277,0,0,0,23.839,31.5H33V19.654a8.128,8.128,0,0,0-.472-2.727,9.417,9.417,0,0,0-3.01-4.3,11.884,11.884,0,0,0-7.47-2.051h-.389l.183.066c3.827,1.246,7.036,3.465,8.174,5.656a6.615,6.615,0,0,1,.851,3.492v9.8H24.785a8.687,8.687,0,0,1-3.852-.9,6.875,6.875,0,0,1-3.719-4.366,7.469,7.469,0,0,1-.252-1.926V18.1L14.967,16.09Z" transform="translate(-277.813 0)" fill="#fff"/>
  </g>
</svg>
